%TF.GenerationSoftware,KiCad,Pcbnew,7.0.2*%
%TF.CreationDate,2024-07-06T11:43:59+09:00*%
%TF.ProjectId,______,b3f3c8ed-fce9-42e6-9b69-6361645f7063,rev?*%
%TF.SameCoordinates,PX63d4a40PYa3140c0*%
%TF.FileFunction,Legend,Top*%
%TF.FilePolarity,Positive*%
%FSLAX46Y46*%
G04 Gerber Fmt 4.6, Leading zero omitted, Abs format (unit mm)*
G04 Created by KiCad (PCBNEW 7.0.2) date 2024-07-06 11:43:59*
%MOMM*%
%LPD*%
G01*
G04 APERTURE LIST*
%ADD10C,0.150000*%
%ADD11C,0.100000*%
%ADD12C,0.120000*%
G04 APERTURE END LIST*
D10*
%TO.C,R5*%
X65833333Y29457381D02*
X65500000Y29933572D01*
X65261905Y29457381D02*
X65261905Y30457381D01*
X65261905Y30457381D02*
X65642857Y30457381D01*
X65642857Y30457381D02*
X65738095Y30409762D01*
X65738095Y30409762D02*
X65785714Y30362143D01*
X65785714Y30362143D02*
X65833333Y30266905D01*
X65833333Y30266905D02*
X65833333Y30124048D01*
X65833333Y30124048D02*
X65785714Y30028810D01*
X65785714Y30028810D02*
X65738095Y29981191D01*
X65738095Y29981191D02*
X65642857Y29933572D01*
X65642857Y29933572D02*
X65261905Y29933572D01*
X66738095Y30457381D02*
X66261905Y30457381D01*
X66261905Y30457381D02*
X66214286Y29981191D01*
X66214286Y29981191D02*
X66261905Y30028810D01*
X66261905Y30028810D02*
X66357143Y30076429D01*
X66357143Y30076429D02*
X66595238Y30076429D01*
X66595238Y30076429D02*
X66690476Y30028810D01*
X66690476Y30028810D02*
X66738095Y29981191D01*
X66738095Y29981191D02*
X66785714Y29885953D01*
X66785714Y29885953D02*
X66785714Y29647858D01*
X66785714Y29647858D02*
X66738095Y29552620D01*
X66738095Y29552620D02*
X66690476Y29505000D01*
X66690476Y29505000D02*
X66595238Y29457381D01*
X66595238Y29457381D02*
X66357143Y29457381D01*
X66357143Y29457381D02*
X66261905Y29505000D01*
X66261905Y29505000D02*
X66214286Y29552620D01*
%TO.C,U2*%
X43842619Y82098096D02*
X44652142Y82098096D01*
X44652142Y82098096D02*
X44747380Y82145715D01*
X44747380Y82145715D02*
X44795000Y82193334D01*
X44795000Y82193334D02*
X44842619Y82288572D01*
X44842619Y82288572D02*
X44842619Y82479048D01*
X44842619Y82479048D02*
X44795000Y82574286D01*
X44795000Y82574286D02*
X44747380Y82621905D01*
X44747380Y82621905D02*
X44652142Y82669524D01*
X44652142Y82669524D02*
X43842619Y82669524D01*
X43937857Y83098096D02*
X43890238Y83145715D01*
X43890238Y83145715D02*
X43842619Y83240953D01*
X43842619Y83240953D02*
X43842619Y83479048D01*
X43842619Y83479048D02*
X43890238Y83574286D01*
X43890238Y83574286D02*
X43937857Y83621905D01*
X43937857Y83621905D02*
X44033095Y83669524D01*
X44033095Y83669524D02*
X44128333Y83669524D01*
X44128333Y83669524D02*
X44271190Y83621905D01*
X44271190Y83621905D02*
X44842619Y83050477D01*
X44842619Y83050477D02*
X44842619Y83669524D01*
%TO.C,H2*%
X2042619Y5898096D02*
X1042619Y5898096D01*
X1518809Y5898096D02*
X1518809Y6469524D01*
X2042619Y6469524D02*
X1042619Y6469524D01*
X1137857Y6898096D02*
X1090238Y6945715D01*
X1090238Y6945715D02*
X1042619Y7040953D01*
X1042619Y7040953D02*
X1042619Y7279048D01*
X1042619Y7279048D02*
X1090238Y7374286D01*
X1090238Y7374286D02*
X1137857Y7421905D01*
X1137857Y7421905D02*
X1233095Y7469524D01*
X1233095Y7469524D02*
X1328333Y7469524D01*
X1328333Y7469524D02*
X1471190Y7421905D01*
X1471190Y7421905D02*
X2042619Y6850477D01*
X2042619Y6850477D02*
X2042619Y7469524D01*
%TO.C,SW4*%
X94575000Y28826668D02*
X94622619Y28969525D01*
X94622619Y28969525D02*
X94622619Y29207620D01*
X94622619Y29207620D02*
X94575000Y29302858D01*
X94575000Y29302858D02*
X94527380Y29350477D01*
X94527380Y29350477D02*
X94432142Y29398096D01*
X94432142Y29398096D02*
X94336904Y29398096D01*
X94336904Y29398096D02*
X94241666Y29350477D01*
X94241666Y29350477D02*
X94194047Y29302858D01*
X94194047Y29302858D02*
X94146428Y29207620D01*
X94146428Y29207620D02*
X94098809Y29017144D01*
X94098809Y29017144D02*
X94051190Y28921906D01*
X94051190Y28921906D02*
X94003571Y28874287D01*
X94003571Y28874287D02*
X93908333Y28826668D01*
X93908333Y28826668D02*
X93813095Y28826668D01*
X93813095Y28826668D02*
X93717857Y28874287D01*
X93717857Y28874287D02*
X93670238Y28921906D01*
X93670238Y28921906D02*
X93622619Y29017144D01*
X93622619Y29017144D02*
X93622619Y29255239D01*
X93622619Y29255239D02*
X93670238Y29398096D01*
X93622619Y29731430D02*
X94622619Y29969525D01*
X94622619Y29969525D02*
X93908333Y30160001D01*
X93908333Y30160001D02*
X94622619Y30350477D01*
X94622619Y30350477D02*
X93622619Y30588572D01*
X93955952Y31398096D02*
X94622619Y31398096D01*
X93575000Y31160001D02*
X94289285Y30921906D01*
X94289285Y30921906D02*
X94289285Y31540953D01*
%TO.C,R6*%
X65382619Y48833334D02*
X64906428Y48500001D01*
X65382619Y48261906D02*
X64382619Y48261906D01*
X64382619Y48261906D02*
X64382619Y48642858D01*
X64382619Y48642858D02*
X64430238Y48738096D01*
X64430238Y48738096D02*
X64477857Y48785715D01*
X64477857Y48785715D02*
X64573095Y48833334D01*
X64573095Y48833334D02*
X64715952Y48833334D01*
X64715952Y48833334D02*
X64811190Y48785715D01*
X64811190Y48785715D02*
X64858809Y48738096D01*
X64858809Y48738096D02*
X64906428Y48642858D01*
X64906428Y48642858D02*
X64906428Y48261906D01*
X64382619Y49690477D02*
X64382619Y49500001D01*
X64382619Y49500001D02*
X64430238Y49404763D01*
X64430238Y49404763D02*
X64477857Y49357144D01*
X64477857Y49357144D02*
X64620714Y49261906D01*
X64620714Y49261906D02*
X64811190Y49214287D01*
X64811190Y49214287D02*
X65192142Y49214287D01*
X65192142Y49214287D02*
X65287380Y49261906D01*
X65287380Y49261906D02*
X65335000Y49309525D01*
X65335000Y49309525D02*
X65382619Y49404763D01*
X65382619Y49404763D02*
X65382619Y49595239D01*
X65382619Y49595239D02*
X65335000Y49690477D01*
X65335000Y49690477D02*
X65287380Y49738096D01*
X65287380Y49738096D02*
X65192142Y49785715D01*
X65192142Y49785715D02*
X64954047Y49785715D01*
X64954047Y49785715D02*
X64858809Y49738096D01*
X64858809Y49738096D02*
X64811190Y49690477D01*
X64811190Y49690477D02*
X64763571Y49595239D01*
X64763571Y49595239D02*
X64763571Y49404763D01*
X64763571Y49404763D02*
X64811190Y49309525D01*
X64811190Y49309525D02*
X64858809Y49261906D01*
X64858809Y49261906D02*
X64954047Y49214287D01*
%TO.C,R17*%
X58477142Y84317381D02*
X58143809Y84793572D01*
X57905714Y84317381D02*
X57905714Y85317381D01*
X57905714Y85317381D02*
X58286666Y85317381D01*
X58286666Y85317381D02*
X58381904Y85269762D01*
X58381904Y85269762D02*
X58429523Y85222143D01*
X58429523Y85222143D02*
X58477142Y85126905D01*
X58477142Y85126905D02*
X58477142Y84984048D01*
X58477142Y84984048D02*
X58429523Y84888810D01*
X58429523Y84888810D02*
X58381904Y84841191D01*
X58381904Y84841191D02*
X58286666Y84793572D01*
X58286666Y84793572D02*
X57905714Y84793572D01*
X59429523Y84317381D02*
X58858095Y84317381D01*
X59143809Y84317381D02*
X59143809Y85317381D01*
X59143809Y85317381D02*
X59048571Y85174524D01*
X59048571Y85174524D02*
X58953333Y85079286D01*
X58953333Y85079286D02*
X58858095Y85031667D01*
X59762857Y85317381D02*
X60429523Y85317381D01*
X60429523Y85317381D02*
X60000952Y84317381D01*
%TO.C,SW9*%
X47295000Y116926668D02*
X47342619Y117069525D01*
X47342619Y117069525D02*
X47342619Y117307620D01*
X47342619Y117307620D02*
X47295000Y117402858D01*
X47295000Y117402858D02*
X47247380Y117450477D01*
X47247380Y117450477D02*
X47152142Y117498096D01*
X47152142Y117498096D02*
X47056904Y117498096D01*
X47056904Y117498096D02*
X46961666Y117450477D01*
X46961666Y117450477D02*
X46914047Y117402858D01*
X46914047Y117402858D02*
X46866428Y117307620D01*
X46866428Y117307620D02*
X46818809Y117117144D01*
X46818809Y117117144D02*
X46771190Y117021906D01*
X46771190Y117021906D02*
X46723571Y116974287D01*
X46723571Y116974287D02*
X46628333Y116926668D01*
X46628333Y116926668D02*
X46533095Y116926668D01*
X46533095Y116926668D02*
X46437857Y116974287D01*
X46437857Y116974287D02*
X46390238Y117021906D01*
X46390238Y117021906D02*
X46342619Y117117144D01*
X46342619Y117117144D02*
X46342619Y117355239D01*
X46342619Y117355239D02*
X46390238Y117498096D01*
X46342619Y117831430D02*
X47342619Y118069525D01*
X47342619Y118069525D02*
X46628333Y118260001D01*
X46628333Y118260001D02*
X47342619Y118450477D01*
X47342619Y118450477D02*
X46342619Y118688572D01*
X47342619Y119117144D02*
X47342619Y119307620D01*
X47342619Y119307620D02*
X47295000Y119402858D01*
X47295000Y119402858D02*
X47247380Y119450477D01*
X47247380Y119450477D02*
X47104523Y119545715D01*
X47104523Y119545715D02*
X46914047Y119593334D01*
X46914047Y119593334D02*
X46533095Y119593334D01*
X46533095Y119593334D02*
X46437857Y119545715D01*
X46437857Y119545715D02*
X46390238Y119498096D01*
X46390238Y119498096D02*
X46342619Y119402858D01*
X46342619Y119402858D02*
X46342619Y119212382D01*
X46342619Y119212382D02*
X46390238Y119117144D01*
X46390238Y119117144D02*
X46437857Y119069525D01*
X46437857Y119069525D02*
X46533095Y119021906D01*
X46533095Y119021906D02*
X46771190Y119021906D01*
X46771190Y119021906D02*
X46866428Y119069525D01*
X46866428Y119069525D02*
X46914047Y119117144D01*
X46914047Y119117144D02*
X46961666Y119212382D01*
X46961666Y119212382D02*
X46961666Y119402858D01*
X46961666Y119402858D02*
X46914047Y119498096D01*
X46914047Y119498096D02*
X46866428Y119545715D01*
X46866428Y119545715D02*
X46771190Y119593334D01*
%TO.C,D3*%
X17342619Y5531906D02*
X16342619Y5531906D01*
X16342619Y5531906D02*
X16342619Y5770001D01*
X16342619Y5770001D02*
X16390238Y5912858D01*
X16390238Y5912858D02*
X16485476Y6008096D01*
X16485476Y6008096D02*
X16580714Y6055715D01*
X16580714Y6055715D02*
X16771190Y6103334D01*
X16771190Y6103334D02*
X16914047Y6103334D01*
X16914047Y6103334D02*
X17104523Y6055715D01*
X17104523Y6055715D02*
X17199761Y6008096D01*
X17199761Y6008096D02*
X17295000Y5912858D01*
X17295000Y5912858D02*
X17342619Y5770001D01*
X17342619Y5770001D02*
X17342619Y5531906D01*
X16342619Y6436668D02*
X16342619Y7055715D01*
X16342619Y7055715D02*
X16723571Y6722382D01*
X16723571Y6722382D02*
X16723571Y6865239D01*
X16723571Y6865239D02*
X16771190Y6960477D01*
X16771190Y6960477D02*
X16818809Y7008096D01*
X16818809Y7008096D02*
X16914047Y7055715D01*
X16914047Y7055715D02*
X17152142Y7055715D01*
X17152142Y7055715D02*
X17247380Y7008096D01*
X17247380Y7008096D02*
X17295000Y6960477D01*
X17295000Y6960477D02*
X17342619Y6865239D01*
X17342619Y6865239D02*
X17342619Y6579525D01*
X17342619Y6579525D02*
X17295000Y6484287D01*
X17295000Y6484287D02*
X17247380Y6436668D01*
%TO.C,C5*%
X14083333Y131682620D02*
X14035714Y131635000D01*
X14035714Y131635000D02*
X13892857Y131587381D01*
X13892857Y131587381D02*
X13797619Y131587381D01*
X13797619Y131587381D02*
X13654762Y131635000D01*
X13654762Y131635000D02*
X13559524Y131730239D01*
X13559524Y131730239D02*
X13511905Y131825477D01*
X13511905Y131825477D02*
X13464286Y132015953D01*
X13464286Y132015953D02*
X13464286Y132158810D01*
X13464286Y132158810D02*
X13511905Y132349286D01*
X13511905Y132349286D02*
X13559524Y132444524D01*
X13559524Y132444524D02*
X13654762Y132539762D01*
X13654762Y132539762D02*
X13797619Y132587381D01*
X13797619Y132587381D02*
X13892857Y132587381D01*
X13892857Y132587381D02*
X14035714Y132539762D01*
X14035714Y132539762D02*
X14083333Y132492143D01*
X14988095Y132587381D02*
X14511905Y132587381D01*
X14511905Y132587381D02*
X14464286Y132111191D01*
X14464286Y132111191D02*
X14511905Y132158810D01*
X14511905Y132158810D02*
X14607143Y132206429D01*
X14607143Y132206429D02*
X14845238Y132206429D01*
X14845238Y132206429D02*
X14940476Y132158810D01*
X14940476Y132158810D02*
X14988095Y132111191D01*
X14988095Y132111191D02*
X15035714Y132015953D01*
X15035714Y132015953D02*
X15035714Y131777858D01*
X15035714Y131777858D02*
X14988095Y131682620D01*
X14988095Y131682620D02*
X14940476Y131635000D01*
X14940476Y131635000D02*
X14845238Y131587381D01*
X14845238Y131587381D02*
X14607143Y131587381D01*
X14607143Y131587381D02*
X14511905Y131635000D01*
X14511905Y131635000D02*
X14464286Y131682620D01*
%TO.C,H3*%
X85862619Y5898096D02*
X84862619Y5898096D01*
X85338809Y5898096D02*
X85338809Y6469524D01*
X85862619Y6469524D02*
X84862619Y6469524D01*
X84862619Y6850477D02*
X84862619Y7469524D01*
X84862619Y7469524D02*
X85243571Y7136191D01*
X85243571Y7136191D02*
X85243571Y7279048D01*
X85243571Y7279048D02*
X85291190Y7374286D01*
X85291190Y7374286D02*
X85338809Y7421905D01*
X85338809Y7421905D02*
X85434047Y7469524D01*
X85434047Y7469524D02*
X85672142Y7469524D01*
X85672142Y7469524D02*
X85767380Y7421905D01*
X85767380Y7421905D02*
X85815000Y7374286D01*
X85815000Y7374286D02*
X85862619Y7279048D01*
X85862619Y7279048D02*
X85862619Y6993334D01*
X85862619Y6993334D02*
X85815000Y6898096D01*
X85815000Y6898096D02*
X85767380Y6850477D01*
%TO.C,C6*%
X16963082Y104232025D02*
X16915463Y104184405D01*
X16915463Y104184405D02*
X16772606Y104136786D01*
X16772606Y104136786D02*
X16677368Y104136786D01*
X16677368Y104136786D02*
X16534511Y104184405D01*
X16534511Y104184405D02*
X16439273Y104279644D01*
X16439273Y104279644D02*
X16391654Y104374882D01*
X16391654Y104374882D02*
X16344035Y104565358D01*
X16344035Y104565358D02*
X16344035Y104708215D01*
X16344035Y104708215D02*
X16391654Y104898691D01*
X16391654Y104898691D02*
X16439273Y104993929D01*
X16439273Y104993929D02*
X16534511Y105089167D01*
X16534511Y105089167D02*
X16677368Y105136786D01*
X16677368Y105136786D02*
X16772606Y105136786D01*
X16772606Y105136786D02*
X16915463Y105089167D01*
X16915463Y105089167D02*
X16963082Y105041548D01*
X17820225Y105136786D02*
X17629749Y105136786D01*
X17629749Y105136786D02*
X17534511Y105089167D01*
X17534511Y105089167D02*
X17486892Y105041548D01*
X17486892Y105041548D02*
X17391654Y104898691D01*
X17391654Y104898691D02*
X17344035Y104708215D01*
X17344035Y104708215D02*
X17344035Y104327263D01*
X17344035Y104327263D02*
X17391654Y104232025D01*
X17391654Y104232025D02*
X17439273Y104184405D01*
X17439273Y104184405D02*
X17534511Y104136786D01*
X17534511Y104136786D02*
X17724987Y104136786D01*
X17724987Y104136786D02*
X17820225Y104184405D01*
X17820225Y104184405D02*
X17867844Y104232025D01*
X17867844Y104232025D02*
X17915463Y104327263D01*
X17915463Y104327263D02*
X17915463Y104565358D01*
X17915463Y104565358D02*
X17867844Y104660596D01*
X17867844Y104660596D02*
X17820225Y104708215D01*
X17820225Y104708215D02*
X17724987Y104755834D01*
X17724987Y104755834D02*
X17534511Y104755834D01*
X17534511Y104755834D02*
X17439273Y104708215D01*
X17439273Y104708215D02*
X17391654Y104660596D01*
X17391654Y104660596D02*
X17344035Y104565358D01*
%TO.C,R11*%
X11542619Y109357143D02*
X11066428Y109023810D01*
X11542619Y108785715D02*
X10542619Y108785715D01*
X10542619Y108785715D02*
X10542619Y109166667D01*
X10542619Y109166667D02*
X10590238Y109261905D01*
X10590238Y109261905D02*
X10637857Y109309524D01*
X10637857Y109309524D02*
X10733095Y109357143D01*
X10733095Y109357143D02*
X10875952Y109357143D01*
X10875952Y109357143D02*
X10971190Y109309524D01*
X10971190Y109309524D02*
X11018809Y109261905D01*
X11018809Y109261905D02*
X11066428Y109166667D01*
X11066428Y109166667D02*
X11066428Y108785715D01*
X11542619Y110309524D02*
X11542619Y109738096D01*
X11542619Y110023810D02*
X10542619Y110023810D01*
X10542619Y110023810D02*
X10685476Y109928572D01*
X10685476Y109928572D02*
X10780714Y109833334D01*
X10780714Y109833334D02*
X10828333Y109738096D01*
X11542619Y111261905D02*
X11542619Y110690477D01*
X11542619Y110976191D02*
X10542619Y110976191D01*
X10542619Y110976191D02*
X10685476Y110880953D01*
X10685476Y110880953D02*
X10780714Y110785715D01*
X10780714Y110785715D02*
X10828333Y110690477D01*
%TO.C,R15*%
X58477142Y81167381D02*
X58143809Y81643572D01*
X57905714Y81167381D02*
X57905714Y82167381D01*
X57905714Y82167381D02*
X58286666Y82167381D01*
X58286666Y82167381D02*
X58381904Y82119762D01*
X58381904Y82119762D02*
X58429523Y82072143D01*
X58429523Y82072143D02*
X58477142Y81976905D01*
X58477142Y81976905D02*
X58477142Y81834048D01*
X58477142Y81834048D02*
X58429523Y81738810D01*
X58429523Y81738810D02*
X58381904Y81691191D01*
X58381904Y81691191D02*
X58286666Y81643572D01*
X58286666Y81643572D02*
X57905714Y81643572D01*
X59429523Y81167381D02*
X58858095Y81167381D01*
X59143809Y81167381D02*
X59143809Y82167381D01*
X59143809Y82167381D02*
X59048571Y82024524D01*
X59048571Y82024524D02*
X58953333Y81929286D01*
X58953333Y81929286D02*
X58858095Y81881667D01*
X60334285Y82167381D02*
X59858095Y82167381D01*
X59858095Y82167381D02*
X59810476Y81691191D01*
X59810476Y81691191D02*
X59858095Y81738810D01*
X59858095Y81738810D02*
X59953333Y81786429D01*
X59953333Y81786429D02*
X60191428Y81786429D01*
X60191428Y81786429D02*
X60286666Y81738810D01*
X60286666Y81738810D02*
X60334285Y81691191D01*
X60334285Y81691191D02*
X60381904Y81595953D01*
X60381904Y81595953D02*
X60381904Y81357858D01*
X60381904Y81357858D02*
X60334285Y81262620D01*
X60334285Y81262620D02*
X60286666Y81215000D01*
X60286666Y81215000D02*
X60191428Y81167381D01*
X60191428Y81167381D02*
X59953333Y81167381D01*
X59953333Y81167381D02*
X59858095Y81215000D01*
X59858095Y81215000D02*
X59810476Y81262620D01*
%TO.C,H1*%
X2042619Y137978096D02*
X1042619Y137978096D01*
X1518809Y137978096D02*
X1518809Y138549524D01*
X2042619Y138549524D02*
X1042619Y138549524D01*
X2042619Y139549524D02*
X2042619Y138978096D01*
X2042619Y139263810D02*
X1042619Y139263810D01*
X1042619Y139263810D02*
X1185476Y139168572D01*
X1185476Y139168572D02*
X1280714Y139073334D01*
X1280714Y139073334D02*
X1328333Y138978096D01*
%TO.C,U3*%
X15238095Y123862381D02*
X15238095Y123052858D01*
X15238095Y123052858D02*
X15285714Y122957620D01*
X15285714Y122957620D02*
X15333333Y122910000D01*
X15333333Y122910000D02*
X15428571Y122862381D01*
X15428571Y122862381D02*
X15619047Y122862381D01*
X15619047Y122862381D02*
X15714285Y122910000D01*
X15714285Y122910000D02*
X15761904Y122957620D01*
X15761904Y122957620D02*
X15809523Y123052858D01*
X15809523Y123052858D02*
X15809523Y123862381D01*
X16190476Y123862381D02*
X16809523Y123862381D01*
X16809523Y123862381D02*
X16476190Y123481429D01*
X16476190Y123481429D02*
X16619047Y123481429D01*
X16619047Y123481429D02*
X16714285Y123433810D01*
X16714285Y123433810D02*
X16761904Y123386191D01*
X16761904Y123386191D02*
X16809523Y123290953D01*
X16809523Y123290953D02*
X16809523Y123052858D01*
X16809523Y123052858D02*
X16761904Y122957620D01*
X16761904Y122957620D02*
X16714285Y122910000D01*
X16714285Y122910000D02*
X16619047Y122862381D01*
X16619047Y122862381D02*
X16333333Y122862381D01*
X16333333Y122862381D02*
X16238095Y122910000D01*
X16238095Y122910000D02*
X16190476Y122957620D01*
%TO.C,D9*%
X15261905Y126657381D02*
X15261905Y127657381D01*
X15261905Y127657381D02*
X15500000Y127657381D01*
X15500000Y127657381D02*
X15642857Y127609762D01*
X15642857Y127609762D02*
X15738095Y127514524D01*
X15738095Y127514524D02*
X15785714Y127419286D01*
X15785714Y127419286D02*
X15833333Y127228810D01*
X15833333Y127228810D02*
X15833333Y127085953D01*
X15833333Y127085953D02*
X15785714Y126895477D01*
X15785714Y126895477D02*
X15738095Y126800239D01*
X15738095Y126800239D02*
X15642857Y126705000D01*
X15642857Y126705000D02*
X15500000Y126657381D01*
X15500000Y126657381D02*
X15261905Y126657381D01*
X16309524Y126657381D02*
X16500000Y126657381D01*
X16500000Y126657381D02*
X16595238Y126705000D01*
X16595238Y126705000D02*
X16642857Y126752620D01*
X16642857Y126752620D02*
X16738095Y126895477D01*
X16738095Y126895477D02*
X16785714Y127085953D01*
X16785714Y127085953D02*
X16785714Y127466905D01*
X16785714Y127466905D02*
X16738095Y127562143D01*
X16738095Y127562143D02*
X16690476Y127609762D01*
X16690476Y127609762D02*
X16595238Y127657381D01*
X16595238Y127657381D02*
X16404762Y127657381D01*
X16404762Y127657381D02*
X16309524Y127609762D01*
X16309524Y127609762D02*
X16261905Y127562143D01*
X16261905Y127562143D02*
X16214286Y127466905D01*
X16214286Y127466905D02*
X16214286Y127228810D01*
X16214286Y127228810D02*
X16261905Y127133572D01*
X16261905Y127133572D02*
X16309524Y127085953D01*
X16309524Y127085953D02*
X16404762Y127038334D01*
X16404762Y127038334D02*
X16595238Y127038334D01*
X16595238Y127038334D02*
X16690476Y127085953D01*
X16690476Y127085953D02*
X16738095Y127133572D01*
X16738095Y127133572D02*
X16785714Y127228810D01*
X11928095Y126337381D02*
X11928095Y127337381D01*
X12499523Y126337381D02*
X12070952Y126908810D01*
X12499523Y127337381D02*
X11928095Y126765953D01*
%TO.C,SW7*%
X67615000Y104226668D02*
X67662619Y104369525D01*
X67662619Y104369525D02*
X67662619Y104607620D01*
X67662619Y104607620D02*
X67615000Y104702858D01*
X67615000Y104702858D02*
X67567380Y104750477D01*
X67567380Y104750477D02*
X67472142Y104798096D01*
X67472142Y104798096D02*
X67376904Y104798096D01*
X67376904Y104798096D02*
X67281666Y104750477D01*
X67281666Y104750477D02*
X67234047Y104702858D01*
X67234047Y104702858D02*
X67186428Y104607620D01*
X67186428Y104607620D02*
X67138809Y104417144D01*
X67138809Y104417144D02*
X67091190Y104321906D01*
X67091190Y104321906D02*
X67043571Y104274287D01*
X67043571Y104274287D02*
X66948333Y104226668D01*
X66948333Y104226668D02*
X66853095Y104226668D01*
X66853095Y104226668D02*
X66757857Y104274287D01*
X66757857Y104274287D02*
X66710238Y104321906D01*
X66710238Y104321906D02*
X66662619Y104417144D01*
X66662619Y104417144D02*
X66662619Y104655239D01*
X66662619Y104655239D02*
X66710238Y104798096D01*
X66662619Y105131430D02*
X67662619Y105369525D01*
X67662619Y105369525D02*
X66948333Y105560001D01*
X66948333Y105560001D02*
X67662619Y105750477D01*
X67662619Y105750477D02*
X66662619Y105988572D01*
X66662619Y106274287D02*
X66662619Y106940953D01*
X66662619Y106940953D02*
X67662619Y106512382D01*
%TO.C,D7*%
X27502619Y5531906D02*
X26502619Y5531906D01*
X26502619Y5531906D02*
X26502619Y5770001D01*
X26502619Y5770001D02*
X26550238Y5912858D01*
X26550238Y5912858D02*
X26645476Y6008096D01*
X26645476Y6008096D02*
X26740714Y6055715D01*
X26740714Y6055715D02*
X26931190Y6103334D01*
X26931190Y6103334D02*
X27074047Y6103334D01*
X27074047Y6103334D02*
X27264523Y6055715D01*
X27264523Y6055715D02*
X27359761Y6008096D01*
X27359761Y6008096D02*
X27455000Y5912858D01*
X27455000Y5912858D02*
X27502619Y5770001D01*
X27502619Y5770001D02*
X27502619Y5531906D01*
X26502619Y6436668D02*
X26502619Y7103334D01*
X26502619Y7103334D02*
X27502619Y6674763D01*
%TO.C,R9*%
X64042619Y118253334D02*
X63566428Y117920001D01*
X64042619Y117681906D02*
X63042619Y117681906D01*
X63042619Y117681906D02*
X63042619Y118062858D01*
X63042619Y118062858D02*
X63090238Y118158096D01*
X63090238Y118158096D02*
X63137857Y118205715D01*
X63137857Y118205715D02*
X63233095Y118253334D01*
X63233095Y118253334D02*
X63375952Y118253334D01*
X63375952Y118253334D02*
X63471190Y118205715D01*
X63471190Y118205715D02*
X63518809Y118158096D01*
X63518809Y118158096D02*
X63566428Y118062858D01*
X63566428Y118062858D02*
X63566428Y117681906D01*
X64042619Y118729525D02*
X64042619Y118920001D01*
X64042619Y118920001D02*
X63995000Y119015239D01*
X63995000Y119015239D02*
X63947380Y119062858D01*
X63947380Y119062858D02*
X63804523Y119158096D01*
X63804523Y119158096D02*
X63614047Y119205715D01*
X63614047Y119205715D02*
X63233095Y119205715D01*
X63233095Y119205715D02*
X63137857Y119158096D01*
X63137857Y119158096D02*
X63090238Y119110477D01*
X63090238Y119110477D02*
X63042619Y119015239D01*
X63042619Y119015239D02*
X63042619Y118824763D01*
X63042619Y118824763D02*
X63090238Y118729525D01*
X63090238Y118729525D02*
X63137857Y118681906D01*
X63137857Y118681906D02*
X63233095Y118634287D01*
X63233095Y118634287D02*
X63471190Y118634287D01*
X63471190Y118634287D02*
X63566428Y118681906D01*
X63566428Y118681906D02*
X63614047Y118729525D01*
X63614047Y118729525D02*
X63661666Y118824763D01*
X63661666Y118824763D02*
X63661666Y119015239D01*
X63661666Y119015239D02*
X63614047Y119110477D01*
X63614047Y119110477D02*
X63566428Y119158096D01*
X63566428Y119158096D02*
X63471190Y119205715D01*
%TO.C,R2*%
X65833333Y36057381D02*
X65500000Y36533572D01*
X65261905Y36057381D02*
X65261905Y37057381D01*
X65261905Y37057381D02*
X65642857Y37057381D01*
X65642857Y37057381D02*
X65738095Y37009762D01*
X65738095Y37009762D02*
X65785714Y36962143D01*
X65785714Y36962143D02*
X65833333Y36866905D01*
X65833333Y36866905D02*
X65833333Y36724048D01*
X65833333Y36724048D02*
X65785714Y36628810D01*
X65785714Y36628810D02*
X65738095Y36581191D01*
X65738095Y36581191D02*
X65642857Y36533572D01*
X65642857Y36533572D02*
X65261905Y36533572D01*
X66214286Y36962143D02*
X66261905Y37009762D01*
X66261905Y37009762D02*
X66357143Y37057381D01*
X66357143Y37057381D02*
X66595238Y37057381D01*
X66595238Y37057381D02*
X66690476Y37009762D01*
X66690476Y37009762D02*
X66738095Y36962143D01*
X66738095Y36962143D02*
X66785714Y36866905D01*
X66785714Y36866905D02*
X66785714Y36771667D01*
X66785714Y36771667D02*
X66738095Y36628810D01*
X66738095Y36628810D02*
X66166667Y36057381D01*
X66166667Y36057381D02*
X66785714Y36057381D01*
%TO.C,C1*%
X22143333Y61682620D02*
X22095714Y61635000D01*
X22095714Y61635000D02*
X21952857Y61587381D01*
X21952857Y61587381D02*
X21857619Y61587381D01*
X21857619Y61587381D02*
X21714762Y61635000D01*
X21714762Y61635000D02*
X21619524Y61730239D01*
X21619524Y61730239D02*
X21571905Y61825477D01*
X21571905Y61825477D02*
X21524286Y62015953D01*
X21524286Y62015953D02*
X21524286Y62158810D01*
X21524286Y62158810D02*
X21571905Y62349286D01*
X21571905Y62349286D02*
X21619524Y62444524D01*
X21619524Y62444524D02*
X21714762Y62539762D01*
X21714762Y62539762D02*
X21857619Y62587381D01*
X21857619Y62587381D02*
X21952857Y62587381D01*
X21952857Y62587381D02*
X22095714Y62539762D01*
X22095714Y62539762D02*
X22143333Y62492143D01*
X23095714Y61587381D02*
X22524286Y61587381D01*
X22810000Y61587381D02*
X22810000Y62587381D01*
X22810000Y62587381D02*
X22714762Y62444524D01*
X22714762Y62444524D02*
X22619524Y62349286D01*
X22619524Y62349286D02*
X22524286Y62301667D01*
%TO.C,R14*%
X58477142Y78017381D02*
X58143809Y78493572D01*
X57905714Y78017381D02*
X57905714Y79017381D01*
X57905714Y79017381D02*
X58286666Y79017381D01*
X58286666Y79017381D02*
X58381904Y78969762D01*
X58381904Y78969762D02*
X58429523Y78922143D01*
X58429523Y78922143D02*
X58477142Y78826905D01*
X58477142Y78826905D02*
X58477142Y78684048D01*
X58477142Y78684048D02*
X58429523Y78588810D01*
X58429523Y78588810D02*
X58381904Y78541191D01*
X58381904Y78541191D02*
X58286666Y78493572D01*
X58286666Y78493572D02*
X57905714Y78493572D01*
X59429523Y78017381D02*
X58858095Y78017381D01*
X59143809Y78017381D02*
X59143809Y79017381D01*
X59143809Y79017381D02*
X59048571Y78874524D01*
X59048571Y78874524D02*
X58953333Y78779286D01*
X58953333Y78779286D02*
X58858095Y78731667D01*
X60286666Y78684048D02*
X60286666Y78017381D01*
X60048571Y79065000D02*
X59810476Y78350715D01*
X59810476Y78350715D02*
X60429523Y78350715D01*
%TO.C,R13*%
X23132619Y18717143D02*
X22656428Y18383810D01*
X23132619Y18145715D02*
X22132619Y18145715D01*
X22132619Y18145715D02*
X22132619Y18526667D01*
X22132619Y18526667D02*
X22180238Y18621905D01*
X22180238Y18621905D02*
X22227857Y18669524D01*
X22227857Y18669524D02*
X22323095Y18717143D01*
X22323095Y18717143D02*
X22465952Y18717143D01*
X22465952Y18717143D02*
X22561190Y18669524D01*
X22561190Y18669524D02*
X22608809Y18621905D01*
X22608809Y18621905D02*
X22656428Y18526667D01*
X22656428Y18526667D02*
X22656428Y18145715D01*
X23132619Y19669524D02*
X23132619Y19098096D01*
X23132619Y19383810D02*
X22132619Y19383810D01*
X22132619Y19383810D02*
X22275476Y19288572D01*
X22275476Y19288572D02*
X22370714Y19193334D01*
X22370714Y19193334D02*
X22418333Y19098096D01*
X22132619Y20002858D02*
X22132619Y20621905D01*
X22132619Y20621905D02*
X22513571Y20288572D01*
X22513571Y20288572D02*
X22513571Y20431429D01*
X22513571Y20431429D02*
X22561190Y20526667D01*
X22561190Y20526667D02*
X22608809Y20574286D01*
X22608809Y20574286D02*
X22704047Y20621905D01*
X22704047Y20621905D02*
X22942142Y20621905D01*
X22942142Y20621905D02*
X23037380Y20574286D01*
X23037380Y20574286D02*
X23085000Y20526667D01*
X23085000Y20526667D02*
X23132619Y20431429D01*
X23132619Y20431429D02*
X23132619Y20145715D01*
X23132619Y20145715D02*
X23085000Y20050477D01*
X23085000Y20050477D02*
X23037380Y20002858D01*
%TO.C,D5*%
X81762619Y74801906D02*
X80762619Y74801906D01*
X80762619Y74801906D02*
X80762619Y75040001D01*
X80762619Y75040001D02*
X80810238Y75182858D01*
X80810238Y75182858D02*
X80905476Y75278096D01*
X80905476Y75278096D02*
X81000714Y75325715D01*
X81000714Y75325715D02*
X81191190Y75373334D01*
X81191190Y75373334D02*
X81334047Y75373334D01*
X81334047Y75373334D02*
X81524523Y75325715D01*
X81524523Y75325715D02*
X81619761Y75278096D01*
X81619761Y75278096D02*
X81715000Y75182858D01*
X81715000Y75182858D02*
X81762619Y75040001D01*
X81762619Y75040001D02*
X81762619Y74801906D01*
X80762619Y76278096D02*
X80762619Y75801906D01*
X80762619Y75801906D02*
X81238809Y75754287D01*
X81238809Y75754287D02*
X81191190Y75801906D01*
X81191190Y75801906D02*
X81143571Y75897144D01*
X81143571Y75897144D02*
X81143571Y76135239D01*
X81143571Y76135239D02*
X81191190Y76230477D01*
X81191190Y76230477D02*
X81238809Y76278096D01*
X81238809Y76278096D02*
X81334047Y76325715D01*
X81334047Y76325715D02*
X81572142Y76325715D01*
X81572142Y76325715D02*
X81667380Y76278096D01*
X81667380Y76278096D02*
X81715000Y76230477D01*
X81715000Y76230477D02*
X81762619Y76135239D01*
X81762619Y76135239D02*
X81762619Y75897144D01*
X81762619Y75897144D02*
X81715000Y75801906D01*
X81715000Y75801906D02*
X81667380Y75754287D01*
%TO.C,C4*%
X14083333Y136682620D02*
X14035714Y136635000D01*
X14035714Y136635000D02*
X13892857Y136587381D01*
X13892857Y136587381D02*
X13797619Y136587381D01*
X13797619Y136587381D02*
X13654762Y136635000D01*
X13654762Y136635000D02*
X13559524Y136730239D01*
X13559524Y136730239D02*
X13511905Y136825477D01*
X13511905Y136825477D02*
X13464286Y137015953D01*
X13464286Y137015953D02*
X13464286Y137158810D01*
X13464286Y137158810D02*
X13511905Y137349286D01*
X13511905Y137349286D02*
X13559524Y137444524D01*
X13559524Y137444524D02*
X13654762Y137539762D01*
X13654762Y137539762D02*
X13797619Y137587381D01*
X13797619Y137587381D02*
X13892857Y137587381D01*
X13892857Y137587381D02*
X14035714Y137539762D01*
X14035714Y137539762D02*
X14083333Y137492143D01*
X14940476Y137254048D02*
X14940476Y136587381D01*
X14702381Y137635000D02*
X14464286Y136920715D01*
X14464286Y136920715D02*
X15083333Y136920715D01*
%TO.C,SW6*%
X47295000Y45806668D02*
X47342619Y45949525D01*
X47342619Y45949525D02*
X47342619Y46187620D01*
X47342619Y46187620D02*
X47295000Y46282858D01*
X47295000Y46282858D02*
X47247380Y46330477D01*
X47247380Y46330477D02*
X47152142Y46378096D01*
X47152142Y46378096D02*
X47056904Y46378096D01*
X47056904Y46378096D02*
X46961666Y46330477D01*
X46961666Y46330477D02*
X46914047Y46282858D01*
X46914047Y46282858D02*
X46866428Y46187620D01*
X46866428Y46187620D02*
X46818809Y45997144D01*
X46818809Y45997144D02*
X46771190Y45901906D01*
X46771190Y45901906D02*
X46723571Y45854287D01*
X46723571Y45854287D02*
X46628333Y45806668D01*
X46628333Y45806668D02*
X46533095Y45806668D01*
X46533095Y45806668D02*
X46437857Y45854287D01*
X46437857Y45854287D02*
X46390238Y45901906D01*
X46390238Y45901906D02*
X46342619Y45997144D01*
X46342619Y45997144D02*
X46342619Y46235239D01*
X46342619Y46235239D02*
X46390238Y46378096D01*
X46342619Y46711430D02*
X47342619Y46949525D01*
X47342619Y46949525D02*
X46628333Y47140001D01*
X46628333Y47140001D02*
X47342619Y47330477D01*
X47342619Y47330477D02*
X46342619Y47568572D01*
X46342619Y48378096D02*
X46342619Y48187620D01*
X46342619Y48187620D02*
X46390238Y48092382D01*
X46390238Y48092382D02*
X46437857Y48044763D01*
X46437857Y48044763D02*
X46580714Y47949525D01*
X46580714Y47949525D02*
X46771190Y47901906D01*
X46771190Y47901906D02*
X47152142Y47901906D01*
X47152142Y47901906D02*
X47247380Y47949525D01*
X47247380Y47949525D02*
X47295000Y47997144D01*
X47295000Y47997144D02*
X47342619Y48092382D01*
X47342619Y48092382D02*
X47342619Y48282858D01*
X47342619Y48282858D02*
X47295000Y48378096D01*
X47295000Y48378096D02*
X47247380Y48425715D01*
X47247380Y48425715D02*
X47152142Y48473334D01*
X47152142Y48473334D02*
X46914047Y48473334D01*
X46914047Y48473334D02*
X46818809Y48425715D01*
X46818809Y48425715D02*
X46771190Y48378096D01*
X46771190Y48378096D02*
X46723571Y48282858D01*
X46723571Y48282858D02*
X46723571Y48092382D01*
X46723571Y48092382D02*
X46771190Y47997144D01*
X46771190Y47997144D02*
X46818809Y47949525D01*
X46818809Y47949525D02*
X46914047Y47901906D01*
%TO.C,R8*%
X66582619Y114443334D02*
X66106428Y114110001D01*
X66582619Y113871906D02*
X65582619Y113871906D01*
X65582619Y113871906D02*
X65582619Y114252858D01*
X65582619Y114252858D02*
X65630238Y114348096D01*
X65630238Y114348096D02*
X65677857Y114395715D01*
X65677857Y114395715D02*
X65773095Y114443334D01*
X65773095Y114443334D02*
X65915952Y114443334D01*
X65915952Y114443334D02*
X66011190Y114395715D01*
X66011190Y114395715D02*
X66058809Y114348096D01*
X66058809Y114348096D02*
X66106428Y114252858D01*
X66106428Y114252858D02*
X66106428Y113871906D01*
X66011190Y115014763D02*
X65963571Y114919525D01*
X65963571Y114919525D02*
X65915952Y114871906D01*
X65915952Y114871906D02*
X65820714Y114824287D01*
X65820714Y114824287D02*
X65773095Y114824287D01*
X65773095Y114824287D02*
X65677857Y114871906D01*
X65677857Y114871906D02*
X65630238Y114919525D01*
X65630238Y114919525D02*
X65582619Y115014763D01*
X65582619Y115014763D02*
X65582619Y115205239D01*
X65582619Y115205239D02*
X65630238Y115300477D01*
X65630238Y115300477D02*
X65677857Y115348096D01*
X65677857Y115348096D02*
X65773095Y115395715D01*
X65773095Y115395715D02*
X65820714Y115395715D01*
X65820714Y115395715D02*
X65915952Y115348096D01*
X65915952Y115348096D02*
X65963571Y115300477D01*
X65963571Y115300477D02*
X66011190Y115205239D01*
X66011190Y115205239D02*
X66011190Y115014763D01*
X66011190Y115014763D02*
X66058809Y114919525D01*
X66058809Y114919525D02*
X66106428Y114871906D01*
X66106428Y114871906D02*
X66201666Y114824287D01*
X66201666Y114824287D02*
X66392142Y114824287D01*
X66392142Y114824287D02*
X66487380Y114871906D01*
X66487380Y114871906D02*
X66535000Y114919525D01*
X66535000Y114919525D02*
X66582619Y115014763D01*
X66582619Y115014763D02*
X66582619Y115205239D01*
X66582619Y115205239D02*
X66535000Y115300477D01*
X66535000Y115300477D02*
X66487380Y115348096D01*
X66487380Y115348096D02*
X66392142Y115395715D01*
X66392142Y115395715D02*
X66201666Y115395715D01*
X66201666Y115395715D02*
X66106428Y115348096D01*
X66106428Y115348096D02*
X66058809Y115300477D01*
X66058809Y115300477D02*
X66011190Y115205239D01*
%TO.C,C3*%
X16943333Y109002620D02*
X16895714Y108955000D01*
X16895714Y108955000D02*
X16752857Y108907381D01*
X16752857Y108907381D02*
X16657619Y108907381D01*
X16657619Y108907381D02*
X16514762Y108955000D01*
X16514762Y108955000D02*
X16419524Y109050239D01*
X16419524Y109050239D02*
X16371905Y109145477D01*
X16371905Y109145477D02*
X16324286Y109335953D01*
X16324286Y109335953D02*
X16324286Y109478810D01*
X16324286Y109478810D02*
X16371905Y109669286D01*
X16371905Y109669286D02*
X16419524Y109764524D01*
X16419524Y109764524D02*
X16514762Y109859762D01*
X16514762Y109859762D02*
X16657619Y109907381D01*
X16657619Y109907381D02*
X16752857Y109907381D01*
X16752857Y109907381D02*
X16895714Y109859762D01*
X16895714Y109859762D02*
X16943333Y109812143D01*
X17276667Y109907381D02*
X17895714Y109907381D01*
X17895714Y109907381D02*
X17562381Y109526429D01*
X17562381Y109526429D02*
X17705238Y109526429D01*
X17705238Y109526429D02*
X17800476Y109478810D01*
X17800476Y109478810D02*
X17848095Y109431191D01*
X17848095Y109431191D02*
X17895714Y109335953D01*
X17895714Y109335953D02*
X17895714Y109097858D01*
X17895714Y109097858D02*
X17848095Y109002620D01*
X17848095Y109002620D02*
X17800476Y108955000D01*
X17800476Y108955000D02*
X17705238Y108907381D01*
X17705238Y108907381D02*
X17419524Y108907381D01*
X17419524Y108907381D02*
X17324286Y108955000D01*
X17324286Y108955000D02*
X17276667Y109002620D01*
%TO.C,SW8*%
X67615000Y129626668D02*
X67662619Y129769525D01*
X67662619Y129769525D02*
X67662619Y130007620D01*
X67662619Y130007620D02*
X67615000Y130102858D01*
X67615000Y130102858D02*
X67567380Y130150477D01*
X67567380Y130150477D02*
X67472142Y130198096D01*
X67472142Y130198096D02*
X67376904Y130198096D01*
X67376904Y130198096D02*
X67281666Y130150477D01*
X67281666Y130150477D02*
X67234047Y130102858D01*
X67234047Y130102858D02*
X67186428Y130007620D01*
X67186428Y130007620D02*
X67138809Y129817144D01*
X67138809Y129817144D02*
X67091190Y129721906D01*
X67091190Y129721906D02*
X67043571Y129674287D01*
X67043571Y129674287D02*
X66948333Y129626668D01*
X66948333Y129626668D02*
X66853095Y129626668D01*
X66853095Y129626668D02*
X66757857Y129674287D01*
X66757857Y129674287D02*
X66710238Y129721906D01*
X66710238Y129721906D02*
X66662619Y129817144D01*
X66662619Y129817144D02*
X66662619Y130055239D01*
X66662619Y130055239D02*
X66710238Y130198096D01*
X66662619Y130531430D02*
X67662619Y130769525D01*
X67662619Y130769525D02*
X66948333Y130960001D01*
X66948333Y130960001D02*
X67662619Y131150477D01*
X67662619Y131150477D02*
X66662619Y131388572D01*
X67091190Y131912382D02*
X67043571Y131817144D01*
X67043571Y131817144D02*
X66995952Y131769525D01*
X66995952Y131769525D02*
X66900714Y131721906D01*
X66900714Y131721906D02*
X66853095Y131721906D01*
X66853095Y131721906D02*
X66757857Y131769525D01*
X66757857Y131769525D02*
X66710238Y131817144D01*
X66710238Y131817144D02*
X66662619Y131912382D01*
X66662619Y131912382D02*
X66662619Y132102858D01*
X66662619Y132102858D02*
X66710238Y132198096D01*
X66710238Y132198096D02*
X66757857Y132245715D01*
X66757857Y132245715D02*
X66853095Y132293334D01*
X66853095Y132293334D02*
X66900714Y132293334D01*
X66900714Y132293334D02*
X66995952Y132245715D01*
X66995952Y132245715D02*
X67043571Y132198096D01*
X67043571Y132198096D02*
X67091190Y132102858D01*
X67091190Y132102858D02*
X67091190Y131912382D01*
X67091190Y131912382D02*
X67138809Y131817144D01*
X67138809Y131817144D02*
X67186428Y131769525D01*
X67186428Y131769525D02*
X67281666Y131721906D01*
X67281666Y131721906D02*
X67472142Y131721906D01*
X67472142Y131721906D02*
X67567380Y131769525D01*
X67567380Y131769525D02*
X67615000Y131817144D01*
X67615000Y131817144D02*
X67662619Y131912382D01*
X67662619Y131912382D02*
X67662619Y132102858D01*
X67662619Y132102858D02*
X67615000Y132198096D01*
X67615000Y132198096D02*
X67567380Y132245715D01*
X67567380Y132245715D02*
X67472142Y132293334D01*
X67472142Y132293334D02*
X67281666Y132293334D01*
X67281666Y132293334D02*
X67186428Y132245715D01*
X67186428Y132245715D02*
X67138809Y132198096D01*
X67138809Y132198096D02*
X67091190Y132102858D01*
%TO.C,D8*%
X82022619Y85931906D02*
X81022619Y85931906D01*
X81022619Y85931906D02*
X81022619Y86170001D01*
X81022619Y86170001D02*
X81070238Y86312858D01*
X81070238Y86312858D02*
X81165476Y86408096D01*
X81165476Y86408096D02*
X81260714Y86455715D01*
X81260714Y86455715D02*
X81451190Y86503334D01*
X81451190Y86503334D02*
X81594047Y86503334D01*
X81594047Y86503334D02*
X81784523Y86455715D01*
X81784523Y86455715D02*
X81879761Y86408096D01*
X81879761Y86408096D02*
X81975000Y86312858D01*
X81975000Y86312858D02*
X82022619Y86170001D01*
X82022619Y86170001D02*
X82022619Y85931906D01*
X81451190Y87074763D02*
X81403571Y86979525D01*
X81403571Y86979525D02*
X81355952Y86931906D01*
X81355952Y86931906D02*
X81260714Y86884287D01*
X81260714Y86884287D02*
X81213095Y86884287D01*
X81213095Y86884287D02*
X81117857Y86931906D01*
X81117857Y86931906D02*
X81070238Y86979525D01*
X81070238Y86979525D02*
X81022619Y87074763D01*
X81022619Y87074763D02*
X81022619Y87265239D01*
X81022619Y87265239D02*
X81070238Y87360477D01*
X81070238Y87360477D02*
X81117857Y87408096D01*
X81117857Y87408096D02*
X81213095Y87455715D01*
X81213095Y87455715D02*
X81260714Y87455715D01*
X81260714Y87455715D02*
X81355952Y87408096D01*
X81355952Y87408096D02*
X81403571Y87360477D01*
X81403571Y87360477D02*
X81451190Y87265239D01*
X81451190Y87265239D02*
X81451190Y87074763D01*
X81451190Y87074763D02*
X81498809Y86979525D01*
X81498809Y86979525D02*
X81546428Y86931906D01*
X81546428Y86931906D02*
X81641666Y86884287D01*
X81641666Y86884287D02*
X81832142Y86884287D01*
X81832142Y86884287D02*
X81927380Y86931906D01*
X81927380Y86931906D02*
X81975000Y86979525D01*
X81975000Y86979525D02*
X82022619Y87074763D01*
X82022619Y87074763D02*
X82022619Y87265239D01*
X82022619Y87265239D02*
X81975000Y87360477D01*
X81975000Y87360477D02*
X81927380Y87408096D01*
X81927380Y87408096D02*
X81832142Y87455715D01*
X81832142Y87455715D02*
X81641666Y87455715D01*
X81641666Y87455715D02*
X81546428Y87408096D01*
X81546428Y87408096D02*
X81498809Y87360477D01*
X81498809Y87360477D02*
X81451190Y87265239D01*
%TO.C,SW2*%
X65075000Y10246668D02*
X65122619Y10389525D01*
X65122619Y10389525D02*
X65122619Y10627620D01*
X65122619Y10627620D02*
X65075000Y10722858D01*
X65075000Y10722858D02*
X65027380Y10770477D01*
X65027380Y10770477D02*
X64932142Y10818096D01*
X64932142Y10818096D02*
X64836904Y10818096D01*
X64836904Y10818096D02*
X64741666Y10770477D01*
X64741666Y10770477D02*
X64694047Y10722858D01*
X64694047Y10722858D02*
X64646428Y10627620D01*
X64646428Y10627620D02*
X64598809Y10437144D01*
X64598809Y10437144D02*
X64551190Y10341906D01*
X64551190Y10341906D02*
X64503571Y10294287D01*
X64503571Y10294287D02*
X64408333Y10246668D01*
X64408333Y10246668D02*
X64313095Y10246668D01*
X64313095Y10246668D02*
X64217857Y10294287D01*
X64217857Y10294287D02*
X64170238Y10341906D01*
X64170238Y10341906D02*
X64122619Y10437144D01*
X64122619Y10437144D02*
X64122619Y10675239D01*
X64122619Y10675239D02*
X64170238Y10818096D01*
X64122619Y11151430D02*
X65122619Y11389525D01*
X65122619Y11389525D02*
X64408333Y11580001D01*
X64408333Y11580001D02*
X65122619Y11770477D01*
X65122619Y11770477D02*
X64122619Y12008572D01*
X64217857Y12341906D02*
X64170238Y12389525D01*
X64170238Y12389525D02*
X64122619Y12484763D01*
X64122619Y12484763D02*
X64122619Y12722858D01*
X64122619Y12722858D02*
X64170238Y12818096D01*
X64170238Y12818096D02*
X64217857Y12865715D01*
X64217857Y12865715D02*
X64313095Y12913334D01*
X64313095Y12913334D02*
X64408333Y12913334D01*
X64408333Y12913334D02*
X64551190Y12865715D01*
X64551190Y12865715D02*
X65122619Y12294287D01*
X65122619Y12294287D02*
X65122619Y12913334D01*
%TO.C,C2*%
X27317380Y40083334D02*
X27365000Y40035715D01*
X27365000Y40035715D02*
X27412619Y39892858D01*
X27412619Y39892858D02*
X27412619Y39797620D01*
X27412619Y39797620D02*
X27365000Y39654763D01*
X27365000Y39654763D02*
X27269761Y39559525D01*
X27269761Y39559525D02*
X27174523Y39511906D01*
X27174523Y39511906D02*
X26984047Y39464287D01*
X26984047Y39464287D02*
X26841190Y39464287D01*
X26841190Y39464287D02*
X26650714Y39511906D01*
X26650714Y39511906D02*
X26555476Y39559525D01*
X26555476Y39559525D02*
X26460238Y39654763D01*
X26460238Y39654763D02*
X26412619Y39797620D01*
X26412619Y39797620D02*
X26412619Y39892858D01*
X26412619Y39892858D02*
X26460238Y40035715D01*
X26460238Y40035715D02*
X26507857Y40083334D01*
X26507857Y40464287D02*
X26460238Y40511906D01*
X26460238Y40511906D02*
X26412619Y40607144D01*
X26412619Y40607144D02*
X26412619Y40845239D01*
X26412619Y40845239D02*
X26460238Y40940477D01*
X26460238Y40940477D02*
X26507857Y40988096D01*
X26507857Y40988096D02*
X26603095Y41035715D01*
X26603095Y41035715D02*
X26698333Y41035715D01*
X26698333Y41035715D02*
X26841190Y40988096D01*
X26841190Y40988096D02*
X27412619Y40416668D01*
X27412619Y40416668D02*
X27412619Y41035715D01*
%TO.C,SW3*%
X65075000Y45806668D02*
X65122619Y45949525D01*
X65122619Y45949525D02*
X65122619Y46187620D01*
X65122619Y46187620D02*
X65075000Y46282858D01*
X65075000Y46282858D02*
X65027380Y46330477D01*
X65027380Y46330477D02*
X64932142Y46378096D01*
X64932142Y46378096D02*
X64836904Y46378096D01*
X64836904Y46378096D02*
X64741666Y46330477D01*
X64741666Y46330477D02*
X64694047Y46282858D01*
X64694047Y46282858D02*
X64646428Y46187620D01*
X64646428Y46187620D02*
X64598809Y45997144D01*
X64598809Y45997144D02*
X64551190Y45901906D01*
X64551190Y45901906D02*
X64503571Y45854287D01*
X64503571Y45854287D02*
X64408333Y45806668D01*
X64408333Y45806668D02*
X64313095Y45806668D01*
X64313095Y45806668D02*
X64217857Y45854287D01*
X64217857Y45854287D02*
X64170238Y45901906D01*
X64170238Y45901906D02*
X64122619Y45997144D01*
X64122619Y45997144D02*
X64122619Y46235239D01*
X64122619Y46235239D02*
X64170238Y46378096D01*
X64122619Y46711430D02*
X65122619Y46949525D01*
X65122619Y46949525D02*
X64408333Y47140001D01*
X64408333Y47140001D02*
X65122619Y47330477D01*
X65122619Y47330477D02*
X64122619Y47568572D01*
X64122619Y47854287D02*
X64122619Y48473334D01*
X64122619Y48473334D02*
X64503571Y48140001D01*
X64503571Y48140001D02*
X64503571Y48282858D01*
X64503571Y48282858D02*
X64551190Y48378096D01*
X64551190Y48378096D02*
X64598809Y48425715D01*
X64598809Y48425715D02*
X64694047Y48473334D01*
X64694047Y48473334D02*
X64932142Y48473334D01*
X64932142Y48473334D02*
X65027380Y48425715D01*
X65027380Y48425715D02*
X65075000Y48378096D01*
X65075000Y48378096D02*
X65122619Y48282858D01*
X65122619Y48282858D02*
X65122619Y47997144D01*
X65122619Y47997144D02*
X65075000Y47901906D01*
X65075000Y47901906D02*
X65027380Y47854287D01*
%TO.C,D4*%
X22422619Y5531906D02*
X21422619Y5531906D01*
X21422619Y5531906D02*
X21422619Y5770001D01*
X21422619Y5770001D02*
X21470238Y5912858D01*
X21470238Y5912858D02*
X21565476Y6008096D01*
X21565476Y6008096D02*
X21660714Y6055715D01*
X21660714Y6055715D02*
X21851190Y6103334D01*
X21851190Y6103334D02*
X21994047Y6103334D01*
X21994047Y6103334D02*
X22184523Y6055715D01*
X22184523Y6055715D02*
X22279761Y6008096D01*
X22279761Y6008096D02*
X22375000Y5912858D01*
X22375000Y5912858D02*
X22422619Y5770001D01*
X22422619Y5770001D02*
X22422619Y5531906D01*
X21755952Y6960477D02*
X22422619Y6960477D01*
X21375000Y6722382D02*
X22089285Y6484287D01*
X22089285Y6484287D02*
X22089285Y7103334D01*
%TO.C,R7*%
X71653333Y116037381D02*
X71320000Y116513572D01*
X71081905Y116037381D02*
X71081905Y117037381D01*
X71081905Y117037381D02*
X71462857Y117037381D01*
X71462857Y117037381D02*
X71558095Y116989762D01*
X71558095Y116989762D02*
X71605714Y116942143D01*
X71605714Y116942143D02*
X71653333Y116846905D01*
X71653333Y116846905D02*
X71653333Y116704048D01*
X71653333Y116704048D02*
X71605714Y116608810D01*
X71605714Y116608810D02*
X71558095Y116561191D01*
X71558095Y116561191D02*
X71462857Y116513572D01*
X71462857Y116513572D02*
X71081905Y116513572D01*
X71986667Y117037381D02*
X72653333Y117037381D01*
X72653333Y117037381D02*
X72224762Y116037381D01*
%TO.C,SW5*%
X47295000Y10246668D02*
X47342619Y10389525D01*
X47342619Y10389525D02*
X47342619Y10627620D01*
X47342619Y10627620D02*
X47295000Y10722858D01*
X47295000Y10722858D02*
X47247380Y10770477D01*
X47247380Y10770477D02*
X47152142Y10818096D01*
X47152142Y10818096D02*
X47056904Y10818096D01*
X47056904Y10818096D02*
X46961666Y10770477D01*
X46961666Y10770477D02*
X46914047Y10722858D01*
X46914047Y10722858D02*
X46866428Y10627620D01*
X46866428Y10627620D02*
X46818809Y10437144D01*
X46818809Y10437144D02*
X46771190Y10341906D01*
X46771190Y10341906D02*
X46723571Y10294287D01*
X46723571Y10294287D02*
X46628333Y10246668D01*
X46628333Y10246668D02*
X46533095Y10246668D01*
X46533095Y10246668D02*
X46437857Y10294287D01*
X46437857Y10294287D02*
X46390238Y10341906D01*
X46390238Y10341906D02*
X46342619Y10437144D01*
X46342619Y10437144D02*
X46342619Y10675239D01*
X46342619Y10675239D02*
X46390238Y10818096D01*
X46342619Y11151430D02*
X47342619Y11389525D01*
X47342619Y11389525D02*
X46628333Y11580001D01*
X46628333Y11580001D02*
X47342619Y11770477D01*
X47342619Y11770477D02*
X46342619Y12008572D01*
X46342619Y12865715D02*
X46342619Y12389525D01*
X46342619Y12389525D02*
X46818809Y12341906D01*
X46818809Y12341906D02*
X46771190Y12389525D01*
X46771190Y12389525D02*
X46723571Y12484763D01*
X46723571Y12484763D02*
X46723571Y12722858D01*
X46723571Y12722858D02*
X46771190Y12818096D01*
X46771190Y12818096D02*
X46818809Y12865715D01*
X46818809Y12865715D02*
X46914047Y12913334D01*
X46914047Y12913334D02*
X47152142Y12913334D01*
X47152142Y12913334D02*
X47247380Y12865715D01*
X47247380Y12865715D02*
X47295000Y12818096D01*
X47295000Y12818096D02*
X47342619Y12722858D01*
X47342619Y12722858D02*
X47342619Y12484763D01*
X47342619Y12484763D02*
X47295000Y12389525D01*
X47295000Y12389525D02*
X47247380Y12341906D01*
%TO.C,R16*%
X28542619Y18717143D02*
X28066428Y18383810D01*
X28542619Y18145715D02*
X27542619Y18145715D01*
X27542619Y18145715D02*
X27542619Y18526667D01*
X27542619Y18526667D02*
X27590238Y18621905D01*
X27590238Y18621905D02*
X27637857Y18669524D01*
X27637857Y18669524D02*
X27733095Y18717143D01*
X27733095Y18717143D02*
X27875952Y18717143D01*
X27875952Y18717143D02*
X27971190Y18669524D01*
X27971190Y18669524D02*
X28018809Y18621905D01*
X28018809Y18621905D02*
X28066428Y18526667D01*
X28066428Y18526667D02*
X28066428Y18145715D01*
X28542619Y19669524D02*
X28542619Y19098096D01*
X28542619Y19383810D02*
X27542619Y19383810D01*
X27542619Y19383810D02*
X27685476Y19288572D01*
X27685476Y19288572D02*
X27780714Y19193334D01*
X27780714Y19193334D02*
X27828333Y19098096D01*
X27542619Y20526667D02*
X27542619Y20336191D01*
X27542619Y20336191D02*
X27590238Y20240953D01*
X27590238Y20240953D02*
X27637857Y20193334D01*
X27637857Y20193334D02*
X27780714Y20098096D01*
X27780714Y20098096D02*
X27971190Y20050477D01*
X27971190Y20050477D02*
X28352142Y20050477D01*
X28352142Y20050477D02*
X28447380Y20098096D01*
X28447380Y20098096D02*
X28495000Y20145715D01*
X28495000Y20145715D02*
X28542619Y20240953D01*
X28542619Y20240953D02*
X28542619Y20431429D01*
X28542619Y20431429D02*
X28495000Y20526667D01*
X28495000Y20526667D02*
X28447380Y20574286D01*
X28447380Y20574286D02*
X28352142Y20621905D01*
X28352142Y20621905D02*
X28114047Y20621905D01*
X28114047Y20621905D02*
X28018809Y20574286D01*
X28018809Y20574286D02*
X27971190Y20526667D01*
X27971190Y20526667D02*
X27923571Y20431429D01*
X27923571Y20431429D02*
X27923571Y20240953D01*
X27923571Y20240953D02*
X27971190Y20145715D01*
X27971190Y20145715D02*
X28018809Y20098096D01*
X28018809Y20098096D02*
X28114047Y20050477D01*
%TO.C,D6*%
X82022619Y80031906D02*
X81022619Y80031906D01*
X81022619Y80031906D02*
X81022619Y80270001D01*
X81022619Y80270001D02*
X81070238Y80412858D01*
X81070238Y80412858D02*
X81165476Y80508096D01*
X81165476Y80508096D02*
X81260714Y80555715D01*
X81260714Y80555715D02*
X81451190Y80603334D01*
X81451190Y80603334D02*
X81594047Y80603334D01*
X81594047Y80603334D02*
X81784523Y80555715D01*
X81784523Y80555715D02*
X81879761Y80508096D01*
X81879761Y80508096D02*
X81975000Y80412858D01*
X81975000Y80412858D02*
X82022619Y80270001D01*
X82022619Y80270001D02*
X82022619Y80031906D01*
X81022619Y81460477D02*
X81022619Y81270001D01*
X81022619Y81270001D02*
X81070238Y81174763D01*
X81070238Y81174763D02*
X81117857Y81127144D01*
X81117857Y81127144D02*
X81260714Y81031906D01*
X81260714Y81031906D02*
X81451190Y80984287D01*
X81451190Y80984287D02*
X81832142Y80984287D01*
X81832142Y80984287D02*
X81927380Y81031906D01*
X81927380Y81031906D02*
X81975000Y81079525D01*
X81975000Y81079525D02*
X82022619Y81174763D01*
X82022619Y81174763D02*
X82022619Y81365239D01*
X82022619Y81365239D02*
X81975000Y81460477D01*
X81975000Y81460477D02*
X81927380Y81508096D01*
X81927380Y81508096D02*
X81832142Y81555715D01*
X81832142Y81555715D02*
X81594047Y81555715D01*
X81594047Y81555715D02*
X81498809Y81508096D01*
X81498809Y81508096D02*
X81451190Y81460477D01*
X81451190Y81460477D02*
X81403571Y81365239D01*
X81403571Y81365239D02*
X81403571Y81174763D01*
X81403571Y81174763D02*
X81451190Y81079525D01*
X81451190Y81079525D02*
X81498809Y81031906D01*
X81498809Y81031906D02*
X81594047Y80984287D01*
%TO.C,R10*%
X27382619Y121357143D02*
X26906428Y121023810D01*
X27382619Y120785715D02*
X26382619Y120785715D01*
X26382619Y120785715D02*
X26382619Y121166667D01*
X26382619Y121166667D02*
X26430238Y121261905D01*
X26430238Y121261905D02*
X26477857Y121309524D01*
X26477857Y121309524D02*
X26573095Y121357143D01*
X26573095Y121357143D02*
X26715952Y121357143D01*
X26715952Y121357143D02*
X26811190Y121309524D01*
X26811190Y121309524D02*
X26858809Y121261905D01*
X26858809Y121261905D02*
X26906428Y121166667D01*
X26906428Y121166667D02*
X26906428Y120785715D01*
X27382619Y122309524D02*
X27382619Y121738096D01*
X27382619Y122023810D02*
X26382619Y122023810D01*
X26382619Y122023810D02*
X26525476Y121928572D01*
X26525476Y121928572D02*
X26620714Y121833334D01*
X26620714Y121833334D02*
X26668333Y121738096D01*
X26382619Y122928572D02*
X26382619Y123023810D01*
X26382619Y123023810D02*
X26430238Y123119048D01*
X26430238Y123119048D02*
X26477857Y123166667D01*
X26477857Y123166667D02*
X26573095Y123214286D01*
X26573095Y123214286D02*
X26763571Y123261905D01*
X26763571Y123261905D02*
X27001666Y123261905D01*
X27001666Y123261905D02*
X27192142Y123214286D01*
X27192142Y123214286D02*
X27287380Y123166667D01*
X27287380Y123166667D02*
X27335000Y123119048D01*
X27335000Y123119048D02*
X27382619Y123023810D01*
X27382619Y123023810D02*
X27382619Y122928572D01*
X27382619Y122928572D02*
X27335000Y122833334D01*
X27335000Y122833334D02*
X27287380Y122785715D01*
X27287380Y122785715D02*
X27192142Y122738096D01*
X27192142Y122738096D02*
X27001666Y122690477D01*
X27001666Y122690477D02*
X26763571Y122690477D01*
X26763571Y122690477D02*
X26573095Y122738096D01*
X26573095Y122738096D02*
X26477857Y122785715D01*
X26477857Y122785715D02*
X26430238Y122833334D01*
X26430238Y122833334D02*
X26382619Y122928572D01*
%TO.C,H4*%
X85862619Y137978096D02*
X84862619Y137978096D01*
X85338809Y137978096D02*
X85338809Y138549524D01*
X85862619Y138549524D02*
X84862619Y138549524D01*
X85195952Y139454286D02*
X85862619Y139454286D01*
X84815000Y139216191D02*
X85529285Y138978096D01*
X85529285Y138978096D02*
X85529285Y139597143D01*
%TO.C,R1*%
X70362619Y26813334D02*
X69886428Y26480001D01*
X70362619Y26241906D02*
X69362619Y26241906D01*
X69362619Y26241906D02*
X69362619Y26622858D01*
X69362619Y26622858D02*
X69410238Y26718096D01*
X69410238Y26718096D02*
X69457857Y26765715D01*
X69457857Y26765715D02*
X69553095Y26813334D01*
X69553095Y26813334D02*
X69695952Y26813334D01*
X69695952Y26813334D02*
X69791190Y26765715D01*
X69791190Y26765715D02*
X69838809Y26718096D01*
X69838809Y26718096D02*
X69886428Y26622858D01*
X69886428Y26622858D02*
X69886428Y26241906D01*
X70362619Y27765715D02*
X70362619Y27194287D01*
X70362619Y27480001D02*
X69362619Y27480001D01*
X69362619Y27480001D02*
X69505476Y27384763D01*
X69505476Y27384763D02*
X69600714Y27289525D01*
X69600714Y27289525D02*
X69648333Y27194287D01*
D11*
%TO.C,U1*%
X24321904Y31022620D02*
X24321904Y31832143D01*
X24321904Y31832143D02*
X24274285Y31927381D01*
X24274285Y31927381D02*
X24226666Y31975000D01*
X24226666Y31975000D02*
X24131428Y32022620D01*
X24131428Y32022620D02*
X23940952Y32022620D01*
X23940952Y32022620D02*
X23845714Y31975000D01*
X23845714Y31975000D02*
X23798095Y31927381D01*
X23798095Y31927381D02*
X23750476Y31832143D01*
X23750476Y31832143D02*
X23750476Y31022620D01*
X22750476Y32022620D02*
X23321904Y32022620D01*
X23036190Y32022620D02*
X23036190Y31022620D01*
X23036190Y31022620D02*
X23131428Y31165477D01*
X23131428Y31165477D02*
X23226666Y31260715D01*
X23226666Y31260715D02*
X23321904Y31308334D01*
X13917142Y29937620D02*
X13250476Y30937620D01*
X13250476Y29937620D02*
X13917142Y30937620D01*
X15964761Y39937620D02*
X15393333Y39937620D01*
X15679047Y40937620D02*
X15679047Y39937620D01*
X15059999Y40413810D02*
X14726666Y40413810D01*
X14583809Y40937620D02*
X15059999Y40937620D01*
X15059999Y40937620D02*
X15059999Y39937620D01*
X15059999Y39937620D02*
X14583809Y39937620D01*
X14202856Y40890000D02*
X14059999Y40937620D01*
X14059999Y40937620D02*
X13821904Y40937620D01*
X13821904Y40937620D02*
X13726666Y40890000D01*
X13726666Y40890000D02*
X13679047Y40842381D01*
X13679047Y40842381D02*
X13631428Y40747143D01*
X13631428Y40747143D02*
X13631428Y40651905D01*
X13631428Y40651905D02*
X13679047Y40556667D01*
X13679047Y40556667D02*
X13726666Y40509048D01*
X13726666Y40509048D02*
X13821904Y40461429D01*
X13821904Y40461429D02*
X14012380Y40413810D01*
X14012380Y40413810D02*
X14107618Y40366191D01*
X14107618Y40366191D02*
X14155237Y40318572D01*
X14155237Y40318572D02*
X14202856Y40223334D01*
X14202856Y40223334D02*
X14202856Y40128096D01*
X14202856Y40128096D02*
X14155237Y40032858D01*
X14155237Y40032858D02*
X14107618Y39985239D01*
X14107618Y39985239D02*
X14012380Y39937620D01*
X14012380Y39937620D02*
X13774285Y39937620D01*
X13774285Y39937620D02*
X13631428Y39985239D01*
X13345713Y39937620D02*
X12774285Y39937620D01*
X13059999Y40937620D02*
X13059999Y39937620D01*
X34417142Y32437620D02*
X33750476Y33437620D01*
X33750476Y32437620D02*
X34417142Y33437620D01*
X18821904Y23437620D02*
X18821904Y22437620D01*
X18155238Y22437620D02*
X17964762Y22437620D01*
X17964762Y22437620D02*
X17869524Y22485239D01*
X17869524Y22485239D02*
X17774286Y22580477D01*
X17774286Y22580477D02*
X17726667Y22770953D01*
X17726667Y22770953D02*
X17726667Y23104286D01*
X17726667Y23104286D02*
X17774286Y23294762D01*
X17774286Y23294762D02*
X17869524Y23390000D01*
X17869524Y23390000D02*
X17964762Y23437620D01*
X17964762Y23437620D02*
X18155238Y23437620D01*
X18155238Y23437620D02*
X18250476Y23390000D01*
X18250476Y23390000D02*
X18345714Y23294762D01*
X18345714Y23294762D02*
X18393333Y23104286D01*
X18393333Y23104286D02*
X18393333Y22770953D01*
X18393333Y22770953D02*
X18345714Y22580477D01*
X18345714Y22580477D02*
X18250476Y22485239D01*
X18250476Y22485239D02*
X18155238Y22437620D01*
X16869524Y22437620D02*
X17060000Y22437620D01*
X17060000Y22437620D02*
X17155238Y22485239D01*
X17155238Y22485239D02*
X17202857Y22532858D01*
X17202857Y22532858D02*
X17298095Y22675715D01*
X17298095Y22675715D02*
X17345714Y22866191D01*
X17345714Y22866191D02*
X17345714Y23247143D01*
X17345714Y23247143D02*
X17298095Y23342381D01*
X17298095Y23342381D02*
X17250476Y23390000D01*
X17250476Y23390000D02*
X17155238Y23437620D01*
X17155238Y23437620D02*
X16964762Y23437620D01*
X16964762Y23437620D02*
X16869524Y23390000D01*
X16869524Y23390000D02*
X16821905Y23342381D01*
X16821905Y23342381D02*
X16774286Y23247143D01*
X16774286Y23247143D02*
X16774286Y23009048D01*
X16774286Y23009048D02*
X16821905Y22913810D01*
X16821905Y22913810D02*
X16869524Y22866191D01*
X16869524Y22866191D02*
X16964762Y22818572D01*
X16964762Y22818572D02*
X17155238Y22818572D01*
X17155238Y22818572D02*
X17250476Y22866191D01*
X17250476Y22866191D02*
X17298095Y22913810D01*
X17298095Y22913810D02*
X17345714Y23009048D01*
X15631429Y22390000D02*
X16488571Y23675715D01*
X14726667Y23437620D02*
X15060000Y22961429D01*
X15298095Y23437620D02*
X15298095Y22437620D01*
X15298095Y22437620D02*
X14917143Y22437620D01*
X14917143Y22437620D02*
X14821905Y22485239D01*
X14821905Y22485239D02*
X14774286Y22532858D01*
X14774286Y22532858D02*
X14726667Y22628096D01*
X14726667Y22628096D02*
X14726667Y22770953D01*
X14726667Y22770953D02*
X14774286Y22866191D01*
X14774286Y22866191D02*
X14821905Y22913810D01*
X14821905Y22913810D02*
X14917143Y22961429D01*
X14917143Y22961429D02*
X15298095Y22961429D01*
X14393333Y23437620D02*
X13869524Y22770953D01*
X14393333Y22770953D02*
X13869524Y23437620D01*
X13488571Y23437620D02*
X13488571Y22437620D01*
X13488571Y22437620D02*
X13250476Y22437620D01*
X13250476Y22437620D02*
X13107619Y22485239D01*
X13107619Y22485239D02*
X13012381Y22580477D01*
X13012381Y22580477D02*
X12964762Y22675715D01*
X12964762Y22675715D02*
X12917143Y22866191D01*
X12917143Y22866191D02*
X12917143Y23009048D01*
X12917143Y23009048D02*
X12964762Y23199524D01*
X12964762Y23199524D02*
X13012381Y23294762D01*
X13012381Y23294762D02*
X13107619Y23390000D01*
X13107619Y23390000D02*
X13250476Y23437620D01*
X13250476Y23437620D02*
X13488571Y23437620D01*
X14821904Y18437620D02*
X14821904Y17437620D01*
X14155238Y17437620D02*
X13964762Y17437620D01*
X13964762Y17437620D02*
X13869524Y17485239D01*
X13869524Y17485239D02*
X13774286Y17580477D01*
X13774286Y17580477D02*
X13726667Y17770953D01*
X13726667Y17770953D02*
X13726667Y18104286D01*
X13726667Y18104286D02*
X13774286Y18294762D01*
X13774286Y18294762D02*
X13869524Y18390000D01*
X13869524Y18390000D02*
X13964762Y18437620D01*
X13964762Y18437620D02*
X14155238Y18437620D01*
X14155238Y18437620D02*
X14250476Y18390000D01*
X14250476Y18390000D02*
X14345714Y18294762D01*
X14345714Y18294762D02*
X14393333Y18104286D01*
X14393333Y18104286D02*
X14393333Y17770953D01*
X14393333Y17770953D02*
X14345714Y17580477D01*
X14345714Y17580477D02*
X14250476Y17485239D01*
X14250476Y17485239D02*
X14155238Y17437620D01*
X13345714Y17532858D02*
X13298095Y17485239D01*
X13298095Y17485239D02*
X13202857Y17437620D01*
X13202857Y17437620D02*
X12964762Y17437620D01*
X12964762Y17437620D02*
X12869524Y17485239D01*
X12869524Y17485239D02*
X12821905Y17532858D01*
X12821905Y17532858D02*
X12774286Y17628096D01*
X12774286Y17628096D02*
X12774286Y17723334D01*
X12774286Y17723334D02*
X12821905Y17866191D01*
X12821905Y17866191D02*
X13393333Y18437620D01*
X13393333Y18437620D02*
X12774286Y18437620D01*
X33750476Y40937620D02*
X34083809Y40461429D01*
X34321904Y40937620D02*
X34321904Y39937620D01*
X34321904Y39937620D02*
X33940952Y39937620D01*
X33940952Y39937620D02*
X33845714Y39985239D01*
X33845714Y39985239D02*
X33798095Y40032858D01*
X33798095Y40032858D02*
X33750476Y40128096D01*
X33750476Y40128096D02*
X33750476Y40270953D01*
X33750476Y40270953D02*
X33798095Y40366191D01*
X33798095Y40366191D02*
X33845714Y40413810D01*
X33845714Y40413810D02*
X33940952Y40461429D01*
X33940952Y40461429D02*
X34321904Y40461429D01*
X33369523Y40890000D02*
X33226666Y40937620D01*
X33226666Y40937620D02*
X32988571Y40937620D01*
X32988571Y40937620D02*
X32893333Y40890000D01*
X32893333Y40890000D02*
X32845714Y40842381D01*
X32845714Y40842381D02*
X32798095Y40747143D01*
X32798095Y40747143D02*
X32798095Y40651905D01*
X32798095Y40651905D02*
X32845714Y40556667D01*
X32845714Y40556667D02*
X32893333Y40509048D01*
X32893333Y40509048D02*
X32988571Y40461429D01*
X32988571Y40461429D02*
X33179047Y40413810D01*
X33179047Y40413810D02*
X33274285Y40366191D01*
X33274285Y40366191D02*
X33321904Y40318572D01*
X33321904Y40318572D02*
X33369523Y40223334D01*
X33369523Y40223334D02*
X33369523Y40128096D01*
X33369523Y40128096D02*
X33321904Y40032858D01*
X33321904Y40032858D02*
X33274285Y39985239D01*
X33274285Y39985239D02*
X33179047Y39937620D01*
X33179047Y39937620D02*
X32940952Y39937620D01*
X32940952Y39937620D02*
X32798095Y39985239D01*
X32512380Y39937620D02*
X31940952Y39937620D01*
X32226666Y40937620D02*
X32226666Y39937620D01*
X34464761Y37437620D02*
X34131428Y38437620D01*
X34131428Y38437620D02*
X33798095Y37437620D01*
X32893333Y38342381D02*
X32940952Y38390000D01*
X32940952Y38390000D02*
X33083809Y38437620D01*
X33083809Y38437620D02*
X33179047Y38437620D01*
X33179047Y38437620D02*
X33321904Y38390000D01*
X33321904Y38390000D02*
X33417142Y38294762D01*
X33417142Y38294762D02*
X33464761Y38199524D01*
X33464761Y38199524D02*
X33512380Y38009048D01*
X33512380Y38009048D02*
X33512380Y37866191D01*
X33512380Y37866191D02*
X33464761Y37675715D01*
X33464761Y37675715D02*
X33417142Y37580477D01*
X33417142Y37580477D02*
X33321904Y37485239D01*
X33321904Y37485239D02*
X33179047Y37437620D01*
X33179047Y37437620D02*
X33083809Y37437620D01*
X33083809Y37437620D02*
X32940952Y37485239D01*
X32940952Y37485239D02*
X32893333Y37532858D01*
X31893333Y38342381D02*
X31940952Y38390000D01*
X31940952Y38390000D02*
X32083809Y38437620D01*
X32083809Y38437620D02*
X32179047Y38437620D01*
X32179047Y38437620D02*
X32321904Y38390000D01*
X32321904Y38390000D02*
X32417142Y38294762D01*
X32417142Y38294762D02*
X32464761Y38199524D01*
X32464761Y38199524D02*
X32512380Y38009048D01*
X32512380Y38009048D02*
X32512380Y37866191D01*
X32512380Y37866191D02*
X32464761Y37675715D01*
X32464761Y37675715D02*
X32417142Y37580477D01*
X32417142Y37580477D02*
X32321904Y37485239D01*
X32321904Y37485239D02*
X32179047Y37437620D01*
X32179047Y37437620D02*
X32083809Y37437620D01*
X32083809Y37437620D02*
X31940952Y37485239D01*
X31940952Y37485239D02*
X31893333Y37532858D01*
X34321904Y20937620D02*
X34321904Y19937620D01*
X33655238Y19937620D02*
X33464762Y19937620D01*
X33464762Y19937620D02*
X33369524Y19985239D01*
X33369524Y19985239D02*
X33274286Y20080477D01*
X33274286Y20080477D02*
X33226667Y20270953D01*
X33226667Y20270953D02*
X33226667Y20604286D01*
X33226667Y20604286D02*
X33274286Y20794762D01*
X33274286Y20794762D02*
X33369524Y20890000D01*
X33369524Y20890000D02*
X33464762Y20937620D01*
X33464762Y20937620D02*
X33655238Y20937620D01*
X33655238Y20937620D02*
X33750476Y20890000D01*
X33750476Y20890000D02*
X33845714Y20794762D01*
X33845714Y20794762D02*
X33893333Y20604286D01*
X33893333Y20604286D02*
X33893333Y20270953D01*
X33893333Y20270953D02*
X33845714Y20080477D01*
X33845714Y20080477D02*
X33750476Y19985239D01*
X33750476Y19985239D02*
X33655238Y19937620D01*
X32893333Y19937620D02*
X32274286Y19937620D01*
X32274286Y19937620D02*
X32607619Y20318572D01*
X32607619Y20318572D02*
X32464762Y20318572D01*
X32464762Y20318572D02*
X32369524Y20366191D01*
X32369524Y20366191D02*
X32321905Y20413810D01*
X32321905Y20413810D02*
X32274286Y20509048D01*
X32274286Y20509048D02*
X32274286Y20747143D01*
X32274286Y20747143D02*
X32321905Y20842381D01*
X32321905Y20842381D02*
X32369524Y20890000D01*
X32369524Y20890000D02*
X32464762Y20937620D01*
X32464762Y20937620D02*
X32750476Y20937620D01*
X32750476Y20937620D02*
X32845714Y20890000D01*
X32845714Y20890000D02*
X32893333Y20842381D01*
X14750476Y35937620D02*
X15083809Y35461429D01*
X15321904Y35937620D02*
X15321904Y34937620D01*
X15321904Y34937620D02*
X14940952Y34937620D01*
X14940952Y34937620D02*
X14845714Y34985239D01*
X14845714Y34985239D02*
X14798095Y35032858D01*
X14798095Y35032858D02*
X14750476Y35128096D01*
X14750476Y35128096D02*
X14750476Y35270953D01*
X14750476Y35270953D02*
X14798095Y35366191D01*
X14798095Y35366191D02*
X14845714Y35413810D01*
X14845714Y35413810D02*
X14940952Y35461429D01*
X14940952Y35461429D02*
X15321904Y35461429D01*
X14321904Y35413810D02*
X13988571Y35413810D01*
X13845714Y35937620D02*
X14321904Y35937620D01*
X14321904Y35937620D02*
X14321904Y34937620D01*
X14321904Y34937620D02*
X13845714Y34937620D01*
X12893333Y34985239D02*
X12988571Y34937620D01*
X12988571Y34937620D02*
X13131428Y34937620D01*
X13131428Y34937620D02*
X13274285Y34985239D01*
X13274285Y34985239D02*
X13369523Y35080477D01*
X13369523Y35080477D02*
X13417142Y35175715D01*
X13417142Y35175715D02*
X13464761Y35366191D01*
X13464761Y35366191D02*
X13464761Y35509048D01*
X13464761Y35509048D02*
X13417142Y35699524D01*
X13417142Y35699524D02*
X13369523Y35794762D01*
X13369523Y35794762D02*
X13274285Y35890000D01*
X13274285Y35890000D02*
X13131428Y35937620D01*
X13131428Y35937620D02*
X13036190Y35937620D01*
X13036190Y35937620D02*
X12893333Y35890000D01*
X12893333Y35890000D02*
X12845714Y35842381D01*
X12845714Y35842381D02*
X12845714Y35509048D01*
X12845714Y35509048D02*
X13036190Y35509048D01*
X14821904Y25937620D02*
X14821904Y24937620D01*
X14155238Y24937620D02*
X13964762Y24937620D01*
X13964762Y24937620D02*
X13869524Y24985239D01*
X13869524Y24985239D02*
X13774286Y25080477D01*
X13774286Y25080477D02*
X13726667Y25270953D01*
X13726667Y25270953D02*
X13726667Y25604286D01*
X13726667Y25604286D02*
X13774286Y25794762D01*
X13774286Y25794762D02*
X13869524Y25890000D01*
X13869524Y25890000D02*
X13964762Y25937620D01*
X13964762Y25937620D02*
X14155238Y25937620D01*
X14155238Y25937620D02*
X14250476Y25890000D01*
X14250476Y25890000D02*
X14345714Y25794762D01*
X14345714Y25794762D02*
X14393333Y25604286D01*
X14393333Y25604286D02*
X14393333Y25270953D01*
X14393333Y25270953D02*
X14345714Y25080477D01*
X14345714Y25080477D02*
X14250476Y24985239D01*
X14250476Y24985239D02*
X14155238Y24937620D01*
X13155238Y25366191D02*
X13250476Y25318572D01*
X13250476Y25318572D02*
X13298095Y25270953D01*
X13298095Y25270953D02*
X13345714Y25175715D01*
X13345714Y25175715D02*
X13345714Y25128096D01*
X13345714Y25128096D02*
X13298095Y25032858D01*
X13298095Y25032858D02*
X13250476Y24985239D01*
X13250476Y24985239D02*
X13155238Y24937620D01*
X13155238Y24937620D02*
X12964762Y24937620D01*
X12964762Y24937620D02*
X12869524Y24985239D01*
X12869524Y24985239D02*
X12821905Y25032858D01*
X12821905Y25032858D02*
X12774286Y25128096D01*
X12774286Y25128096D02*
X12774286Y25175715D01*
X12774286Y25175715D02*
X12821905Y25270953D01*
X12821905Y25270953D02*
X12869524Y25318572D01*
X12869524Y25318572D02*
X12964762Y25366191D01*
X12964762Y25366191D02*
X13155238Y25366191D01*
X13155238Y25366191D02*
X13250476Y25413810D01*
X13250476Y25413810D02*
X13298095Y25461429D01*
X13298095Y25461429D02*
X13345714Y25556667D01*
X13345714Y25556667D02*
X13345714Y25747143D01*
X13345714Y25747143D02*
X13298095Y25842381D01*
X13298095Y25842381D02*
X13250476Y25890000D01*
X13250476Y25890000D02*
X13155238Y25937620D01*
X13155238Y25937620D02*
X12964762Y25937620D01*
X12964762Y25937620D02*
X12869524Y25890000D01*
X12869524Y25890000D02*
X12821905Y25842381D01*
X12821905Y25842381D02*
X12774286Y25747143D01*
X12774286Y25747143D02*
X12774286Y25556667D01*
X12774286Y25556667D02*
X12821905Y25461429D01*
X12821905Y25461429D02*
X12869524Y25413810D01*
X12869524Y25413810D02*
X12964762Y25366191D01*
X34321904Y28437620D02*
X34321904Y27437620D01*
X33655238Y27437620D02*
X33464762Y27437620D01*
X33464762Y27437620D02*
X33369524Y27485239D01*
X33369524Y27485239D02*
X33274286Y27580477D01*
X33274286Y27580477D02*
X33226667Y27770953D01*
X33226667Y27770953D02*
X33226667Y28104286D01*
X33226667Y28104286D02*
X33274286Y28294762D01*
X33274286Y28294762D02*
X33369524Y28390000D01*
X33369524Y28390000D02*
X33464762Y28437620D01*
X33464762Y28437620D02*
X33655238Y28437620D01*
X33655238Y28437620D02*
X33750476Y28390000D01*
X33750476Y28390000D02*
X33845714Y28294762D01*
X33845714Y28294762D02*
X33893333Y28104286D01*
X33893333Y28104286D02*
X33893333Y27770953D01*
X33893333Y27770953D02*
X33845714Y27580477D01*
X33845714Y27580477D02*
X33750476Y27485239D01*
X33750476Y27485239D02*
X33655238Y27437620D01*
X32750476Y28437620D02*
X32560000Y28437620D01*
X32560000Y28437620D02*
X32464762Y28390000D01*
X32464762Y28390000D02*
X32417143Y28342381D01*
X32417143Y28342381D02*
X32321905Y28199524D01*
X32321905Y28199524D02*
X32274286Y28009048D01*
X32274286Y28009048D02*
X32274286Y27628096D01*
X32274286Y27628096D02*
X32321905Y27532858D01*
X32321905Y27532858D02*
X32369524Y27485239D01*
X32369524Y27485239D02*
X32464762Y27437620D01*
X32464762Y27437620D02*
X32655238Y27437620D01*
X32655238Y27437620D02*
X32750476Y27485239D01*
X32750476Y27485239D02*
X32798095Y27532858D01*
X32798095Y27532858D02*
X32845714Y27628096D01*
X32845714Y27628096D02*
X32845714Y27866191D01*
X32845714Y27866191D02*
X32798095Y27961429D01*
X32798095Y27961429D02*
X32750476Y28009048D01*
X32750476Y28009048D02*
X32655238Y28056667D01*
X32655238Y28056667D02*
X32464762Y28056667D01*
X32464762Y28056667D02*
X32369524Y28009048D01*
X32369524Y28009048D02*
X32321905Y27961429D01*
X32321905Y27961429D02*
X32274286Y27866191D01*
X34321904Y18437620D02*
X34321904Y17437620D01*
X33655238Y17437620D02*
X33464762Y17437620D01*
X33464762Y17437620D02*
X33369524Y17485239D01*
X33369524Y17485239D02*
X33274286Y17580477D01*
X33274286Y17580477D02*
X33226667Y17770953D01*
X33226667Y17770953D02*
X33226667Y18104286D01*
X33226667Y18104286D02*
X33274286Y18294762D01*
X33274286Y18294762D02*
X33369524Y18390000D01*
X33369524Y18390000D02*
X33464762Y18437620D01*
X33464762Y18437620D02*
X33655238Y18437620D01*
X33655238Y18437620D02*
X33750476Y18390000D01*
X33750476Y18390000D02*
X33845714Y18294762D01*
X33845714Y18294762D02*
X33893333Y18104286D01*
X33893333Y18104286D02*
X33893333Y17770953D01*
X33893333Y17770953D02*
X33845714Y17580477D01*
X33845714Y17580477D02*
X33750476Y17485239D01*
X33750476Y17485239D02*
X33655238Y17437620D01*
X32274286Y18437620D02*
X32845714Y18437620D01*
X32560000Y18437620D02*
X32560000Y17437620D01*
X32560000Y17437620D02*
X32655238Y17580477D01*
X32655238Y17580477D02*
X32750476Y17675715D01*
X32750476Y17675715D02*
X32845714Y17723334D01*
X31131429Y17390000D02*
X31988571Y18675715D01*
X30226667Y18437620D02*
X30560000Y17961429D01*
X30798095Y18437620D02*
X30798095Y17437620D01*
X30798095Y17437620D02*
X30417143Y17437620D01*
X30417143Y17437620D02*
X30321905Y17485239D01*
X30321905Y17485239D02*
X30274286Y17532858D01*
X30274286Y17532858D02*
X30226667Y17628096D01*
X30226667Y17628096D02*
X30226667Y17770953D01*
X30226667Y17770953D02*
X30274286Y17866191D01*
X30274286Y17866191D02*
X30321905Y17913810D01*
X30321905Y17913810D02*
X30417143Y17961429D01*
X30417143Y17961429D02*
X30798095Y17961429D01*
X29940952Y17437620D02*
X29369524Y17437620D01*
X29655238Y18437620D02*
X29655238Y17437620D01*
X29083809Y18390000D02*
X28940952Y18437620D01*
X28940952Y18437620D02*
X28702857Y18437620D01*
X28702857Y18437620D02*
X28607619Y18390000D01*
X28607619Y18390000D02*
X28560000Y18342381D01*
X28560000Y18342381D02*
X28512381Y18247143D01*
X28512381Y18247143D02*
X28512381Y18151905D01*
X28512381Y18151905D02*
X28560000Y18056667D01*
X28560000Y18056667D02*
X28607619Y18009048D01*
X28607619Y18009048D02*
X28702857Y17961429D01*
X28702857Y17961429D02*
X28893333Y17913810D01*
X28893333Y17913810D02*
X28988571Y17866191D01*
X28988571Y17866191D02*
X29036190Y17818572D01*
X29036190Y17818572D02*
X29083809Y17723334D01*
X29083809Y17723334D02*
X29083809Y17628096D01*
X29083809Y17628096D02*
X29036190Y17532858D01*
X29036190Y17532858D02*
X28988571Y17485239D01*
X28988571Y17485239D02*
X28893333Y17437620D01*
X28893333Y17437620D02*
X28655238Y17437620D01*
X28655238Y17437620D02*
X28512381Y17485239D01*
X34417142Y29937620D02*
X33750476Y30937620D01*
X33750476Y29937620D02*
X34417142Y30937620D01*
X34321904Y25937620D02*
X34321904Y24937620D01*
X33655238Y24937620D02*
X33464762Y24937620D01*
X33464762Y24937620D02*
X33369524Y24985239D01*
X33369524Y24985239D02*
X33274286Y25080477D01*
X33274286Y25080477D02*
X33226667Y25270953D01*
X33226667Y25270953D02*
X33226667Y25604286D01*
X33226667Y25604286D02*
X33274286Y25794762D01*
X33274286Y25794762D02*
X33369524Y25890000D01*
X33369524Y25890000D02*
X33464762Y25937620D01*
X33464762Y25937620D02*
X33655238Y25937620D01*
X33655238Y25937620D02*
X33750476Y25890000D01*
X33750476Y25890000D02*
X33845714Y25794762D01*
X33845714Y25794762D02*
X33893333Y25604286D01*
X33893333Y25604286D02*
X33893333Y25270953D01*
X33893333Y25270953D02*
X33845714Y25080477D01*
X33845714Y25080477D02*
X33750476Y24985239D01*
X33750476Y24985239D02*
X33655238Y24937620D01*
X32893333Y24937620D02*
X32226667Y24937620D01*
X32226667Y24937620D02*
X32655238Y25937620D01*
X31131429Y24890000D02*
X31988571Y26175715D01*
X30940952Y24937620D02*
X30369524Y24937620D01*
X30655238Y25937620D02*
X30655238Y24937620D01*
X30131428Y25937620D02*
X29607619Y25270953D01*
X30131428Y25270953D02*
X29607619Y25937620D01*
X29226666Y25937620D02*
X29226666Y24937620D01*
X29226666Y24937620D02*
X28988571Y24937620D01*
X28988571Y24937620D02*
X28845714Y24985239D01*
X28845714Y24985239D02*
X28750476Y25080477D01*
X28750476Y25080477D02*
X28702857Y25175715D01*
X28702857Y25175715D02*
X28655238Y25366191D01*
X28655238Y25366191D02*
X28655238Y25509048D01*
X28655238Y25509048D02*
X28702857Y25699524D01*
X28702857Y25699524D02*
X28750476Y25794762D01*
X28750476Y25794762D02*
X28845714Y25890000D01*
X28845714Y25890000D02*
X28988571Y25937620D01*
X28988571Y25937620D02*
X29226666Y25937620D01*
X14821904Y20937620D02*
X14821904Y19937620D01*
X14155238Y19937620D02*
X13964762Y19937620D01*
X13964762Y19937620D02*
X13869524Y19985239D01*
X13869524Y19985239D02*
X13774286Y20080477D01*
X13774286Y20080477D02*
X13726667Y20270953D01*
X13726667Y20270953D02*
X13726667Y20604286D01*
X13726667Y20604286D02*
X13774286Y20794762D01*
X13774286Y20794762D02*
X13869524Y20890000D01*
X13869524Y20890000D02*
X13964762Y20937620D01*
X13964762Y20937620D02*
X14155238Y20937620D01*
X14155238Y20937620D02*
X14250476Y20890000D01*
X14250476Y20890000D02*
X14345714Y20794762D01*
X14345714Y20794762D02*
X14393333Y20604286D01*
X14393333Y20604286D02*
X14393333Y20270953D01*
X14393333Y20270953D02*
X14345714Y20080477D01*
X14345714Y20080477D02*
X14250476Y19985239D01*
X14250476Y19985239D02*
X14155238Y19937620D01*
X12869524Y20270953D02*
X12869524Y20937620D01*
X13107619Y19890000D02*
X13345714Y20604286D01*
X13345714Y20604286D02*
X12726667Y20604286D01*
X34321904Y23437620D02*
X34321904Y22437620D01*
X33655238Y22437620D02*
X33464762Y22437620D01*
X33464762Y22437620D02*
X33369524Y22485239D01*
X33369524Y22485239D02*
X33274286Y22580477D01*
X33274286Y22580477D02*
X33226667Y22770953D01*
X33226667Y22770953D02*
X33226667Y23104286D01*
X33226667Y23104286D02*
X33274286Y23294762D01*
X33274286Y23294762D02*
X33369524Y23390000D01*
X33369524Y23390000D02*
X33464762Y23437620D01*
X33464762Y23437620D02*
X33655238Y23437620D01*
X33655238Y23437620D02*
X33750476Y23390000D01*
X33750476Y23390000D02*
X33845714Y23294762D01*
X33845714Y23294762D02*
X33893333Y23104286D01*
X33893333Y23104286D02*
X33893333Y22770953D01*
X33893333Y22770953D02*
X33845714Y22580477D01*
X33845714Y22580477D02*
X33750476Y22485239D01*
X33750476Y22485239D02*
X33655238Y22437620D01*
X32321905Y22437620D02*
X32798095Y22437620D01*
X32798095Y22437620D02*
X32845714Y22913810D01*
X32845714Y22913810D02*
X32798095Y22866191D01*
X32798095Y22866191D02*
X32702857Y22818572D01*
X32702857Y22818572D02*
X32464762Y22818572D01*
X32464762Y22818572D02*
X32369524Y22866191D01*
X32369524Y22866191D02*
X32321905Y22913810D01*
X32321905Y22913810D02*
X32274286Y23009048D01*
X32274286Y23009048D02*
X32274286Y23247143D01*
X32274286Y23247143D02*
X32321905Y23342381D01*
X32321905Y23342381D02*
X32369524Y23390000D01*
X32369524Y23390000D02*
X32464762Y23437620D01*
X32464762Y23437620D02*
X32702857Y23437620D01*
X32702857Y23437620D02*
X32798095Y23390000D01*
X32798095Y23390000D02*
X32845714Y23342381D01*
X14798095Y37485239D02*
X14893333Y37437620D01*
X14893333Y37437620D02*
X15036190Y37437620D01*
X15036190Y37437620D02*
X15179047Y37485239D01*
X15179047Y37485239D02*
X15274285Y37580477D01*
X15274285Y37580477D02*
X15321904Y37675715D01*
X15321904Y37675715D02*
X15369523Y37866191D01*
X15369523Y37866191D02*
X15369523Y38009048D01*
X15369523Y38009048D02*
X15321904Y38199524D01*
X15321904Y38199524D02*
X15274285Y38294762D01*
X15274285Y38294762D02*
X15179047Y38390000D01*
X15179047Y38390000D02*
X15036190Y38437620D01*
X15036190Y38437620D02*
X14940952Y38437620D01*
X14940952Y38437620D02*
X14798095Y38390000D01*
X14798095Y38390000D02*
X14750476Y38342381D01*
X14750476Y38342381D02*
X14750476Y38009048D01*
X14750476Y38009048D02*
X14940952Y38009048D01*
X14321904Y38437620D02*
X14321904Y37437620D01*
X14321904Y37437620D02*
X13750476Y38437620D01*
X13750476Y38437620D02*
X13750476Y37437620D01*
X13274285Y38437620D02*
X13274285Y37437620D01*
X13274285Y37437620D02*
X13036190Y37437620D01*
X13036190Y37437620D02*
X12893333Y37485239D01*
X12893333Y37485239D02*
X12798095Y37580477D01*
X12798095Y37580477D02*
X12750476Y37675715D01*
X12750476Y37675715D02*
X12702857Y37866191D01*
X12702857Y37866191D02*
X12702857Y38009048D01*
X12702857Y38009048D02*
X12750476Y38199524D01*
X12750476Y38199524D02*
X12798095Y38294762D01*
X12798095Y38294762D02*
X12893333Y38390000D01*
X12893333Y38390000D02*
X13036190Y38437620D01*
X13036190Y38437620D02*
X13274285Y38437620D01*
X13917142Y32437620D02*
X13250476Y33437620D01*
X13250476Y32437620D02*
X13917142Y33437620D01*
X15821904Y28437620D02*
X15821904Y27437620D01*
X15155238Y27437620D02*
X14964762Y27437620D01*
X14964762Y27437620D02*
X14869524Y27485239D01*
X14869524Y27485239D02*
X14774286Y27580477D01*
X14774286Y27580477D02*
X14726667Y27770953D01*
X14726667Y27770953D02*
X14726667Y28104286D01*
X14726667Y28104286D02*
X14774286Y28294762D01*
X14774286Y28294762D02*
X14869524Y28390000D01*
X14869524Y28390000D02*
X14964762Y28437620D01*
X14964762Y28437620D02*
X15155238Y28437620D01*
X15155238Y28437620D02*
X15250476Y28390000D01*
X15250476Y28390000D02*
X15345714Y28294762D01*
X15345714Y28294762D02*
X15393333Y28104286D01*
X15393333Y28104286D02*
X15393333Y27770953D01*
X15393333Y27770953D02*
X15345714Y27580477D01*
X15345714Y27580477D02*
X15250476Y27485239D01*
X15250476Y27485239D02*
X15155238Y27437620D01*
X13774286Y28437620D02*
X14345714Y28437620D01*
X14060000Y28437620D02*
X14060000Y27437620D01*
X14060000Y27437620D02*
X14155238Y27580477D01*
X14155238Y27580477D02*
X14250476Y27675715D01*
X14250476Y27675715D02*
X14345714Y27723334D01*
X13155238Y27437620D02*
X13060000Y27437620D01*
X13060000Y27437620D02*
X12964762Y27485239D01*
X12964762Y27485239D02*
X12917143Y27532858D01*
X12917143Y27532858D02*
X12869524Y27628096D01*
X12869524Y27628096D02*
X12821905Y27818572D01*
X12821905Y27818572D02*
X12821905Y28056667D01*
X12821905Y28056667D02*
X12869524Y28247143D01*
X12869524Y28247143D02*
X12917143Y28342381D01*
X12917143Y28342381D02*
X12964762Y28390000D01*
X12964762Y28390000D02*
X13060000Y28437620D01*
X13060000Y28437620D02*
X13155238Y28437620D01*
X13155238Y28437620D02*
X13250476Y28390000D01*
X13250476Y28390000D02*
X13298095Y28342381D01*
X13298095Y28342381D02*
X13345714Y28247143D01*
X13345714Y28247143D02*
X13393333Y28056667D01*
X13393333Y28056667D02*
X13393333Y27818572D01*
X13393333Y27818572D02*
X13345714Y27628096D01*
X13345714Y27628096D02*
X13298095Y27532858D01*
X13298095Y27532858D02*
X13250476Y27485239D01*
X13250476Y27485239D02*
X13155238Y27437620D01*
X34369523Y35890000D02*
X34226666Y35937620D01*
X34226666Y35937620D02*
X33988571Y35937620D01*
X33988571Y35937620D02*
X33893333Y35890000D01*
X33893333Y35890000D02*
X33845714Y35842381D01*
X33845714Y35842381D02*
X33798095Y35747143D01*
X33798095Y35747143D02*
X33798095Y35651905D01*
X33798095Y35651905D02*
X33845714Y35556667D01*
X33845714Y35556667D02*
X33893333Y35509048D01*
X33893333Y35509048D02*
X33988571Y35461429D01*
X33988571Y35461429D02*
X34179047Y35413810D01*
X34179047Y35413810D02*
X34274285Y35366191D01*
X34274285Y35366191D02*
X34321904Y35318572D01*
X34321904Y35318572D02*
X34369523Y35223334D01*
X34369523Y35223334D02*
X34369523Y35128096D01*
X34369523Y35128096D02*
X34321904Y35032858D01*
X34321904Y35032858D02*
X34274285Y34985239D01*
X34274285Y34985239D02*
X34179047Y34937620D01*
X34179047Y34937620D02*
X33940952Y34937620D01*
X33940952Y34937620D02*
X33798095Y34985239D01*
X33512380Y34937620D02*
X32940952Y34937620D01*
X33226666Y35937620D02*
X33226666Y34937620D01*
X32655237Y35890000D02*
X32512380Y35937620D01*
X32512380Y35937620D02*
X32274285Y35937620D01*
X32274285Y35937620D02*
X32179047Y35890000D01*
X32179047Y35890000D02*
X32131428Y35842381D01*
X32131428Y35842381D02*
X32083809Y35747143D01*
X32083809Y35747143D02*
X32083809Y35651905D01*
X32083809Y35651905D02*
X32131428Y35556667D01*
X32131428Y35556667D02*
X32179047Y35509048D01*
X32179047Y35509048D02*
X32274285Y35461429D01*
X32274285Y35461429D02*
X32464761Y35413810D01*
X32464761Y35413810D02*
X32559999Y35366191D01*
X32559999Y35366191D02*
X32607618Y35318572D01*
X32607618Y35318572D02*
X32655237Y35223334D01*
X32655237Y35223334D02*
X32655237Y35128096D01*
X32655237Y35128096D02*
X32607618Y35032858D01*
X32607618Y35032858D02*
X32559999Y34985239D01*
X32559999Y34985239D02*
X32464761Y34937620D01*
X32464761Y34937620D02*
X32226666Y34937620D01*
X32226666Y34937620D02*
X32083809Y34985239D01*
D10*
%TO.C,D1*%
X25991905Y126577381D02*
X25991905Y127577381D01*
X25991905Y127577381D02*
X26230000Y127577381D01*
X26230000Y127577381D02*
X26372857Y127529762D01*
X26372857Y127529762D02*
X26468095Y127434524D01*
X26468095Y127434524D02*
X26515714Y127339286D01*
X26515714Y127339286D02*
X26563333Y127148810D01*
X26563333Y127148810D02*
X26563333Y127005953D01*
X26563333Y127005953D02*
X26515714Y126815477D01*
X26515714Y126815477D02*
X26468095Y126720239D01*
X26468095Y126720239D02*
X26372857Y126625000D01*
X26372857Y126625000D02*
X26230000Y126577381D01*
X26230000Y126577381D02*
X25991905Y126577381D01*
X27515714Y126577381D02*
X26944286Y126577381D01*
X27230000Y126577381D02*
X27230000Y127577381D01*
X27230000Y127577381D02*
X27134762Y127434524D01*
X27134762Y127434524D02*
X27039524Y127339286D01*
X27039524Y127339286D02*
X26944286Y127291667D01*
%TO.C,SW10*%
X48365000Y131690477D02*
X48412619Y131833334D01*
X48412619Y131833334D02*
X48412619Y132071429D01*
X48412619Y132071429D02*
X48365000Y132166667D01*
X48365000Y132166667D02*
X48317380Y132214286D01*
X48317380Y132214286D02*
X48222142Y132261905D01*
X48222142Y132261905D02*
X48126904Y132261905D01*
X48126904Y132261905D02*
X48031666Y132214286D01*
X48031666Y132214286D02*
X47984047Y132166667D01*
X47984047Y132166667D02*
X47936428Y132071429D01*
X47936428Y132071429D02*
X47888809Y131880953D01*
X47888809Y131880953D02*
X47841190Y131785715D01*
X47841190Y131785715D02*
X47793571Y131738096D01*
X47793571Y131738096D02*
X47698333Y131690477D01*
X47698333Y131690477D02*
X47603095Y131690477D01*
X47603095Y131690477D02*
X47507857Y131738096D01*
X47507857Y131738096D02*
X47460238Y131785715D01*
X47460238Y131785715D02*
X47412619Y131880953D01*
X47412619Y131880953D02*
X47412619Y132119048D01*
X47412619Y132119048D02*
X47460238Y132261905D01*
X47412619Y132595239D02*
X48412619Y132833334D01*
X48412619Y132833334D02*
X47698333Y133023810D01*
X47698333Y133023810D02*
X48412619Y133214286D01*
X48412619Y133214286D02*
X47412619Y133452381D01*
X48412619Y134357143D02*
X48412619Y133785715D01*
X48412619Y134071429D02*
X47412619Y134071429D01*
X47412619Y134071429D02*
X47555476Y133976191D01*
X47555476Y133976191D02*
X47650714Y133880953D01*
X47650714Y133880953D02*
X47698333Y133785715D01*
X47412619Y134976191D02*
X47412619Y135071429D01*
X47412619Y135071429D02*
X47460238Y135166667D01*
X47460238Y135166667D02*
X47507857Y135214286D01*
X47507857Y135214286D02*
X47603095Y135261905D01*
X47603095Y135261905D02*
X47793571Y135309524D01*
X47793571Y135309524D02*
X48031666Y135309524D01*
X48031666Y135309524D02*
X48222142Y135261905D01*
X48222142Y135261905D02*
X48317380Y135214286D01*
X48317380Y135214286D02*
X48365000Y135166667D01*
X48365000Y135166667D02*
X48412619Y135071429D01*
X48412619Y135071429D02*
X48412619Y134976191D01*
X48412619Y134976191D02*
X48365000Y134880953D01*
X48365000Y134880953D02*
X48317380Y134833334D01*
X48317380Y134833334D02*
X48222142Y134785715D01*
X48222142Y134785715D02*
X48031666Y134738096D01*
X48031666Y134738096D02*
X47793571Y134738096D01*
X47793571Y134738096D02*
X47603095Y134785715D01*
X47603095Y134785715D02*
X47507857Y134833334D01*
X47507857Y134833334D02*
X47460238Y134880953D01*
X47460238Y134880953D02*
X47412619Y134976191D01*
%TO.C,R3*%
X76742619Y31893334D02*
X76266428Y31560001D01*
X76742619Y31321906D02*
X75742619Y31321906D01*
X75742619Y31321906D02*
X75742619Y31702858D01*
X75742619Y31702858D02*
X75790238Y31798096D01*
X75790238Y31798096D02*
X75837857Y31845715D01*
X75837857Y31845715D02*
X75933095Y31893334D01*
X75933095Y31893334D02*
X76075952Y31893334D01*
X76075952Y31893334D02*
X76171190Y31845715D01*
X76171190Y31845715D02*
X76218809Y31798096D01*
X76218809Y31798096D02*
X76266428Y31702858D01*
X76266428Y31702858D02*
X76266428Y31321906D01*
X75742619Y32226668D02*
X75742619Y32845715D01*
X75742619Y32845715D02*
X76123571Y32512382D01*
X76123571Y32512382D02*
X76123571Y32655239D01*
X76123571Y32655239D02*
X76171190Y32750477D01*
X76171190Y32750477D02*
X76218809Y32798096D01*
X76218809Y32798096D02*
X76314047Y32845715D01*
X76314047Y32845715D02*
X76552142Y32845715D01*
X76552142Y32845715D02*
X76647380Y32798096D01*
X76647380Y32798096D02*
X76695000Y32750477D01*
X76695000Y32750477D02*
X76742619Y32655239D01*
X76742619Y32655239D02*
X76742619Y32369525D01*
X76742619Y32369525D02*
X76695000Y32274287D01*
X76695000Y32274287D02*
X76647380Y32226668D01*
%TO.C,D2*%
X12991905Y98577381D02*
X12991905Y99577381D01*
X12991905Y99577381D02*
X13230000Y99577381D01*
X13230000Y99577381D02*
X13372857Y99529762D01*
X13372857Y99529762D02*
X13468095Y99434524D01*
X13468095Y99434524D02*
X13515714Y99339286D01*
X13515714Y99339286D02*
X13563333Y99148810D01*
X13563333Y99148810D02*
X13563333Y99005953D01*
X13563333Y99005953D02*
X13515714Y98815477D01*
X13515714Y98815477D02*
X13468095Y98720239D01*
X13468095Y98720239D02*
X13372857Y98625000D01*
X13372857Y98625000D02*
X13230000Y98577381D01*
X13230000Y98577381D02*
X12991905Y98577381D01*
X13944286Y99482143D02*
X13991905Y99529762D01*
X13991905Y99529762D02*
X14087143Y99577381D01*
X14087143Y99577381D02*
X14325238Y99577381D01*
X14325238Y99577381D02*
X14420476Y99529762D01*
X14420476Y99529762D02*
X14468095Y99482143D01*
X14468095Y99482143D02*
X14515714Y99386905D01*
X14515714Y99386905D02*
X14515714Y99291667D01*
X14515714Y99291667D02*
X14468095Y99148810D01*
X14468095Y99148810D02*
X13896667Y98577381D01*
X13896667Y98577381D02*
X14515714Y98577381D01*
%TO.C,J1*%
X36666666Y144362381D02*
X36666666Y143648096D01*
X36666666Y143648096D02*
X36619047Y143505239D01*
X36619047Y143505239D02*
X36523809Y143410000D01*
X36523809Y143410000D02*
X36380952Y143362381D01*
X36380952Y143362381D02*
X36285714Y143362381D01*
X37666666Y143362381D02*
X37095238Y143362381D01*
X37380952Y143362381D02*
X37380952Y144362381D01*
X37380952Y144362381D02*
X37285714Y144219524D01*
X37285714Y144219524D02*
X37190476Y144124286D01*
X37190476Y144124286D02*
X37095238Y144076667D01*
X41928571Y129202500D02*
X43071429Y129202500D01*
X30928571Y129202500D02*
X32071429Y129202500D01*
X31500000Y128631072D02*
X31500000Y129773929D01*
%TO.C,SW1*%
X47295000Y28026668D02*
X47342619Y28169525D01*
X47342619Y28169525D02*
X47342619Y28407620D01*
X47342619Y28407620D02*
X47295000Y28502858D01*
X47295000Y28502858D02*
X47247380Y28550477D01*
X47247380Y28550477D02*
X47152142Y28598096D01*
X47152142Y28598096D02*
X47056904Y28598096D01*
X47056904Y28598096D02*
X46961666Y28550477D01*
X46961666Y28550477D02*
X46914047Y28502858D01*
X46914047Y28502858D02*
X46866428Y28407620D01*
X46866428Y28407620D02*
X46818809Y28217144D01*
X46818809Y28217144D02*
X46771190Y28121906D01*
X46771190Y28121906D02*
X46723571Y28074287D01*
X46723571Y28074287D02*
X46628333Y28026668D01*
X46628333Y28026668D02*
X46533095Y28026668D01*
X46533095Y28026668D02*
X46437857Y28074287D01*
X46437857Y28074287D02*
X46390238Y28121906D01*
X46390238Y28121906D02*
X46342619Y28217144D01*
X46342619Y28217144D02*
X46342619Y28455239D01*
X46342619Y28455239D02*
X46390238Y28598096D01*
X46342619Y28931430D02*
X47342619Y29169525D01*
X47342619Y29169525D02*
X46628333Y29360001D01*
X46628333Y29360001D02*
X47342619Y29550477D01*
X47342619Y29550477D02*
X46342619Y29788572D01*
X47342619Y30693334D02*
X47342619Y30121906D01*
X47342619Y30407620D02*
X46342619Y30407620D01*
X46342619Y30407620D02*
X46485476Y30312382D01*
X46485476Y30312382D02*
X46580714Y30217144D01*
X46580714Y30217144D02*
X46628333Y30121906D01*
%TO.C,R4*%
X75442619Y26813334D02*
X74966428Y26480001D01*
X75442619Y26241906D02*
X74442619Y26241906D01*
X74442619Y26241906D02*
X74442619Y26622858D01*
X74442619Y26622858D02*
X74490238Y26718096D01*
X74490238Y26718096D02*
X74537857Y26765715D01*
X74537857Y26765715D02*
X74633095Y26813334D01*
X74633095Y26813334D02*
X74775952Y26813334D01*
X74775952Y26813334D02*
X74871190Y26765715D01*
X74871190Y26765715D02*
X74918809Y26718096D01*
X74918809Y26718096D02*
X74966428Y26622858D01*
X74966428Y26622858D02*
X74966428Y26241906D01*
X74775952Y27670477D02*
X75442619Y27670477D01*
X74395000Y27432382D02*
X75109285Y27194287D01*
X75109285Y27194287D02*
X75109285Y27813334D01*
%TO.C,R12*%
X19082619Y18717143D02*
X18606428Y18383810D01*
X19082619Y18145715D02*
X18082619Y18145715D01*
X18082619Y18145715D02*
X18082619Y18526667D01*
X18082619Y18526667D02*
X18130238Y18621905D01*
X18130238Y18621905D02*
X18177857Y18669524D01*
X18177857Y18669524D02*
X18273095Y18717143D01*
X18273095Y18717143D02*
X18415952Y18717143D01*
X18415952Y18717143D02*
X18511190Y18669524D01*
X18511190Y18669524D02*
X18558809Y18621905D01*
X18558809Y18621905D02*
X18606428Y18526667D01*
X18606428Y18526667D02*
X18606428Y18145715D01*
X19082619Y19669524D02*
X19082619Y19098096D01*
X19082619Y19383810D02*
X18082619Y19383810D01*
X18082619Y19383810D02*
X18225476Y19288572D01*
X18225476Y19288572D02*
X18320714Y19193334D01*
X18320714Y19193334D02*
X18368333Y19098096D01*
X18177857Y20050477D02*
X18130238Y20098096D01*
X18130238Y20098096D02*
X18082619Y20193334D01*
X18082619Y20193334D02*
X18082619Y20431429D01*
X18082619Y20431429D02*
X18130238Y20526667D01*
X18130238Y20526667D02*
X18177857Y20574286D01*
X18177857Y20574286D02*
X18273095Y20621905D01*
X18273095Y20621905D02*
X18368333Y20621905D01*
X18368333Y20621905D02*
X18511190Y20574286D01*
X18511190Y20574286D02*
X19082619Y20002858D01*
X19082619Y20002858D02*
X19082619Y20621905D01*
D12*
%TO.C,R5*%
X63130000Y28000000D02*
X64080000Y28000000D01*
X64080000Y28920000D02*
X64080000Y27080000D01*
X64080000Y27080000D02*
X67920000Y27080000D01*
X67920000Y28920000D02*
X64080000Y28920000D01*
X67920000Y27080000D02*
X67920000Y28920000D01*
X68870000Y28000000D02*
X67920000Y28000000D01*
%TO.C,U2*%
X19690000Y68830000D02*
X19690000Y70160000D01*
X21020000Y68830000D02*
X19690000Y68830000D01*
X22290000Y68830000D02*
X68070000Y68830000D01*
X22290000Y68830000D02*
X22290000Y71490000D01*
X68070000Y68830000D02*
X68070000Y71490000D01*
X19780000Y68910000D02*
X19780000Y96810000D01*
X67980000Y68910000D02*
X19780000Y68910000D01*
X67980000Y68910000D02*
X67980000Y96810000D01*
X22290000Y71490000D02*
X68070000Y71490000D01*
X13880000Y73860000D02*
X13880000Y91860000D01*
X19750000Y73860000D02*
X13880000Y73860000D01*
X13880000Y91860000D02*
X19750000Y91860000D01*
X19690000Y94230000D02*
X19690000Y95560000D01*
X21020000Y94230000D02*
X19690000Y94230000D01*
X22290000Y94230000D02*
X68070000Y94230000D01*
X22290000Y94230000D02*
X22290000Y96890000D01*
X68070000Y94230000D02*
X68070000Y96890000D01*
X19780000Y96810000D02*
X67980000Y96810000D01*
X22290000Y96890000D02*
X68070000Y96890000D01*
%TO.C,SW4*%
X93150000Y36140000D02*
X93150000Y23840000D01*
X90430000Y36140000D02*
X93150000Y36140000D01*
X85430000Y36140000D02*
X88570000Y36140000D01*
X80850000Y36140000D02*
X83570000Y36140000D01*
X93150000Y23840000D02*
X90430000Y23840000D01*
X88570000Y23840000D02*
X85430000Y23840000D01*
X83570000Y23840000D02*
X80850000Y23840000D01*
X80850000Y23840000D02*
X80850000Y36140000D01*
X91539050Y29890000D02*
G75*
G03*
X91539050Y29890000I-4579050J0D01*
G01*
%TO.C,R6*%
X63000000Y51870000D02*
X63000000Y50920000D01*
X63920000Y50920000D02*
X62080000Y50920000D01*
X62080000Y50920000D02*
X62080000Y47080000D01*
X63920000Y47080000D02*
X63920000Y50920000D01*
X62080000Y47080000D02*
X63920000Y47080000D01*
X63000000Y46130000D02*
X63000000Y47080000D01*
%TO.C,R17*%
X56250000Y82860000D02*
X57200000Y82860000D01*
X57200000Y83780000D02*
X57200000Y81940000D01*
X57200000Y81940000D02*
X61040000Y81940000D01*
X61040000Y83780000D02*
X57200000Y83780000D01*
X61040000Y81940000D02*
X61040000Y83780000D01*
X61990000Y82860000D02*
X61040000Y82860000D01*
%TO.C,SW9*%
X47890000Y112280000D02*
X47890000Y124580000D01*
X50610000Y112280000D02*
X47890000Y112280000D01*
X55610000Y112280000D02*
X52470000Y112280000D01*
X60190000Y112280000D02*
X57470000Y112280000D01*
X47890000Y124580000D02*
X50610000Y124580000D01*
X52470000Y124580000D02*
X55610000Y124580000D01*
X57470000Y124580000D02*
X60190000Y124580000D01*
X60190000Y124580000D02*
X60190000Y112280000D01*
X58659050Y118530000D02*
G75*
G03*
X58659050Y118530000I-4579050J0D01*
G01*
%TO.C,D3*%
X18604000Y4710000D02*
X18760000Y4710000D01*
X20920000Y4710000D02*
X21076000Y4710000D01*
X18761392Y7942334D02*
G75*
G03*
X18604485Y4710001I1078608J-1672334D01*
G01*
X18760164Y7311129D02*
G75*
G03*
X18760001Y5229040I1079836J-1041129D01*
G01*
X20919999Y5229040D02*
G75*
G03*
X20919836Y7311129I-1079999J1040960D01*
G01*
X21075515Y4710001D02*
G75*
G03*
X20918608Y7942334I-1235515J1559999D01*
G01*
%TO.C,C5*%
X13621000Y130920000D02*
X14879000Y130920000D01*
X13621000Y129080000D02*
X14879000Y129080000D01*
%TO.C,C6*%
X17758749Y105729405D02*
X16500749Y105729405D01*
X17758749Y107569405D02*
X16500749Y107569405D01*
%TO.C,R11*%
X13000000Y107130000D02*
X13000000Y108080000D01*
X12080000Y108080000D02*
X13920000Y108080000D01*
X13920000Y108080000D02*
X13920000Y111920000D01*
X12080000Y111920000D02*
X12080000Y108080000D01*
X13920000Y111920000D02*
X12080000Y111920000D01*
X13000000Y112870000D02*
X13000000Y111920000D01*
%TO.C,R15*%
X56250000Y79710000D02*
X57200000Y79710000D01*
X57200000Y80630000D02*
X57200000Y78790000D01*
X57200000Y78790000D02*
X61040000Y78790000D01*
X61040000Y80630000D02*
X57200000Y80630000D01*
X61040000Y78790000D02*
X61040000Y80630000D01*
X61990000Y79710000D02*
X61040000Y79710000D01*
%TO.C,U3*%
X10880000Y122325000D02*
X10880000Y117684000D01*
X10880000Y122325000D02*
X21120000Y122325000D01*
X10880000Y120815000D02*
X21120000Y120815000D01*
X10880000Y117684000D02*
X21120000Y117684000D01*
X14150000Y122325000D02*
X14150000Y120815000D01*
X17851000Y122325000D02*
X17851000Y120815000D01*
X21120000Y122325000D02*
X21120000Y117684000D01*
%TO.C,D9*%
X13230000Y125000000D02*
X13880000Y125000000D01*
X13880000Y126120000D02*
X13880000Y123880000D01*
X13880000Y123880000D02*
X18120000Y123880000D01*
X14480000Y126120000D02*
X14480000Y123880000D01*
X14600000Y126120000D02*
X14600000Y123880000D01*
X14720000Y126120000D02*
X14720000Y123880000D01*
X18120000Y126120000D02*
X13880000Y126120000D01*
X18120000Y123880000D02*
X18120000Y126120000D01*
X18770000Y125000000D02*
X18120000Y125000000D01*
%TO.C,SW7*%
X68210000Y99580000D02*
X68210000Y111880000D01*
X70930000Y99580000D02*
X68210000Y99580000D01*
X75930000Y99580000D02*
X72790000Y99580000D01*
X80510000Y99580000D02*
X77790000Y99580000D01*
X68210000Y111880000D02*
X70930000Y111880000D01*
X72790000Y111880000D02*
X75930000Y111880000D01*
X77790000Y111880000D02*
X80510000Y111880000D01*
X80510000Y111880000D02*
X80510000Y99580000D01*
X78979050Y105830000D02*
G75*
G03*
X78979050Y105830000I-4579050J0D01*
G01*
%TO.C,D7*%
X28764000Y4710000D02*
X28920000Y4710000D01*
X31080000Y4710000D02*
X31236000Y4710000D01*
X28921392Y7942334D02*
G75*
G03*
X28764485Y4710001I1078608J-1672334D01*
G01*
X28920164Y7311129D02*
G75*
G03*
X28920001Y5229040I1079836J-1041129D01*
G01*
X31079999Y5229040D02*
G75*
G03*
X31079836Y7311129I-1079999J1040960D01*
G01*
X31235515Y4710001D02*
G75*
G03*
X31078608Y7942334I-1235515J1559999D01*
G01*
%TO.C,R9*%
X61660000Y121290000D02*
X61660000Y120340000D01*
X62580000Y120340000D02*
X60740000Y120340000D01*
X60740000Y120340000D02*
X60740000Y116500000D01*
X62580000Y116500000D02*
X62580000Y120340000D01*
X60740000Y116500000D02*
X62580000Y116500000D01*
X61660000Y115550000D02*
X61660000Y116500000D01*
%TO.C,R2*%
X63130000Y34600000D02*
X64080000Y34600000D01*
X64080000Y35520000D02*
X64080000Y33680000D01*
X64080000Y33680000D02*
X67920000Y33680000D01*
X67920000Y35520000D02*
X64080000Y35520000D01*
X67920000Y33680000D02*
X67920000Y35520000D01*
X68870000Y34600000D02*
X67920000Y34600000D01*
%TO.C,C1*%
X21681000Y60920000D02*
X22939000Y60920000D01*
X21681000Y59080000D02*
X22939000Y59080000D01*
%TO.C,R14*%
X56250000Y76560000D02*
X57200000Y76560000D01*
X57200000Y77480000D02*
X57200000Y75640000D01*
X57200000Y75640000D02*
X61040000Y75640000D01*
X61040000Y77480000D02*
X57200000Y77480000D01*
X61040000Y75640000D02*
X61040000Y77480000D01*
X61990000Y76560000D02*
X61040000Y76560000D01*
%TO.C,R13*%
X24590000Y16490000D02*
X24590000Y17440000D01*
X23670000Y17440000D02*
X25510000Y17440000D01*
X25510000Y17440000D02*
X25510000Y21280000D01*
X23670000Y21280000D02*
X23670000Y17440000D01*
X25510000Y21280000D02*
X23670000Y21280000D01*
X24590000Y22230000D02*
X24590000Y21280000D01*
%TO.C,D5*%
X83024000Y73980000D02*
X83180000Y73980000D01*
X85340000Y73980000D02*
X85496000Y73980000D01*
X83181392Y77212334D02*
G75*
G03*
X83024485Y73980001I1078608J-1672334D01*
G01*
X83180164Y76581129D02*
G75*
G03*
X83180001Y74499040I1079836J-1041129D01*
G01*
X85339999Y74499040D02*
G75*
G03*
X85339836Y76581129I-1079999J1040960D01*
G01*
X85495515Y73980001D02*
G75*
G03*
X85338608Y77212334I-1235515J1559999D01*
G01*
%TO.C,C4*%
X13621000Y135920000D02*
X14879000Y135920000D01*
X13621000Y134080000D02*
X14879000Y134080000D01*
%TO.C,SW6*%
X47890000Y41160000D02*
X47890000Y53460000D01*
X50610000Y41160000D02*
X47890000Y41160000D01*
X55610000Y41160000D02*
X52470000Y41160000D01*
X60190000Y41160000D02*
X57470000Y41160000D01*
X47890000Y53460000D02*
X50610000Y53460000D01*
X52470000Y53460000D02*
X55610000Y53460000D01*
X57470000Y53460000D02*
X60190000Y53460000D01*
X60190000Y53460000D02*
X60190000Y41160000D01*
X58659050Y47410000D02*
G75*
G03*
X58659050Y47410000I-4579050J0D01*
G01*
%TO.C,R8*%
X64200000Y117480000D02*
X64200000Y116530000D01*
X65120000Y116530000D02*
X63280000Y116530000D01*
X63280000Y116530000D02*
X63280000Y112690000D01*
X65120000Y112690000D02*
X65120000Y116530000D01*
X63280000Y112690000D02*
X65120000Y112690000D01*
X64200000Y111740000D02*
X64200000Y112690000D01*
%TO.C,C3*%
X17739000Y110500000D02*
X16481000Y110500000D01*
X17739000Y112340000D02*
X16481000Y112340000D01*
%TO.C,SW8*%
X68210000Y124980000D02*
X68210000Y137280000D01*
X70930000Y124980000D02*
X68210000Y124980000D01*
X75930000Y124980000D02*
X72790000Y124980000D01*
X80510000Y124980000D02*
X77790000Y124980000D01*
X68210000Y137280000D02*
X70930000Y137280000D01*
X72790000Y137280000D02*
X75930000Y137280000D01*
X77790000Y137280000D02*
X80510000Y137280000D01*
X80510000Y137280000D02*
X80510000Y124980000D01*
X78979050Y131230000D02*
G75*
G03*
X78979050Y131230000I-4579050J0D01*
G01*
%TO.C,D8*%
X83284000Y85110000D02*
X83440000Y85110000D01*
X85600000Y85110000D02*
X85756000Y85110000D01*
X83441392Y88342334D02*
G75*
G03*
X83284485Y85110001I1078608J-1672334D01*
G01*
X83440164Y87711129D02*
G75*
G03*
X83440001Y85629040I1079836J-1041129D01*
G01*
X85599999Y85629040D02*
G75*
G03*
X85599836Y87711129I-1079999J1040960D01*
G01*
X85755515Y85110001D02*
G75*
G03*
X85598608Y88342334I-1235515J1559999D01*
G01*
%TO.C,SW2*%
X65670000Y5600000D02*
X65670000Y17900000D01*
X68390000Y5600000D02*
X65670000Y5600000D01*
X73390000Y5600000D02*
X70250000Y5600000D01*
X77970000Y5600000D02*
X75250000Y5600000D01*
X65670000Y17900000D02*
X68390000Y17900000D01*
X70250000Y17900000D02*
X73390000Y17900000D01*
X75250000Y17900000D02*
X77970000Y17900000D01*
X77970000Y17900000D02*
X77970000Y5600000D01*
X76439050Y11850000D02*
G75*
G03*
X76439050Y11850000I-4579050J0D01*
G01*
%TO.C,C2*%
X28080000Y39621000D02*
X28080000Y40879000D01*
X29920000Y39621000D02*
X29920000Y40879000D01*
%TO.C,SW3*%
X65670000Y41160000D02*
X65670000Y53460000D01*
X68390000Y41160000D02*
X65670000Y41160000D01*
X73390000Y41160000D02*
X70250000Y41160000D01*
X77970000Y41160000D02*
X75250000Y41160000D01*
X65670000Y53460000D02*
X68390000Y53460000D01*
X70250000Y53460000D02*
X73390000Y53460000D01*
X75250000Y53460000D02*
X77970000Y53460000D01*
X77970000Y53460000D02*
X77970000Y41160000D01*
X76439050Y47410000D02*
G75*
G03*
X76439050Y47410000I-4579050J0D01*
G01*
%TO.C,D4*%
X23684000Y4710000D02*
X23840000Y4710000D01*
X26000000Y4710000D02*
X26156000Y4710000D01*
X23841392Y7942334D02*
G75*
G03*
X23684485Y4710001I1078608J-1672334D01*
G01*
X23840164Y7311129D02*
G75*
G03*
X23840001Y5229040I1079836J-1041129D01*
G01*
X25999999Y5229040D02*
G75*
G03*
X25999836Y7311129I-1079999J1040960D01*
G01*
X26155515Y4710001D02*
G75*
G03*
X25998608Y7942334I-1235515J1559999D01*
G01*
%TO.C,R7*%
X74690000Y118420000D02*
X73740000Y118420000D01*
X73740000Y117500000D02*
X73740000Y119340000D01*
X73740000Y119340000D02*
X69900000Y119340000D01*
X69900000Y117500000D02*
X73740000Y117500000D01*
X69900000Y119340000D02*
X69900000Y117500000D01*
X68950000Y118420000D02*
X69900000Y118420000D01*
%TO.C,SW5*%
X47890000Y5600000D02*
X47890000Y17900000D01*
X50610000Y5600000D02*
X47890000Y5600000D01*
X55610000Y5600000D02*
X52470000Y5600000D01*
X60190000Y5600000D02*
X57470000Y5600000D01*
X47890000Y17900000D02*
X50610000Y17900000D01*
X52470000Y17900000D02*
X55610000Y17900000D01*
X57470000Y17900000D02*
X60190000Y17900000D01*
X60190000Y17900000D02*
X60190000Y5600000D01*
X58659050Y11850000D02*
G75*
G03*
X58659050Y11850000I-4579050J0D01*
G01*
%TO.C,R16*%
X30000000Y16490000D02*
X30000000Y17440000D01*
X29080000Y17440000D02*
X30920000Y17440000D01*
X30920000Y17440000D02*
X30920000Y21280000D01*
X29080000Y21280000D02*
X29080000Y17440000D01*
X30920000Y21280000D02*
X29080000Y21280000D01*
X30000000Y22230000D02*
X30000000Y21280000D01*
%TO.C,D6*%
X83284000Y79210000D02*
X83440000Y79210000D01*
X85600000Y79210000D02*
X85756000Y79210000D01*
X83441392Y82442334D02*
G75*
G03*
X83284485Y79210001I1078608J-1672334D01*
G01*
X83440164Y81811129D02*
G75*
G03*
X83440001Y79729040I1079836J-1041129D01*
G01*
X85599999Y79729040D02*
G75*
G03*
X85599836Y81811129I-1079999J1040960D01*
G01*
X85755515Y79210001D02*
G75*
G03*
X85598608Y82442334I-1235515J1559999D01*
G01*
%TO.C,R10*%
X25000000Y124870000D02*
X25000000Y123920000D01*
X25920000Y123920000D02*
X24080000Y123920000D01*
X24080000Y123920000D02*
X24080000Y120080000D01*
X25920000Y120080000D02*
X25920000Y123920000D01*
X24080000Y120080000D02*
X25920000Y120080000D01*
X25000000Y119130000D02*
X25000000Y120080000D01*
%TO.C,R1*%
X71820000Y24110000D02*
X71820000Y25060000D01*
X70900000Y25060000D02*
X72740000Y25060000D01*
X72740000Y25060000D02*
X72740000Y28900000D01*
X70900000Y28900000D02*
X70900000Y25060000D01*
X72740000Y28900000D02*
X70900000Y28900000D01*
X71820000Y29850000D02*
X71820000Y28900000D01*
D11*
%TO.C,U1*%
X38560000Y12060000D02*
X8560000Y12060000D01*
X38560000Y52060000D02*
X38560000Y12060000D01*
X38560000Y52060000D02*
X8560000Y52060000D01*
X8560000Y52060000D02*
X8560000Y12060000D01*
D12*
%TO.C,D1*%
X28290000Y128764000D02*
X28290000Y128920000D01*
X28290000Y131080000D02*
X28290000Y131236000D01*
X25057666Y128921392D02*
G75*
G03*
X28289999Y128764485I1672334J1078608D01*
G01*
X25688871Y128920164D02*
G75*
G03*
X27770960Y128920001I1041129J1079836D01*
G01*
X27770960Y131079999D02*
G75*
G03*
X25688871Y131079836I-1040960J-1079999D01*
G01*
X28289999Y131235515D02*
G75*
G03*
X25057666Y131078608I-1559999J-1235515D01*
G01*
%TO.C,SW10*%
X48950000Y132170000D02*
X48950000Y133500000D01*
X50280000Y132170000D02*
X48950000Y132170000D01*
X51550000Y132170000D02*
X56690000Y132170000D01*
X51550000Y132170000D02*
X51550000Y134830000D01*
X56690000Y132170000D02*
X56690000Y134830000D01*
X51550000Y134830000D02*
X56690000Y134830000D01*
%TO.C,R3*%
X74360000Y34930000D02*
X74360000Y33980000D01*
X75280000Y33980000D02*
X73440000Y33980000D01*
X73440000Y33980000D02*
X73440000Y30140000D01*
X75280000Y30140000D02*
X75280000Y33980000D01*
X73440000Y30140000D02*
X75280000Y30140000D01*
X74360000Y29190000D02*
X74360000Y30140000D01*
%TO.C,D2*%
X15290000Y100764000D02*
X15290000Y100920000D01*
X15290000Y103080000D02*
X15290000Y103236000D01*
X12057666Y100921392D02*
G75*
G03*
X15289999Y100764485I1672334J1078608D01*
G01*
X12688871Y100920164D02*
G75*
G03*
X14770960Y100920001I1041129J1079836D01*
G01*
X14770960Y103079999D02*
G75*
G03*
X12688871Y103079836I-1040960J-1079999D01*
G01*
X15289999Y103235515D02*
G75*
G03*
X12057666Y103078608I-1559999J-1235515D01*
G01*
%TO.C,J1*%
X31350000Y140435000D02*
X31940000Y140435000D01*
X31350000Y138215000D02*
X31940000Y138215000D01*
X31940000Y142535000D02*
X31940000Y140435000D01*
X31940000Y142535000D02*
X42060000Y142535000D01*
X31940000Y138215000D02*
X31940000Y133315000D01*
X31940000Y133315000D02*
X42060000Y133315000D01*
X42060000Y142535000D02*
X42060000Y140435000D01*
X42060000Y140435000D02*
X42650000Y140435000D01*
X42060000Y138215000D02*
X42060000Y133315000D01*
X42060000Y138215000D02*
X42650000Y138215000D01*
X31350000Y140435000D02*
G75*
G03*
X31350000Y138215000I0J-1110000D01*
G01*
X42650000Y138215000D02*
G75*
G03*
X42650000Y140435000I0J1110000D01*
G01*
%TO.C,SW1*%
X47890000Y23380000D02*
X47890000Y35680000D01*
X50610000Y23380000D02*
X47890000Y23380000D01*
X55610000Y23380000D02*
X52470000Y23380000D01*
X60190000Y23380000D02*
X57470000Y23380000D01*
X47890000Y35680000D02*
X50610000Y35680000D01*
X52470000Y35680000D02*
X55610000Y35680000D01*
X57470000Y35680000D02*
X60190000Y35680000D01*
X60190000Y35680000D02*
X60190000Y23380000D01*
X58659050Y29630000D02*
G75*
G03*
X58659050Y29630000I-4579050J0D01*
G01*
%TO.C,R4*%
X76900000Y24110000D02*
X76900000Y25060000D01*
X75980000Y25060000D02*
X77820000Y25060000D01*
X77820000Y25060000D02*
X77820000Y28900000D01*
X75980000Y28900000D02*
X75980000Y25060000D01*
X77820000Y28900000D02*
X75980000Y28900000D01*
X76900000Y29850000D02*
X76900000Y28900000D01*
%TO.C,R12*%
X20540000Y16490000D02*
X20540000Y17440000D01*
X19620000Y17440000D02*
X21460000Y17440000D01*
X21460000Y17440000D02*
X21460000Y21280000D01*
X19620000Y21280000D02*
X19620000Y17440000D01*
X21460000Y21280000D02*
X19620000Y21280000D01*
X20540000Y22230000D02*
X20540000Y21280000D01*
%TD*%
M02*
