M48
; DRILL file {KiCad 7.0.2} date Sat Jul  6 11:44:02 2024
; FORMAT={-:-/ absolute / inch / decimal}
; #@! TF.CreationDate,2024-07-06T11:44:02+09:00
; #@! TF.GenerationSoftware,Kicad,Pcbnew,7.0.2
; #@! TF.FileFunction,Plated,1,2,PTH
FMAT,2
INCH
; #@! TA.AperFunction,Plated,PTH,ViaDrill
T1C0.0157
; #@! TA.AperFunction,Plated,PTH,ComponentDrill
T2C0.0276
; #@! TA.AperFunction,Plated,PTH,ComponentDrill
T3C0.0315
; #@! TA.AperFunction,Plated,PTH,ComponentDrill
T4C0.0354
; #@! TA.AperFunction,Plated,PTH,ComponentDrill
T5C0.0394
; #@! TA.AperFunction,Plated,PTH,ComponentDrill
T6C0.0433
; #@! TA.AperFunction,Plated,PTH,ComponentDrill
T7C0.0512
; #@! TA.AperFunction,Plated,PTH,ComponentDrill
T8C0.0748
%
G90
G05
T1
X0.4724Y3.4252
X0.4724Y3.0709
X0.8268Y2.6378
X1.5748Y1.3386
X1.6142Y0.6299
X1.6929Y2.9528
X1.811Y3.4646
X1.8827Y5.2559
X2.2764Y5.2559
X2.3622Y3.4646
X2.4016Y1.8504
X2.6378Y4.4882
X2.908Y3.5591
X2.9208Y3.6691
T2
X0.5118Y4.4807
X0.5118Y4.1807
X0.8087Y0.9122
X0.8087Y0.6122
X0.9681Y0.9122
X0.9681Y0.6122
X0.9843Y4.9531
X0.9843Y4.6531
X1.1811Y0.9122
X1.1811Y0.6122
X2.1776Y3.2622
X2.1776Y3.1382
X2.1776Y3.0142
X2.4276Y4.8122
X2.4276Y4.5122
X2.4484Y1.3622
X2.4484Y1.1024
X2.4776Y3.2622
X2.4776Y3.1382
X2.4776Y3.0142
X2.4803Y2.0791
X2.4803Y1.7791
X2.5276Y4.6622
X2.5276Y4.3622
X2.6776Y4.6622
X2.7484Y1.3622
X2.7484Y1.1024
X2.8276Y1.2122
X2.8276Y0.9122
X2.9276Y1.4122
X2.9276Y1.1122
X2.9776Y4.6622
X3.0276Y1.2122
X3.0276Y0.9122
T3
X0.4799Y4.9213
X0.5118Y5.315
X0.5118Y5.1181
X0.6102Y5.315
X0.6102Y5.1181
X0.6244Y4.3866
X0.6252Y4.1988
X0.7228Y4.3866
X0.7236Y4.1988
X0.7799Y4.9213
X0.8291Y2.3622
X0.9276Y2.3622
X1.1417Y1.6339
X1.1417Y1.5354
T4
X0.4276Y1.5996
X0.4276Y1.4996
X0.4276Y1.3996
X0.4276Y1.2996
X0.4276Y1.1996
X0.4276Y1.0996
X0.4276Y0.9996
X0.4276Y0.8996
X0.4276Y0.7996
X0.4276Y0.6996
X0.4906Y4.0157
X0.5906Y4.0157
X0.7811Y0.2969
X0.7811Y0.1969
X0.9811Y0.2969
X0.9811Y0.1969
X1.0024Y5.1181
X1.1024Y5.1181
X1.1811Y0.2969
X1.1811Y0.1969
X1.4276Y1.5996
X1.4276Y1.4996
X1.4276Y1.3996
X1.4276Y1.2996
X1.4276Y1.1996
X1.4276Y1.0996
X1.4276Y0.9996
X1.4276Y0.8996
X1.4276Y0.7996
X1.4276Y0.6996
X3.3173Y3.024
X3.3173Y2.924
X3.3276Y3.4622
X3.3276Y3.3622
X3.3276Y3.2299
X3.3276Y3.1299
T5
X0.8276Y3.7622
X0.8276Y2.7622
X0.9276Y3.7622
X0.9276Y2.7622
X1.0276Y3.7622
X1.0276Y2.7622
X1.1276Y3.7622
X1.1276Y2.7622
X1.2276Y3.7622
X1.2276Y2.7622
X1.2402Y5.4852
X1.3276Y3.7622
X1.3276Y2.7622
X1.4276Y3.7622
X1.4276Y2.7622
X1.5276Y3.7622
X1.5276Y2.7622
X1.6276Y3.7622
X1.6276Y2.7622
X1.6732Y5.4852
X1.7276Y3.7622
X1.7276Y2.7622
X1.8276Y3.7622
X1.8276Y2.7622
X1.9276Y3.7622
X1.9276Y2.7622
X1.9795Y5.2559
X2.0276Y3.7622
X2.0276Y2.7622
X2.0795Y5.2559
X2.1276Y3.7622
X2.1276Y2.7622
X2.1795Y5.2559
X2.2276Y3.7622
X2.2276Y2.7622
X2.3276Y3.7622
X2.3276Y2.7622
X2.4276Y3.7622
X2.4276Y2.7622
X2.5276Y3.7622
X2.5276Y2.7622
X2.6276Y3.7622
X2.6276Y2.7622
T6
X0.5299Y4.6872
X0.6299Y4.6872
X0.7299Y4.6872
T7
X2.0291Y4.9087
X2.0291Y4.4165
X2.0291Y2.1087
X2.0291Y1.6165
X2.0291Y1.4087
X2.0291Y0.9165
X2.0291Y0.7087
X2.0291Y0.2165
X2.226Y4.9087
X2.226Y4.4165
X2.226Y2.1087
X2.226Y1.6165
X2.226Y1.4087
X2.226Y0.9165
X2.226Y0.7087
X2.226Y0.2165
X2.7291Y2.1087
X2.7291Y1.6165
X2.7291Y0.7087
X2.7291Y0.2165
X2.8291Y5.4087
X2.8291Y4.9165
X2.8291Y4.4087
X2.8291Y3.9165
X2.926Y2.1087
X2.926Y1.6165
X2.926Y0.7087
X2.926Y0.2165
X3.026Y5.4087
X3.026Y4.9165
X3.026Y4.4087
X3.026Y3.9165
X3.3268Y1.4268
X3.3268Y0.9346
X3.5236Y1.4268
X3.5236Y0.9346
T8
X1.3583Y5.0915
X1.5551Y5.0915
T0
M30
