M48
; DRILL file {KiCad 7.0.2} date Sun Jun 30 13:29:09 2024
; FORMAT={-:-/ absolute / inch / decimal}
; #@! TF.CreationDate,2024-06-30T13:29:09+09:00
; #@! TF.GenerationSoftware,Kicad,Pcbnew,7.0.2
; #@! TF.FileFunction,Plated,1,2,PTH
FMAT,2
INCH
; #@! TA.AperFunction,Plated,PTH,ViaDrill
T1C0.0157
; #@! TA.AperFunction,Plated,PTH,ComponentDrill
T2C0.0276
; #@! TA.AperFunction,Plated,PTH,ComponentDrill
T3C0.0315
; #@! TA.AperFunction,Plated,PTH,ComponentDrill
T4C0.0354
; #@! TA.AperFunction,Plated,PTH,ComponentDrill
T5C0.0394
; #@! TA.AperFunction,Plated,PTH,ComponentDrill
T6C0.0433
; #@! TA.AperFunction,Plated,PTH,ComponentDrill
T7C0.0512
%
G90
G05
T1
X0.4528Y3.5433
X0.4528Y2.9921
X0.7087Y0.6102
X0.7677Y4.0551
X0.7677Y2.6378
X1.2205Y0.4921
X1.437Y0.315
X1.752Y0.6299
T2
X1.1537Y4.7842
X1.1537Y4.4842
X1.5551Y1.7248
X1.5551Y1.4248
X1.6492Y1.8823
X1.6492Y1.5823
X1.6835Y3.8392
X1.6835Y3.5392
X1.752Y2.0004
X1.752Y1.7004
X1.7836Y3.8393
X1.7836Y3.5393
X1.8701Y1.7248
X1.8701Y1.4248
X1.8853Y3.8393
X1.8853Y3.5393
X1.9411Y4.3117
X1.9411Y4.0117
X1.9878Y3.8424
X1.9878Y3.5424
X2.3091Y1.1043
X2.3091Y0.8043
X2.35Y2.7953
X2.35Y2.5787
X2.3575Y2.8937
X2.4213Y1.2524
X2.4213Y0.9524
X2.65Y2.7953
X2.65Y2.5787
X2.6575Y2.8937
X2.6969Y2.1504
X2.6969Y1.8504
X2.815Y1.7642
X2.815Y1.4642
X2.8466Y4.9023
X2.8466Y4.6023
X2.8638Y4.0856
X2.8638Y3.7856
T3
X0.1575Y4.4217
X0.1575Y4.1217
X0.2831Y3.7205
X0.2953Y3.878
X0.3937Y3.878
X0.4134Y4.0354
X0.5118Y4.0354
X0.5512Y4.4291
X0.5512Y4.3307
X0.5831Y3.7205
X0.6102Y0.7799
X0.6102Y0.4799
X0.76Y4.8235
X0.76Y4.5235
X0.8071Y0.7799
X0.8071Y0.4799
X1.0827Y2.2441
X1.0827Y2.0866
X1.0827Y0.7406
X1.0827Y0.4406
X1.1811Y2.2441
X1.1811Y2.0866
X1.4096Y3.8468
X1.437Y1.7323
X1.437Y1.6339
X1.508Y3.8468
X2.0472Y0.9937
X2.0985Y3.8468
X2.0985Y3.7483
X2.1063Y2.0472
X2.1457Y0.9937
X2.2047Y2.0472
X2.6181Y1.7323
X2.6181Y1.6339
X2.7285Y4.1617
X2.7285Y4.0633
X2.7559Y4.4685
X2.8543Y4.4685
T4
X0.3071Y1.5579
X0.3071Y1.4579
X0.3071Y1.3579
X0.3071Y1.2579
X0.3071Y1.1579
X0.3071Y1.0579
X0.3071Y0.9579
X0.3071Y0.8579
X0.3071Y0.7579
X0.3071Y0.6579
X0.5906Y3.6024
X0.5906Y3.5024
X0.6102Y0.3362
X0.6102Y0.2362
X0.8071Y0.3362
X0.8071Y0.2362
X0.9449Y4.8047
X0.9449Y4.7047
X1.0827Y0.3362
X1.0827Y0.2362
X1.3071Y1.5579
X1.3071Y1.4579
X1.3071Y1.3579
X1.3071Y1.2579
X1.3071Y1.1579
X1.3071Y1.0579
X1.3071Y0.9579
X1.3071Y0.8579
X1.3071Y0.7579
X1.3071Y0.6579
X2.7466Y2.5787
X2.7466Y2.973
X2.7466Y2.7941
X2.8466Y2.5787
X2.8466Y2.973
X2.8466Y2.7941
T5
X0.8836Y3.4019
X0.8836Y2.4019
X0.9836Y3.4019
X0.9836Y2.4019
X1.0836Y3.4019
X1.0836Y2.4019
X1.1836Y3.4019
X1.1836Y2.4019
X1.2836Y3.4019
X1.2836Y2.4019
X1.3068Y4.7907
X1.3836Y3.4019
X1.3836Y2.4019
X1.4068Y4.7907
X1.4836Y3.4019
X1.4836Y2.4019
X1.5068Y4.7907
X1.5836Y3.4019
X1.5836Y2.4019
X1.6068Y4.7907
X1.6836Y3.4019
X1.6836Y2.4019
X1.7068Y4.7907
X1.7836Y3.4019
X1.7836Y2.4019
X1.8836Y3.4019
X1.8836Y2.4019
X1.9836Y3.4019
X1.9836Y2.4019
X2.0836Y3.4019
X2.0836Y2.4019
X2.1836Y3.4019
X2.1836Y2.4019
X2.2836Y3.4019
X2.2836Y2.4019
X2.3836Y3.4019
X2.3836Y2.4019
X2.4836Y3.4019
X2.4836Y2.4019
X2.5836Y3.4019
X2.5836Y2.4019
X2.6836Y3.4019
X2.6836Y2.4019
T6
X0.3915Y4.411
X0.3915Y4.311
X0.3915Y4.211
T7
X1.4489Y4.5263
X1.4489Y4.0342
X1.5354Y1.2795
X1.5354Y0.7874
X1.6458Y4.5263
X1.6458Y4.0342
X1.7323Y1.2795
X1.7323Y0.7874
X2.0866Y1.9094
X2.0866Y1.4173
X2.0866Y0.6496
X2.0866Y0.1575
X2.2835Y1.9094
X2.2835Y1.4173
X2.2835Y0.6496
X2.2835Y0.1575
X2.2929Y4.9694
X2.2929Y4.4773
X2.2929Y4.172
X2.2929Y3.6798
X2.4898Y4.9694
X2.4898Y4.4773
X2.4898Y4.172
X2.4898Y3.6798
X2.6378Y1.2795
X2.6378Y0.7874
X2.8346Y1.2795
X2.8346Y0.7874
T0
M30
