%TF.GenerationSoftware,KiCad,Pcbnew,7.0.2*%
%TF.CreationDate,2024-06-30T13:29:06+09:00*%
%TF.ProjectId,______,b3f3c8ed-fce9-42e6-9b69-6361645f7063,rev?*%
%TF.SameCoordinates,PX6422c40PY981c6e0*%
%TF.FileFunction,Legend,Top*%
%TF.FilePolarity,Positive*%
%FSLAX46Y46*%
G04 Gerber Fmt 4.6, Leading zero omitted, Abs format (unit mm)*
G04 Created by KiCad (PCBNEW 7.0.2) date 2024-06-30 13:29:06*
%MOMM*%
%LPD*%
G01*
G04 APERTURE LIST*
%ADD10C,0.150000*%
%ADD11C,0.100000*%
%ADD12C,0.120000*%
G04 APERTURE END LIST*
D10*
%TO.C,R4*%
X46882619Y46833334D02*
X46406428Y46500001D01*
X46882619Y46261906D02*
X45882619Y46261906D01*
X45882619Y46261906D02*
X45882619Y46642858D01*
X45882619Y46642858D02*
X45930238Y46738096D01*
X45930238Y46738096D02*
X45977857Y46785715D01*
X45977857Y46785715D02*
X46073095Y46833334D01*
X46073095Y46833334D02*
X46215952Y46833334D01*
X46215952Y46833334D02*
X46311190Y46785715D01*
X46311190Y46785715D02*
X46358809Y46738096D01*
X46358809Y46738096D02*
X46406428Y46642858D01*
X46406428Y46642858D02*
X46406428Y46261906D01*
X46215952Y47690477D02*
X46882619Y47690477D01*
X45835000Y47452382D02*
X46549285Y47214287D01*
X46549285Y47214287D02*
X46549285Y47833334D01*
%TO.C,U1*%
X5137619Y108738096D02*
X5947142Y108738096D01*
X5947142Y108738096D02*
X6042380Y108785715D01*
X6042380Y108785715D02*
X6090000Y108833334D01*
X6090000Y108833334D02*
X6137619Y108928572D01*
X6137619Y108928572D02*
X6137619Y109119048D01*
X6137619Y109119048D02*
X6090000Y109214286D01*
X6090000Y109214286D02*
X6042380Y109261905D01*
X6042380Y109261905D02*
X5947142Y109309524D01*
X5947142Y109309524D02*
X5137619Y109309524D01*
X6137619Y110309524D02*
X6137619Y109738096D01*
X6137619Y110023810D02*
X5137619Y110023810D01*
X5137619Y110023810D02*
X5280476Y109928572D01*
X5280476Y109928572D02*
X5375714Y109833334D01*
X5375714Y109833334D02*
X5423333Y109738096D01*
%TO.C,C1*%
X38917380Y42583334D02*
X38965000Y42535715D01*
X38965000Y42535715D02*
X39012619Y42392858D01*
X39012619Y42392858D02*
X39012619Y42297620D01*
X39012619Y42297620D02*
X38965000Y42154763D01*
X38965000Y42154763D02*
X38869761Y42059525D01*
X38869761Y42059525D02*
X38774523Y42011906D01*
X38774523Y42011906D02*
X38584047Y41964287D01*
X38584047Y41964287D02*
X38441190Y41964287D01*
X38441190Y41964287D02*
X38250714Y42011906D01*
X38250714Y42011906D02*
X38155476Y42059525D01*
X38155476Y42059525D02*
X38060238Y42154763D01*
X38060238Y42154763D02*
X38012619Y42297620D01*
X38012619Y42297620D02*
X38012619Y42392858D01*
X38012619Y42392858D02*
X38060238Y42535715D01*
X38060238Y42535715D02*
X38107857Y42583334D01*
X39012619Y43535715D02*
X39012619Y42964287D01*
X39012619Y43250001D02*
X38012619Y43250001D01*
X38012619Y43250001D02*
X38155476Y43154763D01*
X38155476Y43154763D02*
X38250714Y43059525D01*
X38250714Y43059525D02*
X38298333Y42964287D01*
%TO.C,C10*%
X28107142Y58682620D02*
X28059523Y58635000D01*
X28059523Y58635000D02*
X27916666Y58587381D01*
X27916666Y58587381D02*
X27821428Y58587381D01*
X27821428Y58587381D02*
X27678571Y58635000D01*
X27678571Y58635000D02*
X27583333Y58730239D01*
X27583333Y58730239D02*
X27535714Y58825477D01*
X27535714Y58825477D02*
X27488095Y59015953D01*
X27488095Y59015953D02*
X27488095Y59158810D01*
X27488095Y59158810D02*
X27535714Y59349286D01*
X27535714Y59349286D02*
X27583333Y59444524D01*
X27583333Y59444524D02*
X27678571Y59539762D01*
X27678571Y59539762D02*
X27821428Y59587381D01*
X27821428Y59587381D02*
X27916666Y59587381D01*
X27916666Y59587381D02*
X28059523Y59539762D01*
X28059523Y59539762D02*
X28107142Y59492143D01*
X29059523Y58587381D02*
X28488095Y58587381D01*
X28773809Y58587381D02*
X28773809Y59587381D01*
X28773809Y59587381D02*
X28678571Y59444524D01*
X28678571Y59444524D02*
X28583333Y59349286D01*
X28583333Y59349286D02*
X28488095Y59301667D01*
X29678571Y59587381D02*
X29773809Y59587381D01*
X29773809Y59587381D02*
X29869047Y59539762D01*
X29869047Y59539762D02*
X29916666Y59492143D01*
X29916666Y59492143D02*
X29964285Y59396905D01*
X29964285Y59396905D02*
X30011904Y59206429D01*
X30011904Y59206429D02*
X30011904Y58968334D01*
X30011904Y58968334D02*
X29964285Y58777858D01*
X29964285Y58777858D02*
X29916666Y58682620D01*
X29916666Y58682620D02*
X29869047Y58635000D01*
X29869047Y58635000D02*
X29773809Y58587381D01*
X29773809Y58587381D02*
X29678571Y58587381D01*
X29678571Y58587381D02*
X29583333Y58635000D01*
X29583333Y58635000D02*
X29535714Y58682620D01*
X29535714Y58682620D02*
X29488095Y58777858D01*
X29488095Y58777858D02*
X29440476Y58968334D01*
X29440476Y58968334D02*
X29440476Y59206429D01*
X29440476Y59206429D02*
X29488095Y59396905D01*
X29488095Y59396905D02*
X29535714Y59492143D01*
X29535714Y59492143D02*
X29583333Y59539762D01*
X29583333Y59539762D02*
X29678571Y59587381D01*
%TO.C,H4*%
X78148095Y7737381D02*
X78148095Y8737381D01*
X78148095Y8261191D02*
X78719523Y8261191D01*
X78719523Y7737381D02*
X78719523Y8737381D01*
X79624285Y8404048D02*
X79624285Y7737381D01*
X79386190Y8785000D02*
X79148095Y8070715D01*
X79148095Y8070715D02*
X79767142Y8070715D01*
%TO.C,R12*%
X46429040Y93065224D02*
X45952849Y92731891D01*
X46429040Y92493796D02*
X45429040Y92493796D01*
X45429040Y92493796D02*
X45429040Y92874748D01*
X45429040Y92874748D02*
X45476659Y92969986D01*
X45476659Y92969986D02*
X45524278Y93017605D01*
X45524278Y93017605D02*
X45619516Y93065224D01*
X45619516Y93065224D02*
X45762373Y93065224D01*
X45762373Y93065224D02*
X45857611Y93017605D01*
X45857611Y93017605D02*
X45905230Y92969986D01*
X45905230Y92969986D02*
X45952849Y92874748D01*
X45952849Y92874748D02*
X45952849Y92493796D01*
X46429040Y94017605D02*
X46429040Y93446177D01*
X46429040Y93731891D02*
X45429040Y93731891D01*
X45429040Y93731891D02*
X45571897Y93636653D01*
X45571897Y93636653D02*
X45667135Y93541415D01*
X45667135Y93541415D02*
X45714754Y93446177D01*
X45524278Y94398558D02*
X45476659Y94446177D01*
X45476659Y94446177D02*
X45429040Y94541415D01*
X45429040Y94541415D02*
X45429040Y94779510D01*
X45429040Y94779510D02*
X45476659Y94874748D01*
X45476659Y94874748D02*
X45524278Y94922367D01*
X45524278Y94922367D02*
X45619516Y94969986D01*
X45619516Y94969986D02*
X45714754Y94969986D01*
X45714754Y94969986D02*
X45857611Y94922367D01*
X45857611Y94922367D02*
X46429040Y94350939D01*
X46429040Y94350939D02*
X46429040Y94969986D01*
%TO.C,R3*%
X46042619Y39833334D02*
X45566428Y39500001D01*
X46042619Y39261906D02*
X45042619Y39261906D01*
X45042619Y39261906D02*
X45042619Y39642858D01*
X45042619Y39642858D02*
X45090238Y39738096D01*
X45090238Y39738096D02*
X45137857Y39785715D01*
X45137857Y39785715D02*
X45233095Y39833334D01*
X45233095Y39833334D02*
X45375952Y39833334D01*
X45375952Y39833334D02*
X45471190Y39785715D01*
X45471190Y39785715D02*
X45518809Y39738096D01*
X45518809Y39738096D02*
X45566428Y39642858D01*
X45566428Y39642858D02*
X45566428Y39261906D01*
X45042619Y40166668D02*
X45042619Y40785715D01*
X45042619Y40785715D02*
X45423571Y40452382D01*
X45423571Y40452382D02*
X45423571Y40595239D01*
X45423571Y40595239D02*
X45471190Y40690477D01*
X45471190Y40690477D02*
X45518809Y40738096D01*
X45518809Y40738096D02*
X45614047Y40785715D01*
X45614047Y40785715D02*
X45852142Y40785715D01*
X45852142Y40785715D02*
X45947380Y40738096D01*
X45947380Y40738096D02*
X45995000Y40690477D01*
X45995000Y40690477D02*
X46042619Y40595239D01*
X46042619Y40595239D02*
X46042619Y40309525D01*
X46042619Y40309525D02*
X45995000Y40214287D01*
X45995000Y40214287D02*
X45947380Y40166668D01*
%TO.C,C13*%
X8107142Y100182620D02*
X8059523Y100135000D01*
X8059523Y100135000D02*
X7916666Y100087381D01*
X7916666Y100087381D02*
X7821428Y100087381D01*
X7821428Y100087381D02*
X7678571Y100135000D01*
X7678571Y100135000D02*
X7583333Y100230239D01*
X7583333Y100230239D02*
X7535714Y100325477D01*
X7535714Y100325477D02*
X7488095Y100515953D01*
X7488095Y100515953D02*
X7488095Y100658810D01*
X7488095Y100658810D02*
X7535714Y100849286D01*
X7535714Y100849286D02*
X7583333Y100944524D01*
X7583333Y100944524D02*
X7678571Y101039762D01*
X7678571Y101039762D02*
X7821428Y101087381D01*
X7821428Y101087381D02*
X7916666Y101087381D01*
X7916666Y101087381D02*
X8059523Y101039762D01*
X8059523Y101039762D02*
X8107142Y100992143D01*
X9059523Y100087381D02*
X8488095Y100087381D01*
X8773809Y100087381D02*
X8773809Y101087381D01*
X8773809Y101087381D02*
X8678571Y100944524D01*
X8678571Y100944524D02*
X8583333Y100849286D01*
X8583333Y100849286D02*
X8488095Y100801667D01*
X9392857Y101087381D02*
X10011904Y101087381D01*
X10011904Y101087381D02*
X9678571Y100706429D01*
X9678571Y100706429D02*
X9821428Y100706429D01*
X9821428Y100706429D02*
X9916666Y100658810D01*
X9916666Y100658810D02*
X9964285Y100611191D01*
X9964285Y100611191D02*
X10011904Y100515953D01*
X10011904Y100515953D02*
X10011904Y100277858D01*
X10011904Y100277858D02*
X9964285Y100182620D01*
X9964285Y100182620D02*
X9916666Y100135000D01*
X9916666Y100135000D02*
X9821428Y100087381D01*
X9821428Y100087381D02*
X9535714Y100087381D01*
X9535714Y100087381D02*
X9440476Y100135000D01*
X9440476Y100135000D02*
X9392857Y100182620D01*
%TO.C,R7*%
X70042619Y40833334D02*
X69566428Y40500001D01*
X70042619Y40261906D02*
X69042619Y40261906D01*
X69042619Y40261906D02*
X69042619Y40642858D01*
X69042619Y40642858D02*
X69090238Y40738096D01*
X69090238Y40738096D02*
X69137857Y40785715D01*
X69137857Y40785715D02*
X69233095Y40833334D01*
X69233095Y40833334D02*
X69375952Y40833334D01*
X69375952Y40833334D02*
X69471190Y40785715D01*
X69471190Y40785715D02*
X69518809Y40738096D01*
X69518809Y40738096D02*
X69566428Y40642858D01*
X69566428Y40642858D02*
X69566428Y40261906D01*
X69042619Y41166668D02*
X69042619Y41833334D01*
X69042619Y41833334D02*
X70042619Y41404763D01*
%TO.C,R22*%
X25592619Y14357143D02*
X25116428Y14023810D01*
X25592619Y13785715D02*
X24592619Y13785715D01*
X24592619Y13785715D02*
X24592619Y14166667D01*
X24592619Y14166667D02*
X24640238Y14261905D01*
X24640238Y14261905D02*
X24687857Y14309524D01*
X24687857Y14309524D02*
X24783095Y14357143D01*
X24783095Y14357143D02*
X24925952Y14357143D01*
X24925952Y14357143D02*
X25021190Y14309524D01*
X25021190Y14309524D02*
X25068809Y14261905D01*
X25068809Y14261905D02*
X25116428Y14166667D01*
X25116428Y14166667D02*
X25116428Y13785715D01*
X24687857Y14738096D02*
X24640238Y14785715D01*
X24640238Y14785715D02*
X24592619Y14880953D01*
X24592619Y14880953D02*
X24592619Y15119048D01*
X24592619Y15119048D02*
X24640238Y15214286D01*
X24640238Y15214286D02*
X24687857Y15261905D01*
X24687857Y15261905D02*
X24783095Y15309524D01*
X24783095Y15309524D02*
X24878333Y15309524D01*
X24878333Y15309524D02*
X25021190Y15261905D01*
X25021190Y15261905D02*
X25592619Y14690477D01*
X25592619Y14690477D02*
X25592619Y15309524D01*
X24687857Y15690477D02*
X24640238Y15738096D01*
X24640238Y15738096D02*
X24592619Y15833334D01*
X24592619Y15833334D02*
X24592619Y16071429D01*
X24592619Y16071429D02*
X24640238Y16166667D01*
X24640238Y16166667D02*
X24687857Y16214286D01*
X24687857Y16214286D02*
X24783095Y16261905D01*
X24783095Y16261905D02*
X24878333Y16261905D01*
X24878333Y16261905D02*
X25021190Y16214286D01*
X25021190Y16214286D02*
X25592619Y15642858D01*
X25592619Y15642858D02*
X25592619Y16261905D01*
%TO.C,C3*%
X53083333Y22822620D02*
X53035714Y22775000D01*
X53035714Y22775000D02*
X52892857Y22727381D01*
X52892857Y22727381D02*
X52797619Y22727381D01*
X52797619Y22727381D02*
X52654762Y22775000D01*
X52654762Y22775000D02*
X52559524Y22870239D01*
X52559524Y22870239D02*
X52511905Y22965477D01*
X52511905Y22965477D02*
X52464286Y23155953D01*
X52464286Y23155953D02*
X52464286Y23298810D01*
X52464286Y23298810D02*
X52511905Y23489286D01*
X52511905Y23489286D02*
X52559524Y23584524D01*
X52559524Y23584524D02*
X52654762Y23679762D01*
X52654762Y23679762D02*
X52797619Y23727381D01*
X52797619Y23727381D02*
X52892857Y23727381D01*
X52892857Y23727381D02*
X53035714Y23679762D01*
X53035714Y23679762D02*
X53083333Y23632143D01*
X53416667Y23727381D02*
X54035714Y23727381D01*
X54035714Y23727381D02*
X53702381Y23346429D01*
X53702381Y23346429D02*
X53845238Y23346429D01*
X53845238Y23346429D02*
X53940476Y23298810D01*
X53940476Y23298810D02*
X53988095Y23251191D01*
X53988095Y23251191D02*
X54035714Y23155953D01*
X54035714Y23155953D02*
X54035714Y22917858D01*
X54035714Y22917858D02*
X53988095Y22822620D01*
X53988095Y22822620D02*
X53940476Y22775000D01*
X53940476Y22775000D02*
X53845238Y22727381D01*
X53845238Y22727381D02*
X53559524Y22727381D01*
X53559524Y22727381D02*
X53464286Y22775000D01*
X53464286Y22775000D02*
X53416667Y22822620D01*
%TO.C,R20*%
X18592619Y15357143D02*
X18116428Y15023810D01*
X18592619Y14785715D02*
X17592619Y14785715D01*
X17592619Y14785715D02*
X17592619Y15166667D01*
X17592619Y15166667D02*
X17640238Y15261905D01*
X17640238Y15261905D02*
X17687857Y15309524D01*
X17687857Y15309524D02*
X17783095Y15357143D01*
X17783095Y15357143D02*
X17925952Y15357143D01*
X17925952Y15357143D02*
X18021190Y15309524D01*
X18021190Y15309524D02*
X18068809Y15261905D01*
X18068809Y15261905D02*
X18116428Y15166667D01*
X18116428Y15166667D02*
X18116428Y14785715D01*
X17687857Y15738096D02*
X17640238Y15785715D01*
X17640238Y15785715D02*
X17592619Y15880953D01*
X17592619Y15880953D02*
X17592619Y16119048D01*
X17592619Y16119048D02*
X17640238Y16214286D01*
X17640238Y16214286D02*
X17687857Y16261905D01*
X17687857Y16261905D02*
X17783095Y16309524D01*
X17783095Y16309524D02*
X17878333Y16309524D01*
X17878333Y16309524D02*
X18021190Y16261905D01*
X18021190Y16261905D02*
X18592619Y15690477D01*
X18592619Y15690477D02*
X18592619Y16309524D01*
X17592619Y16928572D02*
X17592619Y17023810D01*
X17592619Y17023810D02*
X17640238Y17119048D01*
X17640238Y17119048D02*
X17687857Y17166667D01*
X17687857Y17166667D02*
X17783095Y17214286D01*
X17783095Y17214286D02*
X17973571Y17261905D01*
X17973571Y17261905D02*
X18211666Y17261905D01*
X18211666Y17261905D02*
X18402142Y17214286D01*
X18402142Y17214286D02*
X18497380Y17166667D01*
X18497380Y17166667D02*
X18545000Y17119048D01*
X18545000Y17119048D02*
X18592619Y17023810D01*
X18592619Y17023810D02*
X18592619Y16928572D01*
X18592619Y16928572D02*
X18545000Y16833334D01*
X18545000Y16833334D02*
X18497380Y16785715D01*
X18497380Y16785715D02*
X18402142Y16738096D01*
X18402142Y16738096D02*
X18211666Y16690477D01*
X18211666Y16690477D02*
X17973571Y16690477D01*
X17973571Y16690477D02*
X17783095Y16738096D01*
X17783095Y16738096D02*
X17687857Y16785715D01*
X17687857Y16785715D02*
X17640238Y16833334D01*
X17640238Y16833334D02*
X17592619Y16928572D01*
%TO.C,H2*%
X7148095Y128737381D02*
X7148095Y129737381D01*
X7148095Y129261191D02*
X7719523Y129261191D01*
X7719523Y128737381D02*
X7719523Y129737381D01*
X8148095Y129642143D02*
X8195714Y129689762D01*
X8195714Y129689762D02*
X8290952Y129737381D01*
X8290952Y129737381D02*
X8529047Y129737381D01*
X8529047Y129737381D02*
X8624285Y129689762D01*
X8624285Y129689762D02*
X8671904Y129642143D01*
X8671904Y129642143D02*
X8719523Y129546905D01*
X8719523Y129546905D02*
X8719523Y129451667D01*
X8719523Y129451667D02*
X8671904Y129308810D01*
X8671904Y129308810D02*
X8100476Y128737381D01*
X8100476Y128737381D02*
X8719523Y128737381D01*
%TO.C,R1*%
X38042619Y38073334D02*
X37566428Y37740001D01*
X38042619Y37501906D02*
X37042619Y37501906D01*
X37042619Y37501906D02*
X37042619Y37882858D01*
X37042619Y37882858D02*
X37090238Y37978096D01*
X37090238Y37978096D02*
X37137857Y38025715D01*
X37137857Y38025715D02*
X37233095Y38073334D01*
X37233095Y38073334D02*
X37375952Y38073334D01*
X37375952Y38073334D02*
X37471190Y38025715D01*
X37471190Y38025715D02*
X37518809Y37978096D01*
X37518809Y37978096D02*
X37566428Y37882858D01*
X37566428Y37882858D02*
X37566428Y37501906D01*
X38042619Y39025715D02*
X38042619Y38454287D01*
X38042619Y38740001D02*
X37042619Y38740001D01*
X37042619Y38740001D02*
X37185476Y38644763D01*
X37185476Y38644763D02*
X37280714Y38549525D01*
X37280714Y38549525D02*
X37328333Y38454287D01*
%TO.C,SW2*%
X48755000Y40746668D02*
X48802619Y40889525D01*
X48802619Y40889525D02*
X48802619Y41127620D01*
X48802619Y41127620D02*
X48755000Y41222858D01*
X48755000Y41222858D02*
X48707380Y41270477D01*
X48707380Y41270477D02*
X48612142Y41318096D01*
X48612142Y41318096D02*
X48516904Y41318096D01*
X48516904Y41318096D02*
X48421666Y41270477D01*
X48421666Y41270477D02*
X48374047Y41222858D01*
X48374047Y41222858D02*
X48326428Y41127620D01*
X48326428Y41127620D02*
X48278809Y40937144D01*
X48278809Y40937144D02*
X48231190Y40841906D01*
X48231190Y40841906D02*
X48183571Y40794287D01*
X48183571Y40794287D02*
X48088333Y40746668D01*
X48088333Y40746668D02*
X47993095Y40746668D01*
X47993095Y40746668D02*
X47897857Y40794287D01*
X47897857Y40794287D02*
X47850238Y40841906D01*
X47850238Y40841906D02*
X47802619Y40937144D01*
X47802619Y40937144D02*
X47802619Y41175239D01*
X47802619Y41175239D02*
X47850238Y41318096D01*
X47802619Y41651430D02*
X48802619Y41889525D01*
X48802619Y41889525D02*
X48088333Y42080001D01*
X48088333Y42080001D02*
X48802619Y42270477D01*
X48802619Y42270477D02*
X47802619Y42508572D01*
X47897857Y42841906D02*
X47850238Y42889525D01*
X47850238Y42889525D02*
X47802619Y42984763D01*
X47802619Y42984763D02*
X47802619Y43222858D01*
X47802619Y43222858D02*
X47850238Y43318096D01*
X47850238Y43318096D02*
X47897857Y43365715D01*
X47897857Y43365715D02*
X47993095Y43413334D01*
X47993095Y43413334D02*
X48088333Y43413334D01*
X48088333Y43413334D02*
X48231190Y43365715D01*
X48231190Y43365715D02*
X48802619Y42794287D01*
X48802619Y42794287D02*
X48802619Y43413334D01*
%TO.C,C4*%
X68917380Y42583334D02*
X68965000Y42535715D01*
X68965000Y42535715D02*
X69012619Y42392858D01*
X69012619Y42392858D02*
X69012619Y42297620D01*
X69012619Y42297620D02*
X68965000Y42154763D01*
X68965000Y42154763D02*
X68869761Y42059525D01*
X68869761Y42059525D02*
X68774523Y42011906D01*
X68774523Y42011906D02*
X68584047Y41964287D01*
X68584047Y41964287D02*
X68441190Y41964287D01*
X68441190Y41964287D02*
X68250714Y42011906D01*
X68250714Y42011906D02*
X68155476Y42059525D01*
X68155476Y42059525D02*
X68060238Y42154763D01*
X68060238Y42154763D02*
X68012619Y42297620D01*
X68012619Y42297620D02*
X68012619Y42392858D01*
X68012619Y42392858D02*
X68060238Y42535715D01*
X68060238Y42535715D02*
X68107857Y42583334D01*
X68345952Y43440477D02*
X69012619Y43440477D01*
X67965000Y43202382D02*
X68679285Y42964287D01*
X68679285Y42964287D02*
X68679285Y43583334D01*
%TO.C,C11*%
X16417380Y110607143D02*
X16465000Y110559524D01*
X16465000Y110559524D02*
X16512619Y110416667D01*
X16512619Y110416667D02*
X16512619Y110321429D01*
X16512619Y110321429D02*
X16465000Y110178572D01*
X16465000Y110178572D02*
X16369761Y110083334D01*
X16369761Y110083334D02*
X16274523Y110035715D01*
X16274523Y110035715D02*
X16084047Y109988096D01*
X16084047Y109988096D02*
X15941190Y109988096D01*
X15941190Y109988096D02*
X15750714Y110035715D01*
X15750714Y110035715D02*
X15655476Y110083334D01*
X15655476Y110083334D02*
X15560238Y110178572D01*
X15560238Y110178572D02*
X15512619Y110321429D01*
X15512619Y110321429D02*
X15512619Y110416667D01*
X15512619Y110416667D02*
X15560238Y110559524D01*
X15560238Y110559524D02*
X15607857Y110607143D01*
X16512619Y111559524D02*
X16512619Y110988096D01*
X16512619Y111273810D02*
X15512619Y111273810D01*
X15512619Y111273810D02*
X15655476Y111178572D01*
X15655476Y111178572D02*
X15750714Y111083334D01*
X15750714Y111083334D02*
X15798333Y110988096D01*
X16512619Y112511905D02*
X16512619Y111940477D01*
X16512619Y112226191D02*
X15512619Y112226191D01*
X15512619Y112226191D02*
X15655476Y112130953D01*
X15655476Y112130953D02*
X15750714Y112035715D01*
X15750714Y112035715D02*
X15798333Y111940477D01*
%TO.C,SW7*%
X32558081Y107214749D02*
X32605700Y107357606D01*
X32605700Y107357606D02*
X32605700Y107595701D01*
X32605700Y107595701D02*
X32558081Y107690939D01*
X32558081Y107690939D02*
X32510461Y107738558D01*
X32510461Y107738558D02*
X32415223Y107786177D01*
X32415223Y107786177D02*
X32319985Y107786177D01*
X32319985Y107786177D02*
X32224747Y107738558D01*
X32224747Y107738558D02*
X32177128Y107690939D01*
X32177128Y107690939D02*
X32129509Y107595701D01*
X32129509Y107595701D02*
X32081890Y107405225D01*
X32081890Y107405225D02*
X32034271Y107309987D01*
X32034271Y107309987D02*
X31986652Y107262368D01*
X31986652Y107262368D02*
X31891414Y107214749D01*
X31891414Y107214749D02*
X31796176Y107214749D01*
X31796176Y107214749D02*
X31700938Y107262368D01*
X31700938Y107262368D02*
X31653319Y107309987D01*
X31653319Y107309987D02*
X31605700Y107405225D01*
X31605700Y107405225D02*
X31605700Y107643320D01*
X31605700Y107643320D02*
X31653319Y107786177D01*
X31605700Y108119511D02*
X32605700Y108357606D01*
X32605700Y108357606D02*
X31891414Y108548082D01*
X31891414Y108548082D02*
X32605700Y108738558D01*
X32605700Y108738558D02*
X31605700Y108976653D01*
X31605700Y109262368D02*
X31605700Y109929034D01*
X31605700Y109929034D02*
X32605700Y109500463D01*
%TO.C,R21*%
X13592619Y15357143D02*
X13116428Y15023810D01*
X13592619Y14785715D02*
X12592619Y14785715D01*
X12592619Y14785715D02*
X12592619Y15166667D01*
X12592619Y15166667D02*
X12640238Y15261905D01*
X12640238Y15261905D02*
X12687857Y15309524D01*
X12687857Y15309524D02*
X12783095Y15357143D01*
X12783095Y15357143D02*
X12925952Y15357143D01*
X12925952Y15357143D02*
X13021190Y15309524D01*
X13021190Y15309524D02*
X13068809Y15261905D01*
X13068809Y15261905D02*
X13116428Y15166667D01*
X13116428Y15166667D02*
X13116428Y14785715D01*
X12687857Y15738096D02*
X12640238Y15785715D01*
X12640238Y15785715D02*
X12592619Y15880953D01*
X12592619Y15880953D02*
X12592619Y16119048D01*
X12592619Y16119048D02*
X12640238Y16214286D01*
X12640238Y16214286D02*
X12687857Y16261905D01*
X12687857Y16261905D02*
X12783095Y16309524D01*
X12783095Y16309524D02*
X12878333Y16309524D01*
X12878333Y16309524D02*
X13021190Y16261905D01*
X13021190Y16261905D02*
X13592619Y15690477D01*
X13592619Y15690477D02*
X13592619Y16309524D01*
X13592619Y17261905D02*
X13592619Y16690477D01*
X13592619Y16976191D02*
X12592619Y16976191D01*
X12592619Y16976191D02*
X12735476Y16880953D01*
X12735476Y16880953D02*
X12830714Y16785715D01*
X12830714Y16785715D02*
X12878333Y16690477D01*
%TO.C,R11*%
X74685700Y120065224D02*
X74209509Y119731891D01*
X74685700Y119493796D02*
X73685700Y119493796D01*
X73685700Y119493796D02*
X73685700Y119874748D01*
X73685700Y119874748D02*
X73733319Y119969986D01*
X73733319Y119969986D02*
X73780938Y120017605D01*
X73780938Y120017605D02*
X73876176Y120065224D01*
X73876176Y120065224D02*
X74019033Y120065224D01*
X74019033Y120065224D02*
X74114271Y120017605D01*
X74114271Y120017605D02*
X74161890Y119969986D01*
X74161890Y119969986D02*
X74209509Y119874748D01*
X74209509Y119874748D02*
X74209509Y119493796D01*
X74685700Y121017605D02*
X74685700Y120446177D01*
X74685700Y120731891D02*
X73685700Y120731891D01*
X73685700Y120731891D02*
X73828557Y120636653D01*
X73828557Y120636653D02*
X73923795Y120541415D01*
X73923795Y120541415D02*
X73971414Y120446177D01*
X74685700Y121969986D02*
X74685700Y121398558D01*
X74685700Y121684272D02*
X73685700Y121684272D01*
X73685700Y121684272D02*
X73828557Y121589034D01*
X73828557Y121589034D02*
X73923795Y121493796D01*
X73923795Y121493796D02*
X73971414Y121398558D01*
%TO.C,C5*%
X67620461Y104291415D02*
X67668081Y104243796D01*
X67668081Y104243796D02*
X67715700Y104100939D01*
X67715700Y104100939D02*
X67715700Y104005701D01*
X67715700Y104005701D02*
X67668081Y103862844D01*
X67668081Y103862844D02*
X67572842Y103767606D01*
X67572842Y103767606D02*
X67477604Y103719987D01*
X67477604Y103719987D02*
X67287128Y103672368D01*
X67287128Y103672368D02*
X67144271Y103672368D01*
X67144271Y103672368D02*
X66953795Y103719987D01*
X66953795Y103719987D02*
X66858557Y103767606D01*
X66858557Y103767606D02*
X66763319Y103862844D01*
X66763319Y103862844D02*
X66715700Y104005701D01*
X66715700Y104005701D02*
X66715700Y104100939D01*
X66715700Y104100939D02*
X66763319Y104243796D01*
X66763319Y104243796D02*
X66810938Y104291415D01*
X66715700Y105196177D02*
X66715700Y104719987D01*
X66715700Y104719987D02*
X67191890Y104672368D01*
X67191890Y104672368D02*
X67144271Y104719987D01*
X67144271Y104719987D02*
X67096652Y104815225D01*
X67096652Y104815225D02*
X67096652Y105053320D01*
X67096652Y105053320D02*
X67144271Y105148558D01*
X67144271Y105148558D02*
X67191890Y105196177D01*
X67191890Y105196177D02*
X67287128Y105243796D01*
X67287128Y105243796D02*
X67525223Y105243796D01*
X67525223Y105243796D02*
X67620461Y105196177D01*
X67620461Y105196177D02*
X67668081Y105148558D01*
X67668081Y105148558D02*
X67715700Y105053320D01*
X67715700Y105053320D02*
X67715700Y104815225D01*
X67715700Y104815225D02*
X67668081Y104719987D01*
X67668081Y104719987D02*
X67620461Y104672368D01*
%TO.C,R9*%
X71283242Y99797334D02*
X70807051Y99464001D01*
X71283242Y99225906D02*
X70283242Y99225906D01*
X70283242Y99225906D02*
X70283242Y99606858D01*
X70283242Y99606858D02*
X70330861Y99702096D01*
X70330861Y99702096D02*
X70378480Y99749715D01*
X70378480Y99749715D02*
X70473718Y99797334D01*
X70473718Y99797334D02*
X70616575Y99797334D01*
X70616575Y99797334D02*
X70711813Y99749715D01*
X70711813Y99749715D02*
X70759432Y99702096D01*
X70759432Y99702096D02*
X70807051Y99606858D01*
X70807051Y99606858D02*
X70807051Y99225906D01*
X71283242Y100273525D02*
X71283242Y100464001D01*
X71283242Y100464001D02*
X71235623Y100559239D01*
X71235623Y100559239D02*
X71188003Y100606858D01*
X71188003Y100606858D02*
X71045146Y100702096D01*
X71045146Y100702096D02*
X70854670Y100749715D01*
X70854670Y100749715D02*
X70473718Y100749715D01*
X70473718Y100749715D02*
X70378480Y100702096D01*
X70378480Y100702096D02*
X70330861Y100654477D01*
X70330861Y100654477D02*
X70283242Y100559239D01*
X70283242Y100559239D02*
X70283242Y100368763D01*
X70283242Y100368763D02*
X70330861Y100273525D01*
X70330861Y100273525D02*
X70378480Y100225906D01*
X70378480Y100225906D02*
X70473718Y100178287D01*
X70473718Y100178287D02*
X70711813Y100178287D01*
X70711813Y100178287D02*
X70807051Y100225906D01*
X70807051Y100225906D02*
X70854670Y100273525D01*
X70854670Y100273525D02*
X70902289Y100368763D01*
X70902289Y100368763D02*
X70902289Y100559239D01*
X70902289Y100559239D02*
X70854670Y100654477D01*
X70854670Y100654477D02*
X70807051Y100702096D01*
X70807051Y100702096D02*
X70711813Y100749715D01*
%TO.C,H3*%
X6148095Y7737381D02*
X6148095Y8737381D01*
X6148095Y8261191D02*
X6719523Y8261191D01*
X6719523Y7737381D02*
X6719523Y8737381D01*
X7100476Y8737381D02*
X7719523Y8737381D01*
X7719523Y8737381D02*
X7386190Y8356429D01*
X7386190Y8356429D02*
X7529047Y8356429D01*
X7529047Y8356429D02*
X7624285Y8308810D01*
X7624285Y8308810D02*
X7671904Y8261191D01*
X7671904Y8261191D02*
X7719523Y8165953D01*
X7719523Y8165953D02*
X7719523Y7927858D01*
X7719523Y7927858D02*
X7671904Y7832620D01*
X7671904Y7832620D02*
X7624285Y7785000D01*
X7624285Y7785000D02*
X7529047Y7737381D01*
X7529047Y7737381D02*
X7243333Y7737381D01*
X7243333Y7737381D02*
X7148095Y7785000D01*
X7148095Y7785000D02*
X7100476Y7832620D01*
%TO.C,H1*%
X78148095Y128737381D02*
X78148095Y129737381D01*
X78148095Y129261191D02*
X78719523Y129261191D01*
X78719523Y128737381D02*
X78719523Y129737381D01*
X79719523Y128737381D02*
X79148095Y128737381D01*
X79433809Y128737381D02*
X79433809Y129737381D01*
X79433809Y129737381D02*
X79338571Y129594524D01*
X79338571Y129594524D02*
X79243333Y129499286D01*
X79243333Y129499286D02*
X79148095Y129451667D01*
%TO.C,D9*%
X12502619Y89491906D02*
X11502619Y89491906D01*
X11502619Y89491906D02*
X11502619Y89730001D01*
X11502619Y89730001D02*
X11550238Y89872858D01*
X11550238Y89872858D02*
X11645476Y89968096D01*
X11645476Y89968096D02*
X11740714Y90015715D01*
X11740714Y90015715D02*
X11931190Y90063334D01*
X11931190Y90063334D02*
X12074047Y90063334D01*
X12074047Y90063334D02*
X12264523Y90015715D01*
X12264523Y90015715D02*
X12359761Y89968096D01*
X12359761Y89968096D02*
X12455000Y89872858D01*
X12455000Y89872858D02*
X12502619Y89730001D01*
X12502619Y89730001D02*
X12502619Y89491906D01*
X12502619Y90539525D02*
X12502619Y90730001D01*
X12502619Y90730001D02*
X12455000Y90825239D01*
X12455000Y90825239D02*
X12407380Y90872858D01*
X12407380Y90872858D02*
X12264523Y90968096D01*
X12264523Y90968096D02*
X12074047Y91015715D01*
X12074047Y91015715D02*
X11693095Y91015715D01*
X11693095Y91015715D02*
X11597857Y90968096D01*
X11597857Y90968096D02*
X11550238Y90920477D01*
X11550238Y90920477D02*
X11502619Y90825239D01*
X11502619Y90825239D02*
X11502619Y90634763D01*
X11502619Y90634763D02*
X11550238Y90539525D01*
X11550238Y90539525D02*
X11597857Y90491906D01*
X11597857Y90491906D02*
X11693095Y90444287D01*
X11693095Y90444287D02*
X11931190Y90444287D01*
X11931190Y90444287D02*
X12026428Y90491906D01*
X12026428Y90491906D02*
X12074047Y90539525D01*
X12074047Y90539525D02*
X12121666Y90634763D01*
X12121666Y90634763D02*
X12121666Y90825239D01*
X12121666Y90825239D02*
X12074047Y90920477D01*
X12074047Y90920477D02*
X12026428Y90968096D01*
X12026428Y90968096D02*
X11931190Y91015715D01*
%TO.C,D1*%
X70295593Y72090423D02*
X70295593Y73090423D01*
X70295593Y73090423D02*
X70533688Y73090423D01*
X70533688Y73090423D02*
X70676545Y73042804D01*
X70676545Y73042804D02*
X70771783Y72947566D01*
X70771783Y72947566D02*
X70819402Y72852328D01*
X70819402Y72852328D02*
X70867021Y72661852D01*
X70867021Y72661852D02*
X70867021Y72518995D01*
X70867021Y72518995D02*
X70819402Y72328519D01*
X70819402Y72328519D02*
X70771783Y72233281D01*
X70771783Y72233281D02*
X70676545Y72138042D01*
X70676545Y72138042D02*
X70533688Y72090423D01*
X70533688Y72090423D02*
X70295593Y72090423D01*
X71819402Y72090423D02*
X71247974Y72090423D01*
X71533688Y72090423D02*
X71533688Y73090423D01*
X71533688Y73090423D02*
X71438450Y72947566D01*
X71438450Y72947566D02*
X71343212Y72852328D01*
X71343212Y72852328D02*
X71247974Y72804709D01*
%TO.C,R5*%
X57192619Y24073334D02*
X56716428Y23740001D01*
X57192619Y23501906D02*
X56192619Y23501906D01*
X56192619Y23501906D02*
X56192619Y23882858D01*
X56192619Y23882858D02*
X56240238Y23978096D01*
X56240238Y23978096D02*
X56287857Y24025715D01*
X56287857Y24025715D02*
X56383095Y24073334D01*
X56383095Y24073334D02*
X56525952Y24073334D01*
X56525952Y24073334D02*
X56621190Y24025715D01*
X56621190Y24025715D02*
X56668809Y23978096D01*
X56668809Y23978096D02*
X56716428Y23882858D01*
X56716428Y23882858D02*
X56716428Y23501906D01*
X56192619Y24978096D02*
X56192619Y24501906D01*
X56192619Y24501906D02*
X56668809Y24454287D01*
X56668809Y24454287D02*
X56621190Y24501906D01*
X56621190Y24501906D02*
X56573571Y24597144D01*
X56573571Y24597144D02*
X56573571Y24835239D01*
X56573571Y24835239D02*
X56621190Y24930477D01*
X56621190Y24930477D02*
X56668809Y24978096D01*
X56668809Y24978096D02*
X56764047Y25025715D01*
X56764047Y25025715D02*
X57002142Y25025715D01*
X57002142Y25025715D02*
X57097380Y24978096D01*
X57097380Y24978096D02*
X57145000Y24930477D01*
X57145000Y24930477D02*
X57192619Y24835239D01*
X57192619Y24835239D02*
X57192619Y24597144D01*
X57192619Y24597144D02*
X57145000Y24501906D01*
X57145000Y24501906D02*
X57097380Y24454287D01*
%TO.C,R23*%
X22135700Y118065224D02*
X21659509Y117731891D01*
X22135700Y117493796D02*
X21135700Y117493796D01*
X21135700Y117493796D02*
X21135700Y117874748D01*
X21135700Y117874748D02*
X21183319Y117969986D01*
X21183319Y117969986D02*
X21230938Y118017605D01*
X21230938Y118017605D02*
X21326176Y118065224D01*
X21326176Y118065224D02*
X21469033Y118065224D01*
X21469033Y118065224D02*
X21564271Y118017605D01*
X21564271Y118017605D02*
X21611890Y117969986D01*
X21611890Y117969986D02*
X21659509Y117874748D01*
X21659509Y117874748D02*
X21659509Y117493796D01*
X21230938Y118446177D02*
X21183319Y118493796D01*
X21183319Y118493796D02*
X21135700Y118589034D01*
X21135700Y118589034D02*
X21135700Y118827129D01*
X21135700Y118827129D02*
X21183319Y118922367D01*
X21183319Y118922367D02*
X21230938Y118969986D01*
X21230938Y118969986D02*
X21326176Y119017605D01*
X21326176Y119017605D02*
X21421414Y119017605D01*
X21421414Y119017605D02*
X21564271Y118969986D01*
X21564271Y118969986D02*
X22135700Y118398558D01*
X22135700Y118398558D02*
X22135700Y119017605D01*
X21135700Y119350939D02*
X21135700Y119969986D01*
X21135700Y119969986D02*
X21516652Y119636653D01*
X21516652Y119636653D02*
X21516652Y119779510D01*
X21516652Y119779510D02*
X21564271Y119874748D01*
X21564271Y119874748D02*
X21611890Y119922367D01*
X21611890Y119922367D02*
X21707128Y119969986D01*
X21707128Y119969986D02*
X21945223Y119969986D01*
X21945223Y119969986D02*
X22040461Y119922367D01*
X22040461Y119922367D02*
X22088081Y119874748D01*
X22088081Y119874748D02*
X22135700Y119779510D01*
X22135700Y119779510D02*
X22135700Y119493796D01*
X22135700Y119493796D02*
X22088081Y119398558D01*
X22088081Y119398558D02*
X22040461Y119350939D01*
%TO.C,R6*%
X63882619Y27833334D02*
X63406428Y27500001D01*
X63882619Y27261906D02*
X62882619Y27261906D01*
X62882619Y27261906D02*
X62882619Y27642858D01*
X62882619Y27642858D02*
X62930238Y27738096D01*
X62930238Y27738096D02*
X62977857Y27785715D01*
X62977857Y27785715D02*
X63073095Y27833334D01*
X63073095Y27833334D02*
X63215952Y27833334D01*
X63215952Y27833334D02*
X63311190Y27785715D01*
X63311190Y27785715D02*
X63358809Y27738096D01*
X63358809Y27738096D02*
X63406428Y27642858D01*
X63406428Y27642858D02*
X63406428Y27261906D01*
X62882619Y28690477D02*
X62882619Y28500001D01*
X62882619Y28500001D02*
X62930238Y28404763D01*
X62930238Y28404763D02*
X62977857Y28357144D01*
X62977857Y28357144D02*
X63120714Y28261906D01*
X63120714Y28261906D02*
X63311190Y28214287D01*
X63311190Y28214287D02*
X63692142Y28214287D01*
X63692142Y28214287D02*
X63787380Y28261906D01*
X63787380Y28261906D02*
X63835000Y28309525D01*
X63835000Y28309525D02*
X63882619Y28404763D01*
X63882619Y28404763D02*
X63882619Y28595239D01*
X63882619Y28595239D02*
X63835000Y28690477D01*
X63835000Y28690477D02*
X63787380Y28738096D01*
X63787380Y28738096D02*
X63692142Y28785715D01*
X63692142Y28785715D02*
X63454047Y28785715D01*
X63454047Y28785715D02*
X63358809Y28738096D01*
X63358809Y28738096D02*
X63311190Y28690477D01*
X63311190Y28690477D02*
X63263571Y28595239D01*
X63263571Y28595239D02*
X63263571Y28404763D01*
X63263571Y28404763D02*
X63311190Y28309525D01*
X63311190Y28309525D02*
X63358809Y28261906D01*
X63358809Y28261906D02*
X63454047Y28214287D01*
%TO.C,SW8*%
X46538081Y120349749D02*
X46585700Y120492606D01*
X46585700Y120492606D02*
X46585700Y120730701D01*
X46585700Y120730701D02*
X46538081Y120825939D01*
X46538081Y120825939D02*
X46490461Y120873558D01*
X46490461Y120873558D02*
X46395223Y120921177D01*
X46395223Y120921177D02*
X46299985Y120921177D01*
X46299985Y120921177D02*
X46204747Y120873558D01*
X46204747Y120873558D02*
X46157128Y120825939D01*
X46157128Y120825939D02*
X46109509Y120730701D01*
X46109509Y120730701D02*
X46061890Y120540225D01*
X46061890Y120540225D02*
X46014271Y120444987D01*
X46014271Y120444987D02*
X45966652Y120397368D01*
X45966652Y120397368D02*
X45871414Y120349749D01*
X45871414Y120349749D02*
X45776176Y120349749D01*
X45776176Y120349749D02*
X45680938Y120397368D01*
X45680938Y120397368D02*
X45633319Y120444987D01*
X45633319Y120444987D02*
X45585700Y120540225D01*
X45585700Y120540225D02*
X45585700Y120778320D01*
X45585700Y120778320D02*
X45633319Y120921177D01*
X45585700Y121254511D02*
X46585700Y121492606D01*
X46585700Y121492606D02*
X45871414Y121683082D01*
X45871414Y121683082D02*
X46585700Y121873558D01*
X46585700Y121873558D02*
X45585700Y122111653D01*
X46014271Y122635463D02*
X45966652Y122540225D01*
X45966652Y122540225D02*
X45919033Y122492606D01*
X45919033Y122492606D02*
X45823795Y122444987D01*
X45823795Y122444987D02*
X45776176Y122444987D01*
X45776176Y122444987D02*
X45680938Y122492606D01*
X45680938Y122492606D02*
X45633319Y122540225D01*
X45633319Y122540225D02*
X45585700Y122635463D01*
X45585700Y122635463D02*
X45585700Y122825939D01*
X45585700Y122825939D02*
X45633319Y122921177D01*
X45633319Y122921177D02*
X45680938Y122968796D01*
X45680938Y122968796D02*
X45776176Y123016415D01*
X45776176Y123016415D02*
X45823795Y123016415D01*
X45823795Y123016415D02*
X45919033Y122968796D01*
X45919033Y122968796D02*
X45966652Y122921177D01*
X45966652Y122921177D02*
X46014271Y122825939D01*
X46014271Y122825939D02*
X46014271Y122635463D01*
X46014271Y122635463D02*
X46061890Y122540225D01*
X46061890Y122540225D02*
X46109509Y122492606D01*
X46109509Y122492606D02*
X46204747Y122444987D01*
X46204747Y122444987D02*
X46395223Y122444987D01*
X46395223Y122444987D02*
X46490461Y122492606D01*
X46490461Y122492606D02*
X46538081Y122540225D01*
X46538081Y122540225D02*
X46585700Y122635463D01*
X46585700Y122635463D02*
X46585700Y122825939D01*
X46585700Y122825939D02*
X46538081Y122921177D01*
X46538081Y122921177D02*
X46490461Y122968796D01*
X46490461Y122968796D02*
X46395223Y123016415D01*
X46395223Y123016415D02*
X46204747Y123016415D01*
X46204747Y123016415D02*
X46109509Y122968796D01*
X46109509Y122968796D02*
X46061890Y122921177D01*
X46061890Y122921177D02*
X46014271Y122825939D01*
%TO.C,C7*%
X55720461Y96291415D02*
X55768081Y96243796D01*
X55768081Y96243796D02*
X55815700Y96100939D01*
X55815700Y96100939D02*
X55815700Y96005701D01*
X55815700Y96005701D02*
X55768081Y95862844D01*
X55768081Y95862844D02*
X55672842Y95767606D01*
X55672842Y95767606D02*
X55577604Y95719987D01*
X55577604Y95719987D02*
X55387128Y95672368D01*
X55387128Y95672368D02*
X55244271Y95672368D01*
X55244271Y95672368D02*
X55053795Y95719987D01*
X55053795Y95719987D02*
X54958557Y95767606D01*
X54958557Y95767606D02*
X54863319Y95862844D01*
X54863319Y95862844D02*
X54815700Y96005701D01*
X54815700Y96005701D02*
X54815700Y96100939D01*
X54815700Y96100939D02*
X54863319Y96243796D01*
X54863319Y96243796D02*
X54910938Y96291415D01*
X54815700Y96624749D02*
X54815700Y97291415D01*
X54815700Y97291415D02*
X55815700Y96862844D01*
%TO.C,SW6*%
X53995623Y118470668D02*
X54043242Y118613525D01*
X54043242Y118613525D02*
X54043242Y118851620D01*
X54043242Y118851620D02*
X53995623Y118946858D01*
X53995623Y118946858D02*
X53948003Y118994477D01*
X53948003Y118994477D02*
X53852765Y119042096D01*
X53852765Y119042096D02*
X53757527Y119042096D01*
X53757527Y119042096D02*
X53662289Y118994477D01*
X53662289Y118994477D02*
X53614670Y118946858D01*
X53614670Y118946858D02*
X53567051Y118851620D01*
X53567051Y118851620D02*
X53519432Y118661144D01*
X53519432Y118661144D02*
X53471813Y118565906D01*
X53471813Y118565906D02*
X53424194Y118518287D01*
X53424194Y118518287D02*
X53328956Y118470668D01*
X53328956Y118470668D02*
X53233718Y118470668D01*
X53233718Y118470668D02*
X53138480Y118518287D01*
X53138480Y118518287D02*
X53090861Y118565906D01*
X53090861Y118565906D02*
X53043242Y118661144D01*
X53043242Y118661144D02*
X53043242Y118899239D01*
X53043242Y118899239D02*
X53090861Y119042096D01*
X53043242Y119375430D02*
X54043242Y119613525D01*
X54043242Y119613525D02*
X53328956Y119804001D01*
X53328956Y119804001D02*
X54043242Y119994477D01*
X54043242Y119994477D02*
X53043242Y120232572D01*
X53043242Y121042096D02*
X53043242Y120851620D01*
X53043242Y120851620D02*
X53090861Y120756382D01*
X53090861Y120756382D02*
X53138480Y120708763D01*
X53138480Y120708763D02*
X53281337Y120613525D01*
X53281337Y120613525D02*
X53471813Y120565906D01*
X53471813Y120565906D02*
X53852765Y120565906D01*
X53852765Y120565906D02*
X53948003Y120613525D01*
X53948003Y120613525D02*
X53995623Y120661144D01*
X53995623Y120661144D02*
X54043242Y120756382D01*
X54043242Y120756382D02*
X54043242Y120946858D01*
X54043242Y120946858D02*
X53995623Y121042096D01*
X53995623Y121042096D02*
X53948003Y121089715D01*
X53948003Y121089715D02*
X53852765Y121137334D01*
X53852765Y121137334D02*
X53614670Y121137334D01*
X53614670Y121137334D02*
X53519432Y121089715D01*
X53519432Y121089715D02*
X53471813Y121042096D01*
X53471813Y121042096D02*
X53424194Y120946858D01*
X53424194Y120946858D02*
X53424194Y120756382D01*
X53424194Y120756382D02*
X53471813Y120661144D01*
X53471813Y120661144D02*
X53519432Y120613525D01*
X53519432Y120613525D02*
X53614670Y120565906D01*
%TO.C,D5*%
X13002619Y6531906D02*
X12002619Y6531906D01*
X12002619Y6531906D02*
X12002619Y6770001D01*
X12002619Y6770001D02*
X12050238Y6912858D01*
X12050238Y6912858D02*
X12145476Y7008096D01*
X12145476Y7008096D02*
X12240714Y7055715D01*
X12240714Y7055715D02*
X12431190Y7103334D01*
X12431190Y7103334D02*
X12574047Y7103334D01*
X12574047Y7103334D02*
X12764523Y7055715D01*
X12764523Y7055715D02*
X12859761Y7008096D01*
X12859761Y7008096D02*
X12955000Y6912858D01*
X12955000Y6912858D02*
X13002619Y6770001D01*
X13002619Y6770001D02*
X13002619Y6531906D01*
X12002619Y8008096D02*
X12002619Y7531906D01*
X12002619Y7531906D02*
X12478809Y7484287D01*
X12478809Y7484287D02*
X12431190Y7531906D01*
X12431190Y7531906D02*
X12383571Y7627144D01*
X12383571Y7627144D02*
X12383571Y7865239D01*
X12383571Y7865239D02*
X12431190Y7960477D01*
X12431190Y7960477D02*
X12478809Y8008096D01*
X12478809Y8008096D02*
X12574047Y8055715D01*
X12574047Y8055715D02*
X12812142Y8055715D01*
X12812142Y8055715D02*
X12907380Y8008096D01*
X12907380Y8008096D02*
X12955000Y7960477D01*
X12955000Y7960477D02*
X13002619Y7865239D01*
X13002619Y7865239D02*
X13002619Y7627144D01*
X13002619Y7627144D02*
X12955000Y7531906D01*
X12955000Y7531906D02*
X12907380Y7484287D01*
%TO.C,SW3*%
X48755000Y8746668D02*
X48802619Y8889525D01*
X48802619Y8889525D02*
X48802619Y9127620D01*
X48802619Y9127620D02*
X48755000Y9222858D01*
X48755000Y9222858D02*
X48707380Y9270477D01*
X48707380Y9270477D02*
X48612142Y9318096D01*
X48612142Y9318096D02*
X48516904Y9318096D01*
X48516904Y9318096D02*
X48421666Y9270477D01*
X48421666Y9270477D02*
X48374047Y9222858D01*
X48374047Y9222858D02*
X48326428Y9127620D01*
X48326428Y9127620D02*
X48278809Y8937144D01*
X48278809Y8937144D02*
X48231190Y8841906D01*
X48231190Y8841906D02*
X48183571Y8794287D01*
X48183571Y8794287D02*
X48088333Y8746668D01*
X48088333Y8746668D02*
X47993095Y8746668D01*
X47993095Y8746668D02*
X47897857Y8794287D01*
X47897857Y8794287D02*
X47850238Y8841906D01*
X47850238Y8841906D02*
X47802619Y8937144D01*
X47802619Y8937144D02*
X47802619Y9175239D01*
X47802619Y9175239D02*
X47850238Y9318096D01*
X47802619Y9651430D02*
X48802619Y9889525D01*
X48802619Y9889525D02*
X48088333Y10080001D01*
X48088333Y10080001D02*
X48802619Y10270477D01*
X48802619Y10270477D02*
X47802619Y10508572D01*
X47802619Y10794287D02*
X47802619Y11413334D01*
X47802619Y11413334D02*
X48183571Y11080001D01*
X48183571Y11080001D02*
X48183571Y11222858D01*
X48183571Y11222858D02*
X48231190Y11318096D01*
X48231190Y11318096D02*
X48278809Y11365715D01*
X48278809Y11365715D02*
X48374047Y11413334D01*
X48374047Y11413334D02*
X48612142Y11413334D01*
X48612142Y11413334D02*
X48707380Y11365715D01*
X48707380Y11365715D02*
X48755000Y11318096D01*
X48755000Y11318096D02*
X48802619Y11222858D01*
X48802619Y11222858D02*
X48802619Y10937144D01*
X48802619Y10937144D02*
X48755000Y10841906D01*
X48755000Y10841906D02*
X48707380Y10794287D01*
%TO.C,R15*%
X31685700Y117065224D02*
X31209509Y116731891D01*
X31685700Y116493796D02*
X30685700Y116493796D01*
X30685700Y116493796D02*
X30685700Y116874748D01*
X30685700Y116874748D02*
X30733319Y116969986D01*
X30733319Y116969986D02*
X30780938Y117017605D01*
X30780938Y117017605D02*
X30876176Y117065224D01*
X30876176Y117065224D02*
X31019033Y117065224D01*
X31019033Y117065224D02*
X31114271Y117017605D01*
X31114271Y117017605D02*
X31161890Y116969986D01*
X31161890Y116969986D02*
X31209509Y116874748D01*
X31209509Y116874748D02*
X31209509Y116493796D01*
X31685700Y118017605D02*
X31685700Y117446177D01*
X31685700Y117731891D02*
X30685700Y117731891D01*
X30685700Y117731891D02*
X30828557Y117636653D01*
X30828557Y117636653D02*
X30923795Y117541415D01*
X30923795Y117541415D02*
X30971414Y117446177D01*
X30685700Y118922367D02*
X30685700Y118446177D01*
X30685700Y118446177D02*
X31161890Y118398558D01*
X31161890Y118398558D02*
X31114271Y118446177D01*
X31114271Y118446177D02*
X31066652Y118541415D01*
X31066652Y118541415D02*
X31066652Y118779510D01*
X31066652Y118779510D02*
X31114271Y118874748D01*
X31114271Y118874748D02*
X31161890Y118922367D01*
X31161890Y118922367D02*
X31257128Y118969986D01*
X31257128Y118969986D02*
X31495223Y118969986D01*
X31495223Y118969986D02*
X31590461Y118922367D01*
X31590461Y118922367D02*
X31638081Y118874748D01*
X31638081Y118874748D02*
X31685700Y118779510D01*
X31685700Y118779510D02*
X31685700Y118541415D01*
X31685700Y118541415D02*
X31638081Y118446177D01*
X31638081Y118446177D02*
X31590461Y118398558D01*
%TO.C,SW1*%
X34755000Y24746668D02*
X34802619Y24889525D01*
X34802619Y24889525D02*
X34802619Y25127620D01*
X34802619Y25127620D02*
X34755000Y25222858D01*
X34755000Y25222858D02*
X34707380Y25270477D01*
X34707380Y25270477D02*
X34612142Y25318096D01*
X34612142Y25318096D02*
X34516904Y25318096D01*
X34516904Y25318096D02*
X34421666Y25270477D01*
X34421666Y25270477D02*
X34374047Y25222858D01*
X34374047Y25222858D02*
X34326428Y25127620D01*
X34326428Y25127620D02*
X34278809Y24937144D01*
X34278809Y24937144D02*
X34231190Y24841906D01*
X34231190Y24841906D02*
X34183571Y24794287D01*
X34183571Y24794287D02*
X34088333Y24746668D01*
X34088333Y24746668D02*
X33993095Y24746668D01*
X33993095Y24746668D02*
X33897857Y24794287D01*
X33897857Y24794287D02*
X33850238Y24841906D01*
X33850238Y24841906D02*
X33802619Y24937144D01*
X33802619Y24937144D02*
X33802619Y25175239D01*
X33802619Y25175239D02*
X33850238Y25318096D01*
X33802619Y25651430D02*
X34802619Y25889525D01*
X34802619Y25889525D02*
X34088333Y26080001D01*
X34088333Y26080001D02*
X34802619Y26270477D01*
X34802619Y26270477D02*
X33802619Y26508572D01*
X34802619Y27413334D02*
X34802619Y26841906D01*
X34802619Y27127620D02*
X33802619Y27127620D01*
X33802619Y27127620D02*
X33945476Y27032382D01*
X33945476Y27032382D02*
X34040714Y26937144D01*
X34040714Y26937144D02*
X34088333Y26841906D01*
%TO.C,D4*%
X18002619Y6531906D02*
X17002619Y6531906D01*
X17002619Y6531906D02*
X17002619Y6770001D01*
X17002619Y6770001D02*
X17050238Y6912858D01*
X17050238Y6912858D02*
X17145476Y7008096D01*
X17145476Y7008096D02*
X17240714Y7055715D01*
X17240714Y7055715D02*
X17431190Y7103334D01*
X17431190Y7103334D02*
X17574047Y7103334D01*
X17574047Y7103334D02*
X17764523Y7055715D01*
X17764523Y7055715D02*
X17859761Y7008096D01*
X17859761Y7008096D02*
X17955000Y6912858D01*
X17955000Y6912858D02*
X18002619Y6770001D01*
X18002619Y6770001D02*
X18002619Y6531906D01*
X17335952Y7960477D02*
X18002619Y7960477D01*
X16955000Y7722382D02*
X17669285Y7484287D01*
X17669285Y7484287D02*
X17669285Y8103334D01*
%TO.C,R10*%
X43845700Y93065224D02*
X43369509Y92731891D01*
X43845700Y92493796D02*
X42845700Y92493796D01*
X42845700Y92493796D02*
X42845700Y92874748D01*
X42845700Y92874748D02*
X42893319Y92969986D01*
X42893319Y92969986D02*
X42940938Y93017605D01*
X42940938Y93017605D02*
X43036176Y93065224D01*
X43036176Y93065224D02*
X43179033Y93065224D01*
X43179033Y93065224D02*
X43274271Y93017605D01*
X43274271Y93017605D02*
X43321890Y92969986D01*
X43321890Y92969986D02*
X43369509Y92874748D01*
X43369509Y92874748D02*
X43369509Y92493796D01*
X43845700Y94017605D02*
X43845700Y93446177D01*
X43845700Y93731891D02*
X42845700Y93731891D01*
X42845700Y93731891D02*
X42988557Y93636653D01*
X42988557Y93636653D02*
X43083795Y93541415D01*
X43083795Y93541415D02*
X43131414Y93446177D01*
X42845700Y94636653D02*
X42845700Y94731891D01*
X42845700Y94731891D02*
X42893319Y94827129D01*
X42893319Y94827129D02*
X42940938Y94874748D01*
X42940938Y94874748D02*
X43036176Y94922367D01*
X43036176Y94922367D02*
X43226652Y94969986D01*
X43226652Y94969986D02*
X43464747Y94969986D01*
X43464747Y94969986D02*
X43655223Y94922367D01*
X43655223Y94922367D02*
X43750461Y94874748D01*
X43750461Y94874748D02*
X43798081Y94827129D01*
X43798081Y94827129D02*
X43845700Y94731891D01*
X43845700Y94731891D02*
X43845700Y94636653D01*
X43845700Y94636653D02*
X43798081Y94541415D01*
X43798081Y94541415D02*
X43750461Y94493796D01*
X43750461Y94493796D02*
X43655223Y94446177D01*
X43655223Y94446177D02*
X43464747Y94398558D01*
X43464747Y94398558D02*
X43226652Y94398558D01*
X43226652Y94398558D02*
X43036176Y94446177D01*
X43036176Y94446177D02*
X42940938Y94493796D01*
X42940938Y94493796D02*
X42893319Y94541415D01*
X42893319Y94541415D02*
X42845700Y94636653D01*
%TO.C,R2*%
X44271320Y45593334D02*
X43795129Y45260001D01*
X44271320Y45021906D02*
X43271320Y45021906D01*
X43271320Y45021906D02*
X43271320Y45402858D01*
X43271320Y45402858D02*
X43318939Y45498096D01*
X43318939Y45498096D02*
X43366558Y45545715D01*
X43366558Y45545715D02*
X43461796Y45593334D01*
X43461796Y45593334D02*
X43604653Y45593334D01*
X43604653Y45593334D02*
X43699891Y45545715D01*
X43699891Y45545715D02*
X43747510Y45498096D01*
X43747510Y45498096D02*
X43795129Y45402858D01*
X43795129Y45402858D02*
X43795129Y45021906D01*
X43366558Y45974287D02*
X43318939Y46021906D01*
X43318939Y46021906D02*
X43271320Y46117144D01*
X43271320Y46117144D02*
X43271320Y46355239D01*
X43271320Y46355239D02*
X43318939Y46450477D01*
X43318939Y46450477D02*
X43366558Y46498096D01*
X43366558Y46498096D02*
X43461796Y46545715D01*
X43461796Y46545715D02*
X43557034Y46545715D01*
X43557034Y46545715D02*
X43699891Y46498096D01*
X43699891Y46498096D02*
X44271320Y45926668D01*
X44271320Y45926668D02*
X44271320Y46545715D01*
%TO.C,D3*%
X70294986Y62077381D02*
X70294986Y63077381D01*
X70294986Y63077381D02*
X70533081Y63077381D01*
X70533081Y63077381D02*
X70675938Y63029762D01*
X70675938Y63029762D02*
X70771176Y62934524D01*
X70771176Y62934524D02*
X70818795Y62839286D01*
X70818795Y62839286D02*
X70866414Y62648810D01*
X70866414Y62648810D02*
X70866414Y62505953D01*
X70866414Y62505953D02*
X70818795Y62315477D01*
X70818795Y62315477D02*
X70771176Y62220239D01*
X70771176Y62220239D02*
X70675938Y62125000D01*
X70675938Y62125000D02*
X70533081Y62077381D01*
X70533081Y62077381D02*
X70294986Y62077381D01*
X71199748Y63077381D02*
X71818795Y63077381D01*
X71818795Y63077381D02*
X71485462Y62696429D01*
X71485462Y62696429D02*
X71628319Y62696429D01*
X71628319Y62696429D02*
X71723557Y62648810D01*
X71723557Y62648810D02*
X71771176Y62601191D01*
X71771176Y62601191D02*
X71818795Y62505953D01*
X71818795Y62505953D02*
X71818795Y62267858D01*
X71818795Y62267858D02*
X71771176Y62172620D01*
X71771176Y62172620D02*
X71723557Y62125000D01*
X71723557Y62125000D02*
X71628319Y62077381D01*
X71628319Y62077381D02*
X71342605Y62077381D01*
X71342605Y62077381D02*
X71247367Y62125000D01*
X71247367Y62125000D02*
X71199748Y62172620D01*
%TO.C,R24*%
X10357142Y91667381D02*
X10023809Y92143572D01*
X9785714Y91667381D02*
X9785714Y92667381D01*
X9785714Y92667381D02*
X10166666Y92667381D01*
X10166666Y92667381D02*
X10261904Y92619762D01*
X10261904Y92619762D02*
X10309523Y92572143D01*
X10309523Y92572143D02*
X10357142Y92476905D01*
X10357142Y92476905D02*
X10357142Y92334048D01*
X10357142Y92334048D02*
X10309523Y92238810D01*
X10309523Y92238810D02*
X10261904Y92191191D01*
X10261904Y92191191D02*
X10166666Y92143572D01*
X10166666Y92143572D02*
X9785714Y92143572D01*
X10738095Y92572143D02*
X10785714Y92619762D01*
X10785714Y92619762D02*
X10880952Y92667381D01*
X10880952Y92667381D02*
X11119047Y92667381D01*
X11119047Y92667381D02*
X11214285Y92619762D01*
X11214285Y92619762D02*
X11261904Y92572143D01*
X11261904Y92572143D02*
X11309523Y92476905D01*
X11309523Y92476905D02*
X11309523Y92381667D01*
X11309523Y92381667D02*
X11261904Y92238810D01*
X11261904Y92238810D02*
X10690476Y91667381D01*
X10690476Y91667381D02*
X11309523Y91667381D01*
X12166666Y92334048D02*
X12166666Y91667381D01*
X11928571Y92715000D02*
X11690476Y92000715D01*
X11690476Y92000715D02*
X12309523Y92000715D01*
%TO.C,SW5*%
X53995623Y98214749D02*
X54043242Y98357606D01*
X54043242Y98357606D02*
X54043242Y98595701D01*
X54043242Y98595701D02*
X53995623Y98690939D01*
X53995623Y98690939D02*
X53948003Y98738558D01*
X53948003Y98738558D02*
X53852765Y98786177D01*
X53852765Y98786177D02*
X53757527Y98786177D01*
X53757527Y98786177D02*
X53662289Y98738558D01*
X53662289Y98738558D02*
X53614670Y98690939D01*
X53614670Y98690939D02*
X53567051Y98595701D01*
X53567051Y98595701D02*
X53519432Y98405225D01*
X53519432Y98405225D02*
X53471813Y98309987D01*
X53471813Y98309987D02*
X53424194Y98262368D01*
X53424194Y98262368D02*
X53328956Y98214749D01*
X53328956Y98214749D02*
X53233718Y98214749D01*
X53233718Y98214749D02*
X53138480Y98262368D01*
X53138480Y98262368D02*
X53090861Y98309987D01*
X53090861Y98309987D02*
X53043242Y98405225D01*
X53043242Y98405225D02*
X53043242Y98643320D01*
X53043242Y98643320D02*
X53090861Y98786177D01*
X53043242Y99119511D02*
X54043242Y99357606D01*
X54043242Y99357606D02*
X53328956Y99548082D01*
X53328956Y99548082D02*
X54043242Y99738558D01*
X54043242Y99738558D02*
X53043242Y99976653D01*
X53043242Y100833796D02*
X53043242Y100357606D01*
X53043242Y100357606D02*
X53519432Y100309987D01*
X53519432Y100309987D02*
X53471813Y100357606D01*
X53471813Y100357606D02*
X53424194Y100452844D01*
X53424194Y100452844D02*
X53424194Y100690939D01*
X53424194Y100690939D02*
X53471813Y100786177D01*
X53471813Y100786177D02*
X53519432Y100833796D01*
X53519432Y100833796D02*
X53614670Y100881415D01*
X53614670Y100881415D02*
X53852765Y100881415D01*
X53852765Y100881415D02*
X53948003Y100833796D01*
X53948003Y100833796D02*
X53995623Y100786177D01*
X53995623Y100786177D02*
X54043242Y100690939D01*
X54043242Y100690939D02*
X54043242Y100452844D01*
X54043242Y100452844D02*
X53995623Y100357606D01*
X53995623Y100357606D02*
X53948003Y100309987D01*
%TO.C,C8*%
X36886414Y95290701D02*
X36838795Y95243081D01*
X36838795Y95243081D02*
X36695938Y95195462D01*
X36695938Y95195462D02*
X36600700Y95195462D01*
X36600700Y95195462D02*
X36457843Y95243081D01*
X36457843Y95243081D02*
X36362605Y95338320D01*
X36362605Y95338320D02*
X36314986Y95433558D01*
X36314986Y95433558D02*
X36267367Y95624034D01*
X36267367Y95624034D02*
X36267367Y95766891D01*
X36267367Y95766891D02*
X36314986Y95957367D01*
X36314986Y95957367D02*
X36362605Y96052605D01*
X36362605Y96052605D02*
X36457843Y96147843D01*
X36457843Y96147843D02*
X36600700Y96195462D01*
X36600700Y96195462D02*
X36695938Y96195462D01*
X36695938Y96195462D02*
X36838795Y96147843D01*
X36838795Y96147843D02*
X36886414Y96100224D01*
X37457843Y95766891D02*
X37362605Y95814510D01*
X37362605Y95814510D02*
X37314986Y95862129D01*
X37314986Y95862129D02*
X37267367Y95957367D01*
X37267367Y95957367D02*
X37267367Y96004986D01*
X37267367Y96004986D02*
X37314986Y96100224D01*
X37314986Y96100224D02*
X37362605Y96147843D01*
X37362605Y96147843D02*
X37457843Y96195462D01*
X37457843Y96195462D02*
X37648319Y96195462D01*
X37648319Y96195462D02*
X37743557Y96147843D01*
X37743557Y96147843D02*
X37791176Y96100224D01*
X37791176Y96100224D02*
X37838795Y96004986D01*
X37838795Y96004986D02*
X37838795Y95957367D01*
X37838795Y95957367D02*
X37791176Y95862129D01*
X37791176Y95862129D02*
X37743557Y95814510D01*
X37743557Y95814510D02*
X37648319Y95766891D01*
X37648319Y95766891D02*
X37457843Y95766891D01*
X37457843Y95766891D02*
X37362605Y95719272D01*
X37362605Y95719272D02*
X37314986Y95671653D01*
X37314986Y95671653D02*
X37267367Y95576415D01*
X37267367Y95576415D02*
X37267367Y95385939D01*
X37267367Y95385939D02*
X37314986Y95290701D01*
X37314986Y95290701D02*
X37362605Y95243081D01*
X37362605Y95243081D02*
X37457843Y95195462D01*
X37457843Y95195462D02*
X37648319Y95195462D01*
X37648319Y95195462D02*
X37743557Y95243081D01*
X37743557Y95243081D02*
X37791176Y95290701D01*
X37791176Y95290701D02*
X37838795Y95385939D01*
X37838795Y95385939D02*
X37838795Y95576415D01*
X37838795Y95576415D02*
X37791176Y95671653D01*
X37791176Y95671653D02*
X37743557Y95719272D01*
X37743557Y95719272D02*
X37648319Y95766891D01*
D11*
%TO.C,U3*%
X21261904Y29962620D02*
X21261904Y30772143D01*
X21261904Y30772143D02*
X21214285Y30867381D01*
X21214285Y30867381D02*
X21166666Y30915000D01*
X21166666Y30915000D02*
X21071428Y30962620D01*
X21071428Y30962620D02*
X20880952Y30962620D01*
X20880952Y30962620D02*
X20785714Y30915000D01*
X20785714Y30915000D02*
X20738095Y30867381D01*
X20738095Y30867381D02*
X20690476Y30772143D01*
X20690476Y30772143D02*
X20690476Y29962620D01*
X20309523Y29962620D02*
X19690476Y29962620D01*
X19690476Y29962620D02*
X20023809Y30343572D01*
X20023809Y30343572D02*
X19880952Y30343572D01*
X19880952Y30343572D02*
X19785714Y30391191D01*
X19785714Y30391191D02*
X19738095Y30438810D01*
X19738095Y30438810D02*
X19690476Y30534048D01*
X19690476Y30534048D02*
X19690476Y30772143D01*
X19690476Y30772143D02*
X19738095Y30867381D01*
X19738095Y30867381D02*
X19785714Y30915000D01*
X19785714Y30915000D02*
X19880952Y30962620D01*
X19880952Y30962620D02*
X20166666Y30962620D01*
X20166666Y30962620D02*
X20261904Y30915000D01*
X20261904Y30915000D02*
X20309523Y30867381D01*
X31261904Y22377620D02*
X31261904Y21377620D01*
X30595238Y21377620D02*
X30404762Y21377620D01*
X30404762Y21377620D02*
X30309524Y21425239D01*
X30309524Y21425239D02*
X30214286Y21520477D01*
X30214286Y21520477D02*
X30166667Y21710953D01*
X30166667Y21710953D02*
X30166667Y22044286D01*
X30166667Y22044286D02*
X30214286Y22234762D01*
X30214286Y22234762D02*
X30309524Y22330000D01*
X30309524Y22330000D02*
X30404762Y22377620D01*
X30404762Y22377620D02*
X30595238Y22377620D01*
X30595238Y22377620D02*
X30690476Y22330000D01*
X30690476Y22330000D02*
X30785714Y22234762D01*
X30785714Y22234762D02*
X30833333Y22044286D01*
X30833333Y22044286D02*
X30833333Y21710953D01*
X30833333Y21710953D02*
X30785714Y21520477D01*
X30785714Y21520477D02*
X30690476Y21425239D01*
X30690476Y21425239D02*
X30595238Y21377620D01*
X29261905Y21377620D02*
X29738095Y21377620D01*
X29738095Y21377620D02*
X29785714Y21853810D01*
X29785714Y21853810D02*
X29738095Y21806191D01*
X29738095Y21806191D02*
X29642857Y21758572D01*
X29642857Y21758572D02*
X29404762Y21758572D01*
X29404762Y21758572D02*
X29309524Y21806191D01*
X29309524Y21806191D02*
X29261905Y21853810D01*
X29261905Y21853810D02*
X29214286Y21949048D01*
X29214286Y21949048D02*
X29214286Y22187143D01*
X29214286Y22187143D02*
X29261905Y22282381D01*
X29261905Y22282381D02*
X29309524Y22330000D01*
X29309524Y22330000D02*
X29404762Y22377620D01*
X29404762Y22377620D02*
X29642857Y22377620D01*
X29642857Y22377620D02*
X29738095Y22330000D01*
X29738095Y22330000D02*
X29785714Y22282381D01*
X11761904Y24877620D02*
X11761904Y23877620D01*
X11095238Y23877620D02*
X10904762Y23877620D01*
X10904762Y23877620D02*
X10809524Y23925239D01*
X10809524Y23925239D02*
X10714286Y24020477D01*
X10714286Y24020477D02*
X10666667Y24210953D01*
X10666667Y24210953D02*
X10666667Y24544286D01*
X10666667Y24544286D02*
X10714286Y24734762D01*
X10714286Y24734762D02*
X10809524Y24830000D01*
X10809524Y24830000D02*
X10904762Y24877620D01*
X10904762Y24877620D02*
X11095238Y24877620D01*
X11095238Y24877620D02*
X11190476Y24830000D01*
X11190476Y24830000D02*
X11285714Y24734762D01*
X11285714Y24734762D02*
X11333333Y24544286D01*
X11333333Y24544286D02*
X11333333Y24210953D01*
X11333333Y24210953D02*
X11285714Y24020477D01*
X11285714Y24020477D02*
X11190476Y23925239D01*
X11190476Y23925239D02*
X11095238Y23877620D01*
X10095238Y24306191D02*
X10190476Y24258572D01*
X10190476Y24258572D02*
X10238095Y24210953D01*
X10238095Y24210953D02*
X10285714Y24115715D01*
X10285714Y24115715D02*
X10285714Y24068096D01*
X10285714Y24068096D02*
X10238095Y23972858D01*
X10238095Y23972858D02*
X10190476Y23925239D01*
X10190476Y23925239D02*
X10095238Y23877620D01*
X10095238Y23877620D02*
X9904762Y23877620D01*
X9904762Y23877620D02*
X9809524Y23925239D01*
X9809524Y23925239D02*
X9761905Y23972858D01*
X9761905Y23972858D02*
X9714286Y24068096D01*
X9714286Y24068096D02*
X9714286Y24115715D01*
X9714286Y24115715D02*
X9761905Y24210953D01*
X9761905Y24210953D02*
X9809524Y24258572D01*
X9809524Y24258572D02*
X9904762Y24306191D01*
X9904762Y24306191D02*
X10095238Y24306191D01*
X10095238Y24306191D02*
X10190476Y24353810D01*
X10190476Y24353810D02*
X10238095Y24401429D01*
X10238095Y24401429D02*
X10285714Y24496667D01*
X10285714Y24496667D02*
X10285714Y24687143D01*
X10285714Y24687143D02*
X10238095Y24782381D01*
X10238095Y24782381D02*
X10190476Y24830000D01*
X10190476Y24830000D02*
X10095238Y24877620D01*
X10095238Y24877620D02*
X9904762Y24877620D01*
X9904762Y24877620D02*
X9809524Y24830000D01*
X9809524Y24830000D02*
X9761905Y24782381D01*
X9761905Y24782381D02*
X9714286Y24687143D01*
X9714286Y24687143D02*
X9714286Y24496667D01*
X9714286Y24496667D02*
X9761905Y24401429D01*
X9761905Y24401429D02*
X9809524Y24353810D01*
X9809524Y24353810D02*
X9904762Y24306191D01*
X31357142Y28877620D02*
X30690476Y29877620D01*
X30690476Y28877620D02*
X31357142Y29877620D01*
X31261904Y19877620D02*
X31261904Y18877620D01*
X30595238Y18877620D02*
X30404762Y18877620D01*
X30404762Y18877620D02*
X30309524Y18925239D01*
X30309524Y18925239D02*
X30214286Y19020477D01*
X30214286Y19020477D02*
X30166667Y19210953D01*
X30166667Y19210953D02*
X30166667Y19544286D01*
X30166667Y19544286D02*
X30214286Y19734762D01*
X30214286Y19734762D02*
X30309524Y19830000D01*
X30309524Y19830000D02*
X30404762Y19877620D01*
X30404762Y19877620D02*
X30595238Y19877620D01*
X30595238Y19877620D02*
X30690476Y19830000D01*
X30690476Y19830000D02*
X30785714Y19734762D01*
X30785714Y19734762D02*
X30833333Y19544286D01*
X30833333Y19544286D02*
X30833333Y19210953D01*
X30833333Y19210953D02*
X30785714Y19020477D01*
X30785714Y19020477D02*
X30690476Y18925239D01*
X30690476Y18925239D02*
X30595238Y18877620D01*
X29833333Y18877620D02*
X29214286Y18877620D01*
X29214286Y18877620D02*
X29547619Y19258572D01*
X29547619Y19258572D02*
X29404762Y19258572D01*
X29404762Y19258572D02*
X29309524Y19306191D01*
X29309524Y19306191D02*
X29261905Y19353810D01*
X29261905Y19353810D02*
X29214286Y19449048D01*
X29214286Y19449048D02*
X29214286Y19687143D01*
X29214286Y19687143D02*
X29261905Y19782381D01*
X29261905Y19782381D02*
X29309524Y19830000D01*
X29309524Y19830000D02*
X29404762Y19877620D01*
X29404762Y19877620D02*
X29690476Y19877620D01*
X29690476Y19877620D02*
X29785714Y19830000D01*
X29785714Y19830000D02*
X29833333Y19782381D01*
X31261904Y27377620D02*
X31261904Y26377620D01*
X30595238Y26377620D02*
X30404762Y26377620D01*
X30404762Y26377620D02*
X30309524Y26425239D01*
X30309524Y26425239D02*
X30214286Y26520477D01*
X30214286Y26520477D02*
X30166667Y26710953D01*
X30166667Y26710953D02*
X30166667Y27044286D01*
X30166667Y27044286D02*
X30214286Y27234762D01*
X30214286Y27234762D02*
X30309524Y27330000D01*
X30309524Y27330000D02*
X30404762Y27377620D01*
X30404762Y27377620D02*
X30595238Y27377620D01*
X30595238Y27377620D02*
X30690476Y27330000D01*
X30690476Y27330000D02*
X30785714Y27234762D01*
X30785714Y27234762D02*
X30833333Y27044286D01*
X30833333Y27044286D02*
X30833333Y26710953D01*
X30833333Y26710953D02*
X30785714Y26520477D01*
X30785714Y26520477D02*
X30690476Y26425239D01*
X30690476Y26425239D02*
X30595238Y26377620D01*
X29690476Y27377620D02*
X29500000Y27377620D01*
X29500000Y27377620D02*
X29404762Y27330000D01*
X29404762Y27330000D02*
X29357143Y27282381D01*
X29357143Y27282381D02*
X29261905Y27139524D01*
X29261905Y27139524D02*
X29214286Y26949048D01*
X29214286Y26949048D02*
X29214286Y26568096D01*
X29214286Y26568096D02*
X29261905Y26472858D01*
X29261905Y26472858D02*
X29309524Y26425239D01*
X29309524Y26425239D02*
X29404762Y26377620D01*
X29404762Y26377620D02*
X29595238Y26377620D01*
X29595238Y26377620D02*
X29690476Y26425239D01*
X29690476Y26425239D02*
X29738095Y26472858D01*
X29738095Y26472858D02*
X29785714Y26568096D01*
X29785714Y26568096D02*
X29785714Y26806191D01*
X29785714Y26806191D02*
X29738095Y26901429D01*
X29738095Y26901429D02*
X29690476Y26949048D01*
X29690476Y26949048D02*
X29595238Y26996667D01*
X29595238Y26996667D02*
X29404762Y26996667D01*
X29404762Y26996667D02*
X29309524Y26949048D01*
X29309524Y26949048D02*
X29261905Y26901429D01*
X29261905Y26901429D02*
X29214286Y26806191D01*
X11761904Y17377620D02*
X11761904Y16377620D01*
X11095238Y16377620D02*
X10904762Y16377620D01*
X10904762Y16377620D02*
X10809524Y16425239D01*
X10809524Y16425239D02*
X10714286Y16520477D01*
X10714286Y16520477D02*
X10666667Y16710953D01*
X10666667Y16710953D02*
X10666667Y17044286D01*
X10666667Y17044286D02*
X10714286Y17234762D01*
X10714286Y17234762D02*
X10809524Y17330000D01*
X10809524Y17330000D02*
X10904762Y17377620D01*
X10904762Y17377620D02*
X11095238Y17377620D01*
X11095238Y17377620D02*
X11190476Y17330000D01*
X11190476Y17330000D02*
X11285714Y17234762D01*
X11285714Y17234762D02*
X11333333Y17044286D01*
X11333333Y17044286D02*
X11333333Y16710953D01*
X11333333Y16710953D02*
X11285714Y16520477D01*
X11285714Y16520477D02*
X11190476Y16425239D01*
X11190476Y16425239D02*
X11095238Y16377620D01*
X10285714Y16472858D02*
X10238095Y16425239D01*
X10238095Y16425239D02*
X10142857Y16377620D01*
X10142857Y16377620D02*
X9904762Y16377620D01*
X9904762Y16377620D02*
X9809524Y16425239D01*
X9809524Y16425239D02*
X9761905Y16472858D01*
X9761905Y16472858D02*
X9714286Y16568096D01*
X9714286Y16568096D02*
X9714286Y16663334D01*
X9714286Y16663334D02*
X9761905Y16806191D01*
X9761905Y16806191D02*
X10333333Y17377620D01*
X10333333Y17377620D02*
X9714286Y17377620D01*
X10857142Y31377620D02*
X10190476Y32377620D01*
X10190476Y31377620D02*
X10857142Y32377620D01*
X31261904Y24877620D02*
X31261904Y23877620D01*
X30595238Y23877620D02*
X30404762Y23877620D01*
X30404762Y23877620D02*
X30309524Y23925239D01*
X30309524Y23925239D02*
X30214286Y24020477D01*
X30214286Y24020477D02*
X30166667Y24210953D01*
X30166667Y24210953D02*
X30166667Y24544286D01*
X30166667Y24544286D02*
X30214286Y24734762D01*
X30214286Y24734762D02*
X30309524Y24830000D01*
X30309524Y24830000D02*
X30404762Y24877620D01*
X30404762Y24877620D02*
X30595238Y24877620D01*
X30595238Y24877620D02*
X30690476Y24830000D01*
X30690476Y24830000D02*
X30785714Y24734762D01*
X30785714Y24734762D02*
X30833333Y24544286D01*
X30833333Y24544286D02*
X30833333Y24210953D01*
X30833333Y24210953D02*
X30785714Y24020477D01*
X30785714Y24020477D02*
X30690476Y23925239D01*
X30690476Y23925239D02*
X30595238Y23877620D01*
X29833333Y23877620D02*
X29166667Y23877620D01*
X29166667Y23877620D02*
X29595238Y24877620D01*
X28071429Y23830000D02*
X28928571Y25115715D01*
X27880952Y23877620D02*
X27309524Y23877620D01*
X27595238Y24877620D02*
X27595238Y23877620D01*
X27071428Y24877620D02*
X26547619Y24210953D01*
X27071428Y24210953D02*
X26547619Y24877620D01*
X26166666Y24877620D02*
X26166666Y23877620D01*
X26166666Y23877620D02*
X25928571Y23877620D01*
X25928571Y23877620D02*
X25785714Y23925239D01*
X25785714Y23925239D02*
X25690476Y24020477D01*
X25690476Y24020477D02*
X25642857Y24115715D01*
X25642857Y24115715D02*
X25595238Y24306191D01*
X25595238Y24306191D02*
X25595238Y24449048D01*
X25595238Y24449048D02*
X25642857Y24639524D01*
X25642857Y24639524D02*
X25690476Y24734762D01*
X25690476Y24734762D02*
X25785714Y24830000D01*
X25785714Y24830000D02*
X25928571Y24877620D01*
X25928571Y24877620D02*
X26166666Y24877620D01*
X31357142Y31377620D02*
X30690476Y32377620D01*
X30690476Y31377620D02*
X31357142Y32377620D01*
X11690476Y34877620D02*
X12023809Y34401429D01*
X12261904Y34877620D02*
X12261904Y33877620D01*
X12261904Y33877620D02*
X11880952Y33877620D01*
X11880952Y33877620D02*
X11785714Y33925239D01*
X11785714Y33925239D02*
X11738095Y33972858D01*
X11738095Y33972858D02*
X11690476Y34068096D01*
X11690476Y34068096D02*
X11690476Y34210953D01*
X11690476Y34210953D02*
X11738095Y34306191D01*
X11738095Y34306191D02*
X11785714Y34353810D01*
X11785714Y34353810D02*
X11880952Y34401429D01*
X11880952Y34401429D02*
X12261904Y34401429D01*
X11261904Y34353810D02*
X10928571Y34353810D01*
X10785714Y34877620D02*
X11261904Y34877620D01*
X11261904Y34877620D02*
X11261904Y33877620D01*
X11261904Y33877620D02*
X10785714Y33877620D01*
X9833333Y33925239D02*
X9928571Y33877620D01*
X9928571Y33877620D02*
X10071428Y33877620D01*
X10071428Y33877620D02*
X10214285Y33925239D01*
X10214285Y33925239D02*
X10309523Y34020477D01*
X10309523Y34020477D02*
X10357142Y34115715D01*
X10357142Y34115715D02*
X10404761Y34306191D01*
X10404761Y34306191D02*
X10404761Y34449048D01*
X10404761Y34449048D02*
X10357142Y34639524D01*
X10357142Y34639524D02*
X10309523Y34734762D01*
X10309523Y34734762D02*
X10214285Y34830000D01*
X10214285Y34830000D02*
X10071428Y34877620D01*
X10071428Y34877620D02*
X9976190Y34877620D01*
X9976190Y34877620D02*
X9833333Y34830000D01*
X9833333Y34830000D02*
X9785714Y34782381D01*
X9785714Y34782381D02*
X9785714Y34449048D01*
X9785714Y34449048D02*
X9976190Y34449048D01*
X11761904Y19877620D02*
X11761904Y18877620D01*
X11095238Y18877620D02*
X10904762Y18877620D01*
X10904762Y18877620D02*
X10809524Y18925239D01*
X10809524Y18925239D02*
X10714286Y19020477D01*
X10714286Y19020477D02*
X10666667Y19210953D01*
X10666667Y19210953D02*
X10666667Y19544286D01*
X10666667Y19544286D02*
X10714286Y19734762D01*
X10714286Y19734762D02*
X10809524Y19830000D01*
X10809524Y19830000D02*
X10904762Y19877620D01*
X10904762Y19877620D02*
X11095238Y19877620D01*
X11095238Y19877620D02*
X11190476Y19830000D01*
X11190476Y19830000D02*
X11285714Y19734762D01*
X11285714Y19734762D02*
X11333333Y19544286D01*
X11333333Y19544286D02*
X11333333Y19210953D01*
X11333333Y19210953D02*
X11285714Y19020477D01*
X11285714Y19020477D02*
X11190476Y18925239D01*
X11190476Y18925239D02*
X11095238Y18877620D01*
X9809524Y19210953D02*
X9809524Y19877620D01*
X10047619Y18830000D02*
X10285714Y19544286D01*
X10285714Y19544286D02*
X9666667Y19544286D01*
X30690476Y39877620D02*
X31023809Y39401429D01*
X31261904Y39877620D02*
X31261904Y38877620D01*
X31261904Y38877620D02*
X30880952Y38877620D01*
X30880952Y38877620D02*
X30785714Y38925239D01*
X30785714Y38925239D02*
X30738095Y38972858D01*
X30738095Y38972858D02*
X30690476Y39068096D01*
X30690476Y39068096D02*
X30690476Y39210953D01*
X30690476Y39210953D02*
X30738095Y39306191D01*
X30738095Y39306191D02*
X30785714Y39353810D01*
X30785714Y39353810D02*
X30880952Y39401429D01*
X30880952Y39401429D02*
X31261904Y39401429D01*
X30309523Y39830000D02*
X30166666Y39877620D01*
X30166666Y39877620D02*
X29928571Y39877620D01*
X29928571Y39877620D02*
X29833333Y39830000D01*
X29833333Y39830000D02*
X29785714Y39782381D01*
X29785714Y39782381D02*
X29738095Y39687143D01*
X29738095Y39687143D02*
X29738095Y39591905D01*
X29738095Y39591905D02*
X29785714Y39496667D01*
X29785714Y39496667D02*
X29833333Y39449048D01*
X29833333Y39449048D02*
X29928571Y39401429D01*
X29928571Y39401429D02*
X30119047Y39353810D01*
X30119047Y39353810D02*
X30214285Y39306191D01*
X30214285Y39306191D02*
X30261904Y39258572D01*
X30261904Y39258572D02*
X30309523Y39163334D01*
X30309523Y39163334D02*
X30309523Y39068096D01*
X30309523Y39068096D02*
X30261904Y38972858D01*
X30261904Y38972858D02*
X30214285Y38925239D01*
X30214285Y38925239D02*
X30119047Y38877620D01*
X30119047Y38877620D02*
X29880952Y38877620D01*
X29880952Y38877620D02*
X29738095Y38925239D01*
X29452380Y38877620D02*
X28880952Y38877620D01*
X29166666Y39877620D02*
X29166666Y38877620D01*
X11738095Y36425239D02*
X11833333Y36377620D01*
X11833333Y36377620D02*
X11976190Y36377620D01*
X11976190Y36377620D02*
X12119047Y36425239D01*
X12119047Y36425239D02*
X12214285Y36520477D01*
X12214285Y36520477D02*
X12261904Y36615715D01*
X12261904Y36615715D02*
X12309523Y36806191D01*
X12309523Y36806191D02*
X12309523Y36949048D01*
X12309523Y36949048D02*
X12261904Y37139524D01*
X12261904Y37139524D02*
X12214285Y37234762D01*
X12214285Y37234762D02*
X12119047Y37330000D01*
X12119047Y37330000D02*
X11976190Y37377620D01*
X11976190Y37377620D02*
X11880952Y37377620D01*
X11880952Y37377620D02*
X11738095Y37330000D01*
X11738095Y37330000D02*
X11690476Y37282381D01*
X11690476Y37282381D02*
X11690476Y36949048D01*
X11690476Y36949048D02*
X11880952Y36949048D01*
X11261904Y37377620D02*
X11261904Y36377620D01*
X11261904Y36377620D02*
X10690476Y37377620D01*
X10690476Y37377620D02*
X10690476Y36377620D01*
X10214285Y37377620D02*
X10214285Y36377620D01*
X10214285Y36377620D02*
X9976190Y36377620D01*
X9976190Y36377620D02*
X9833333Y36425239D01*
X9833333Y36425239D02*
X9738095Y36520477D01*
X9738095Y36520477D02*
X9690476Y36615715D01*
X9690476Y36615715D02*
X9642857Y36806191D01*
X9642857Y36806191D02*
X9642857Y36949048D01*
X9642857Y36949048D02*
X9690476Y37139524D01*
X9690476Y37139524D02*
X9738095Y37234762D01*
X9738095Y37234762D02*
X9833333Y37330000D01*
X9833333Y37330000D02*
X9976190Y37377620D01*
X9976190Y37377620D02*
X10214285Y37377620D01*
X12761904Y27377620D02*
X12761904Y26377620D01*
X12095238Y26377620D02*
X11904762Y26377620D01*
X11904762Y26377620D02*
X11809524Y26425239D01*
X11809524Y26425239D02*
X11714286Y26520477D01*
X11714286Y26520477D02*
X11666667Y26710953D01*
X11666667Y26710953D02*
X11666667Y27044286D01*
X11666667Y27044286D02*
X11714286Y27234762D01*
X11714286Y27234762D02*
X11809524Y27330000D01*
X11809524Y27330000D02*
X11904762Y27377620D01*
X11904762Y27377620D02*
X12095238Y27377620D01*
X12095238Y27377620D02*
X12190476Y27330000D01*
X12190476Y27330000D02*
X12285714Y27234762D01*
X12285714Y27234762D02*
X12333333Y27044286D01*
X12333333Y27044286D02*
X12333333Y26710953D01*
X12333333Y26710953D02*
X12285714Y26520477D01*
X12285714Y26520477D02*
X12190476Y26425239D01*
X12190476Y26425239D02*
X12095238Y26377620D01*
X10714286Y27377620D02*
X11285714Y27377620D01*
X11000000Y27377620D02*
X11000000Y26377620D01*
X11000000Y26377620D02*
X11095238Y26520477D01*
X11095238Y26520477D02*
X11190476Y26615715D01*
X11190476Y26615715D02*
X11285714Y26663334D01*
X10095238Y26377620D02*
X10000000Y26377620D01*
X10000000Y26377620D02*
X9904762Y26425239D01*
X9904762Y26425239D02*
X9857143Y26472858D01*
X9857143Y26472858D02*
X9809524Y26568096D01*
X9809524Y26568096D02*
X9761905Y26758572D01*
X9761905Y26758572D02*
X9761905Y26996667D01*
X9761905Y26996667D02*
X9809524Y27187143D01*
X9809524Y27187143D02*
X9857143Y27282381D01*
X9857143Y27282381D02*
X9904762Y27330000D01*
X9904762Y27330000D02*
X10000000Y27377620D01*
X10000000Y27377620D02*
X10095238Y27377620D01*
X10095238Y27377620D02*
X10190476Y27330000D01*
X10190476Y27330000D02*
X10238095Y27282381D01*
X10238095Y27282381D02*
X10285714Y27187143D01*
X10285714Y27187143D02*
X10333333Y26996667D01*
X10333333Y26996667D02*
X10333333Y26758572D01*
X10333333Y26758572D02*
X10285714Y26568096D01*
X10285714Y26568096D02*
X10238095Y26472858D01*
X10238095Y26472858D02*
X10190476Y26425239D01*
X10190476Y26425239D02*
X10095238Y26377620D01*
X31404761Y36377620D02*
X31071428Y37377620D01*
X31071428Y37377620D02*
X30738095Y36377620D01*
X29833333Y37282381D02*
X29880952Y37330000D01*
X29880952Y37330000D02*
X30023809Y37377620D01*
X30023809Y37377620D02*
X30119047Y37377620D01*
X30119047Y37377620D02*
X30261904Y37330000D01*
X30261904Y37330000D02*
X30357142Y37234762D01*
X30357142Y37234762D02*
X30404761Y37139524D01*
X30404761Y37139524D02*
X30452380Y36949048D01*
X30452380Y36949048D02*
X30452380Y36806191D01*
X30452380Y36806191D02*
X30404761Y36615715D01*
X30404761Y36615715D02*
X30357142Y36520477D01*
X30357142Y36520477D02*
X30261904Y36425239D01*
X30261904Y36425239D02*
X30119047Y36377620D01*
X30119047Y36377620D02*
X30023809Y36377620D01*
X30023809Y36377620D02*
X29880952Y36425239D01*
X29880952Y36425239D02*
X29833333Y36472858D01*
X28833333Y37282381D02*
X28880952Y37330000D01*
X28880952Y37330000D02*
X29023809Y37377620D01*
X29023809Y37377620D02*
X29119047Y37377620D01*
X29119047Y37377620D02*
X29261904Y37330000D01*
X29261904Y37330000D02*
X29357142Y37234762D01*
X29357142Y37234762D02*
X29404761Y37139524D01*
X29404761Y37139524D02*
X29452380Y36949048D01*
X29452380Y36949048D02*
X29452380Y36806191D01*
X29452380Y36806191D02*
X29404761Y36615715D01*
X29404761Y36615715D02*
X29357142Y36520477D01*
X29357142Y36520477D02*
X29261904Y36425239D01*
X29261904Y36425239D02*
X29119047Y36377620D01*
X29119047Y36377620D02*
X29023809Y36377620D01*
X29023809Y36377620D02*
X28880952Y36425239D01*
X28880952Y36425239D02*
X28833333Y36472858D01*
X31261904Y17377620D02*
X31261904Y16377620D01*
X30595238Y16377620D02*
X30404762Y16377620D01*
X30404762Y16377620D02*
X30309524Y16425239D01*
X30309524Y16425239D02*
X30214286Y16520477D01*
X30214286Y16520477D02*
X30166667Y16710953D01*
X30166667Y16710953D02*
X30166667Y17044286D01*
X30166667Y17044286D02*
X30214286Y17234762D01*
X30214286Y17234762D02*
X30309524Y17330000D01*
X30309524Y17330000D02*
X30404762Y17377620D01*
X30404762Y17377620D02*
X30595238Y17377620D01*
X30595238Y17377620D02*
X30690476Y17330000D01*
X30690476Y17330000D02*
X30785714Y17234762D01*
X30785714Y17234762D02*
X30833333Y17044286D01*
X30833333Y17044286D02*
X30833333Y16710953D01*
X30833333Y16710953D02*
X30785714Y16520477D01*
X30785714Y16520477D02*
X30690476Y16425239D01*
X30690476Y16425239D02*
X30595238Y16377620D01*
X29214286Y17377620D02*
X29785714Y17377620D01*
X29500000Y17377620D02*
X29500000Y16377620D01*
X29500000Y16377620D02*
X29595238Y16520477D01*
X29595238Y16520477D02*
X29690476Y16615715D01*
X29690476Y16615715D02*
X29785714Y16663334D01*
X28071429Y16330000D02*
X28928571Y17615715D01*
X27166667Y17377620D02*
X27500000Y16901429D01*
X27738095Y17377620D02*
X27738095Y16377620D01*
X27738095Y16377620D02*
X27357143Y16377620D01*
X27357143Y16377620D02*
X27261905Y16425239D01*
X27261905Y16425239D02*
X27214286Y16472858D01*
X27214286Y16472858D02*
X27166667Y16568096D01*
X27166667Y16568096D02*
X27166667Y16710953D01*
X27166667Y16710953D02*
X27214286Y16806191D01*
X27214286Y16806191D02*
X27261905Y16853810D01*
X27261905Y16853810D02*
X27357143Y16901429D01*
X27357143Y16901429D02*
X27738095Y16901429D01*
X26880952Y16377620D02*
X26309524Y16377620D01*
X26595238Y17377620D02*
X26595238Y16377620D01*
X26023809Y17330000D02*
X25880952Y17377620D01*
X25880952Y17377620D02*
X25642857Y17377620D01*
X25642857Y17377620D02*
X25547619Y17330000D01*
X25547619Y17330000D02*
X25500000Y17282381D01*
X25500000Y17282381D02*
X25452381Y17187143D01*
X25452381Y17187143D02*
X25452381Y17091905D01*
X25452381Y17091905D02*
X25500000Y16996667D01*
X25500000Y16996667D02*
X25547619Y16949048D01*
X25547619Y16949048D02*
X25642857Y16901429D01*
X25642857Y16901429D02*
X25833333Y16853810D01*
X25833333Y16853810D02*
X25928571Y16806191D01*
X25928571Y16806191D02*
X25976190Y16758572D01*
X25976190Y16758572D02*
X26023809Y16663334D01*
X26023809Y16663334D02*
X26023809Y16568096D01*
X26023809Y16568096D02*
X25976190Y16472858D01*
X25976190Y16472858D02*
X25928571Y16425239D01*
X25928571Y16425239D02*
X25833333Y16377620D01*
X25833333Y16377620D02*
X25595238Y16377620D01*
X25595238Y16377620D02*
X25452381Y16425239D01*
X31309523Y34830000D02*
X31166666Y34877620D01*
X31166666Y34877620D02*
X30928571Y34877620D01*
X30928571Y34877620D02*
X30833333Y34830000D01*
X30833333Y34830000D02*
X30785714Y34782381D01*
X30785714Y34782381D02*
X30738095Y34687143D01*
X30738095Y34687143D02*
X30738095Y34591905D01*
X30738095Y34591905D02*
X30785714Y34496667D01*
X30785714Y34496667D02*
X30833333Y34449048D01*
X30833333Y34449048D02*
X30928571Y34401429D01*
X30928571Y34401429D02*
X31119047Y34353810D01*
X31119047Y34353810D02*
X31214285Y34306191D01*
X31214285Y34306191D02*
X31261904Y34258572D01*
X31261904Y34258572D02*
X31309523Y34163334D01*
X31309523Y34163334D02*
X31309523Y34068096D01*
X31309523Y34068096D02*
X31261904Y33972858D01*
X31261904Y33972858D02*
X31214285Y33925239D01*
X31214285Y33925239D02*
X31119047Y33877620D01*
X31119047Y33877620D02*
X30880952Y33877620D01*
X30880952Y33877620D02*
X30738095Y33925239D01*
X30452380Y33877620D02*
X29880952Y33877620D01*
X30166666Y34877620D02*
X30166666Y33877620D01*
X29595237Y34830000D02*
X29452380Y34877620D01*
X29452380Y34877620D02*
X29214285Y34877620D01*
X29214285Y34877620D02*
X29119047Y34830000D01*
X29119047Y34830000D02*
X29071428Y34782381D01*
X29071428Y34782381D02*
X29023809Y34687143D01*
X29023809Y34687143D02*
X29023809Y34591905D01*
X29023809Y34591905D02*
X29071428Y34496667D01*
X29071428Y34496667D02*
X29119047Y34449048D01*
X29119047Y34449048D02*
X29214285Y34401429D01*
X29214285Y34401429D02*
X29404761Y34353810D01*
X29404761Y34353810D02*
X29499999Y34306191D01*
X29499999Y34306191D02*
X29547618Y34258572D01*
X29547618Y34258572D02*
X29595237Y34163334D01*
X29595237Y34163334D02*
X29595237Y34068096D01*
X29595237Y34068096D02*
X29547618Y33972858D01*
X29547618Y33972858D02*
X29499999Y33925239D01*
X29499999Y33925239D02*
X29404761Y33877620D01*
X29404761Y33877620D02*
X29166666Y33877620D01*
X29166666Y33877620D02*
X29023809Y33925239D01*
X15761904Y22377620D02*
X15761904Y21377620D01*
X15095238Y21377620D02*
X14904762Y21377620D01*
X14904762Y21377620D02*
X14809524Y21425239D01*
X14809524Y21425239D02*
X14714286Y21520477D01*
X14714286Y21520477D02*
X14666667Y21710953D01*
X14666667Y21710953D02*
X14666667Y22044286D01*
X14666667Y22044286D02*
X14714286Y22234762D01*
X14714286Y22234762D02*
X14809524Y22330000D01*
X14809524Y22330000D02*
X14904762Y22377620D01*
X14904762Y22377620D02*
X15095238Y22377620D01*
X15095238Y22377620D02*
X15190476Y22330000D01*
X15190476Y22330000D02*
X15285714Y22234762D01*
X15285714Y22234762D02*
X15333333Y22044286D01*
X15333333Y22044286D02*
X15333333Y21710953D01*
X15333333Y21710953D02*
X15285714Y21520477D01*
X15285714Y21520477D02*
X15190476Y21425239D01*
X15190476Y21425239D02*
X15095238Y21377620D01*
X13809524Y21377620D02*
X14000000Y21377620D01*
X14000000Y21377620D02*
X14095238Y21425239D01*
X14095238Y21425239D02*
X14142857Y21472858D01*
X14142857Y21472858D02*
X14238095Y21615715D01*
X14238095Y21615715D02*
X14285714Y21806191D01*
X14285714Y21806191D02*
X14285714Y22187143D01*
X14285714Y22187143D02*
X14238095Y22282381D01*
X14238095Y22282381D02*
X14190476Y22330000D01*
X14190476Y22330000D02*
X14095238Y22377620D01*
X14095238Y22377620D02*
X13904762Y22377620D01*
X13904762Y22377620D02*
X13809524Y22330000D01*
X13809524Y22330000D02*
X13761905Y22282381D01*
X13761905Y22282381D02*
X13714286Y22187143D01*
X13714286Y22187143D02*
X13714286Y21949048D01*
X13714286Y21949048D02*
X13761905Y21853810D01*
X13761905Y21853810D02*
X13809524Y21806191D01*
X13809524Y21806191D02*
X13904762Y21758572D01*
X13904762Y21758572D02*
X14095238Y21758572D01*
X14095238Y21758572D02*
X14190476Y21806191D01*
X14190476Y21806191D02*
X14238095Y21853810D01*
X14238095Y21853810D02*
X14285714Y21949048D01*
X12571429Y21330000D02*
X13428571Y22615715D01*
X11666667Y22377620D02*
X12000000Y21901429D01*
X12238095Y22377620D02*
X12238095Y21377620D01*
X12238095Y21377620D02*
X11857143Y21377620D01*
X11857143Y21377620D02*
X11761905Y21425239D01*
X11761905Y21425239D02*
X11714286Y21472858D01*
X11714286Y21472858D02*
X11666667Y21568096D01*
X11666667Y21568096D02*
X11666667Y21710953D01*
X11666667Y21710953D02*
X11714286Y21806191D01*
X11714286Y21806191D02*
X11761905Y21853810D01*
X11761905Y21853810D02*
X11857143Y21901429D01*
X11857143Y21901429D02*
X12238095Y21901429D01*
X11333333Y22377620D02*
X10809524Y21710953D01*
X11333333Y21710953D02*
X10809524Y22377620D01*
X10428571Y22377620D02*
X10428571Y21377620D01*
X10428571Y21377620D02*
X10190476Y21377620D01*
X10190476Y21377620D02*
X10047619Y21425239D01*
X10047619Y21425239D02*
X9952381Y21520477D01*
X9952381Y21520477D02*
X9904762Y21615715D01*
X9904762Y21615715D02*
X9857143Y21806191D01*
X9857143Y21806191D02*
X9857143Y21949048D01*
X9857143Y21949048D02*
X9904762Y22139524D01*
X9904762Y22139524D02*
X9952381Y22234762D01*
X9952381Y22234762D02*
X10047619Y22330000D01*
X10047619Y22330000D02*
X10190476Y22377620D01*
X10190476Y22377620D02*
X10428571Y22377620D01*
X10857142Y28877620D02*
X10190476Y29877620D01*
X10190476Y28877620D02*
X10857142Y29877620D01*
X12904761Y38877620D02*
X12333333Y38877620D01*
X12619047Y39877620D02*
X12619047Y38877620D01*
X11999999Y39353810D02*
X11666666Y39353810D01*
X11523809Y39877620D02*
X11999999Y39877620D01*
X11999999Y39877620D02*
X11999999Y38877620D01*
X11999999Y38877620D02*
X11523809Y38877620D01*
X11142856Y39830000D02*
X10999999Y39877620D01*
X10999999Y39877620D02*
X10761904Y39877620D01*
X10761904Y39877620D02*
X10666666Y39830000D01*
X10666666Y39830000D02*
X10619047Y39782381D01*
X10619047Y39782381D02*
X10571428Y39687143D01*
X10571428Y39687143D02*
X10571428Y39591905D01*
X10571428Y39591905D02*
X10619047Y39496667D01*
X10619047Y39496667D02*
X10666666Y39449048D01*
X10666666Y39449048D02*
X10761904Y39401429D01*
X10761904Y39401429D02*
X10952380Y39353810D01*
X10952380Y39353810D02*
X11047618Y39306191D01*
X11047618Y39306191D02*
X11095237Y39258572D01*
X11095237Y39258572D02*
X11142856Y39163334D01*
X11142856Y39163334D02*
X11142856Y39068096D01*
X11142856Y39068096D02*
X11095237Y38972858D01*
X11095237Y38972858D02*
X11047618Y38925239D01*
X11047618Y38925239D02*
X10952380Y38877620D01*
X10952380Y38877620D02*
X10714285Y38877620D01*
X10714285Y38877620D02*
X10571428Y38925239D01*
X10285713Y38877620D02*
X9714285Y38877620D01*
X9999999Y39877620D02*
X9999999Y38877620D01*
D10*
%TO.C,R13*%
X51685700Y105065224D02*
X51209509Y104731891D01*
X51685700Y104493796D02*
X50685700Y104493796D01*
X50685700Y104493796D02*
X50685700Y104874748D01*
X50685700Y104874748D02*
X50733319Y104969986D01*
X50733319Y104969986D02*
X50780938Y105017605D01*
X50780938Y105017605D02*
X50876176Y105065224D01*
X50876176Y105065224D02*
X51019033Y105065224D01*
X51019033Y105065224D02*
X51114271Y105017605D01*
X51114271Y105017605D02*
X51161890Y104969986D01*
X51161890Y104969986D02*
X51209509Y104874748D01*
X51209509Y104874748D02*
X51209509Y104493796D01*
X51685700Y106017605D02*
X51685700Y105446177D01*
X51685700Y105731891D02*
X50685700Y105731891D01*
X50685700Y105731891D02*
X50828557Y105636653D01*
X50828557Y105636653D02*
X50923795Y105541415D01*
X50923795Y105541415D02*
X50971414Y105446177D01*
X50685700Y106350939D02*
X50685700Y106969986D01*
X50685700Y106969986D02*
X51066652Y106636653D01*
X51066652Y106636653D02*
X51066652Y106779510D01*
X51066652Y106779510D02*
X51114271Y106874748D01*
X51114271Y106874748D02*
X51161890Y106922367D01*
X51161890Y106922367D02*
X51257128Y106969986D01*
X51257128Y106969986D02*
X51495223Y106969986D01*
X51495223Y106969986D02*
X51590461Y106922367D01*
X51590461Y106922367D02*
X51638081Y106874748D01*
X51638081Y106874748D02*
X51685700Y106779510D01*
X51685700Y106779510D02*
X51685700Y106493796D01*
X51685700Y106493796D02*
X51638081Y106398558D01*
X51638081Y106398558D02*
X51590461Y106350939D01*
%TO.C,D8*%
X2342619Y107761906D02*
X1342619Y107761906D01*
X1342619Y107761906D02*
X1342619Y108000001D01*
X1342619Y108000001D02*
X1390238Y108142858D01*
X1390238Y108142858D02*
X1485476Y108238096D01*
X1485476Y108238096D02*
X1580714Y108285715D01*
X1580714Y108285715D02*
X1771190Y108333334D01*
X1771190Y108333334D02*
X1914047Y108333334D01*
X1914047Y108333334D02*
X2104523Y108285715D01*
X2104523Y108285715D02*
X2199761Y108238096D01*
X2199761Y108238096D02*
X2295000Y108142858D01*
X2295000Y108142858D02*
X2342619Y108000001D01*
X2342619Y108000001D02*
X2342619Y107761906D01*
X1771190Y108904763D02*
X1723571Y108809525D01*
X1723571Y108809525D02*
X1675952Y108761906D01*
X1675952Y108761906D02*
X1580714Y108714287D01*
X1580714Y108714287D02*
X1533095Y108714287D01*
X1533095Y108714287D02*
X1437857Y108761906D01*
X1437857Y108761906D02*
X1390238Y108809525D01*
X1390238Y108809525D02*
X1342619Y108904763D01*
X1342619Y108904763D02*
X1342619Y109095239D01*
X1342619Y109095239D02*
X1390238Y109190477D01*
X1390238Y109190477D02*
X1437857Y109238096D01*
X1437857Y109238096D02*
X1533095Y109285715D01*
X1533095Y109285715D02*
X1580714Y109285715D01*
X1580714Y109285715D02*
X1675952Y109238096D01*
X1675952Y109238096D02*
X1723571Y109190477D01*
X1723571Y109190477D02*
X1771190Y109095239D01*
X1771190Y109095239D02*
X1771190Y108904763D01*
X1771190Y108904763D02*
X1818809Y108809525D01*
X1818809Y108809525D02*
X1866428Y108761906D01*
X1866428Y108761906D02*
X1961666Y108714287D01*
X1961666Y108714287D02*
X2152142Y108714287D01*
X2152142Y108714287D02*
X2247380Y108761906D01*
X2247380Y108761906D02*
X2295000Y108809525D01*
X2295000Y108809525D02*
X2342619Y108904763D01*
X2342619Y108904763D02*
X2342619Y109095239D01*
X2342619Y109095239D02*
X2295000Y109190477D01*
X2295000Y109190477D02*
X2247380Y109238096D01*
X2247380Y109238096D02*
X2152142Y109285715D01*
X2152142Y109285715D02*
X1961666Y109285715D01*
X1961666Y109285715D02*
X1866428Y109238096D01*
X1866428Y109238096D02*
X1818809Y109190477D01*
X1818809Y109190477D02*
X1771190Y109095239D01*
X2662619Y104428096D02*
X1662619Y104428096D01*
X2662619Y104999524D02*
X2091190Y104570953D01*
X1662619Y104999524D02*
X2234047Y104428096D01*
%TO.C,C2*%
X54583333Y53682620D02*
X54535714Y53635000D01*
X54535714Y53635000D02*
X54392857Y53587381D01*
X54392857Y53587381D02*
X54297619Y53587381D01*
X54297619Y53587381D02*
X54154762Y53635000D01*
X54154762Y53635000D02*
X54059524Y53730239D01*
X54059524Y53730239D02*
X54011905Y53825477D01*
X54011905Y53825477D02*
X53964286Y54015953D01*
X53964286Y54015953D02*
X53964286Y54158810D01*
X53964286Y54158810D02*
X54011905Y54349286D01*
X54011905Y54349286D02*
X54059524Y54444524D01*
X54059524Y54444524D02*
X54154762Y54539762D01*
X54154762Y54539762D02*
X54297619Y54587381D01*
X54297619Y54587381D02*
X54392857Y54587381D01*
X54392857Y54587381D02*
X54535714Y54539762D01*
X54535714Y54539762D02*
X54583333Y54492143D01*
X54964286Y54492143D02*
X55011905Y54539762D01*
X55011905Y54539762D02*
X55107143Y54587381D01*
X55107143Y54587381D02*
X55345238Y54587381D01*
X55345238Y54587381D02*
X55440476Y54539762D01*
X55440476Y54539762D02*
X55488095Y54492143D01*
X55488095Y54492143D02*
X55535714Y54396905D01*
X55535714Y54396905D02*
X55535714Y54301667D01*
X55535714Y54301667D02*
X55488095Y54158810D01*
X55488095Y54158810D02*
X54916667Y53587381D01*
X54916667Y53587381D02*
X55535714Y53587381D01*
%TO.C,C6*%
X71083333Y115182620D02*
X71035714Y115135000D01*
X71035714Y115135000D02*
X70892857Y115087381D01*
X70892857Y115087381D02*
X70797619Y115087381D01*
X70797619Y115087381D02*
X70654762Y115135000D01*
X70654762Y115135000D02*
X70559524Y115230239D01*
X70559524Y115230239D02*
X70511905Y115325477D01*
X70511905Y115325477D02*
X70464286Y115515953D01*
X70464286Y115515953D02*
X70464286Y115658810D01*
X70464286Y115658810D02*
X70511905Y115849286D01*
X70511905Y115849286D02*
X70559524Y115944524D01*
X70559524Y115944524D02*
X70654762Y116039762D01*
X70654762Y116039762D02*
X70797619Y116087381D01*
X70797619Y116087381D02*
X70892857Y116087381D01*
X70892857Y116087381D02*
X71035714Y116039762D01*
X71035714Y116039762D02*
X71083333Y115992143D01*
X71940476Y116087381D02*
X71750000Y116087381D01*
X71750000Y116087381D02*
X71654762Y116039762D01*
X71654762Y116039762D02*
X71607143Y115992143D01*
X71607143Y115992143D02*
X71511905Y115849286D01*
X71511905Y115849286D02*
X71464286Y115658810D01*
X71464286Y115658810D02*
X71464286Y115277858D01*
X71464286Y115277858D02*
X71511905Y115182620D01*
X71511905Y115182620D02*
X71559524Y115135000D01*
X71559524Y115135000D02*
X71654762Y115087381D01*
X71654762Y115087381D02*
X71845238Y115087381D01*
X71845238Y115087381D02*
X71940476Y115135000D01*
X71940476Y115135000D02*
X71988095Y115182620D01*
X71988095Y115182620D02*
X72035714Y115277858D01*
X72035714Y115277858D02*
X72035714Y115515953D01*
X72035714Y115515953D02*
X71988095Y115611191D01*
X71988095Y115611191D02*
X71940476Y115658810D01*
X71940476Y115658810D02*
X71845238Y115706429D01*
X71845238Y115706429D02*
X71654762Y115706429D01*
X71654762Y115706429D02*
X71559524Y115658810D01*
X71559524Y115658810D02*
X71511905Y115611191D01*
X71511905Y115611191D02*
X71464286Y115515953D01*
%TO.C,C12*%
X11107142Y104182620D02*
X11059523Y104135000D01*
X11059523Y104135000D02*
X10916666Y104087381D01*
X10916666Y104087381D02*
X10821428Y104087381D01*
X10821428Y104087381D02*
X10678571Y104135000D01*
X10678571Y104135000D02*
X10583333Y104230239D01*
X10583333Y104230239D02*
X10535714Y104325477D01*
X10535714Y104325477D02*
X10488095Y104515953D01*
X10488095Y104515953D02*
X10488095Y104658810D01*
X10488095Y104658810D02*
X10535714Y104849286D01*
X10535714Y104849286D02*
X10583333Y104944524D01*
X10583333Y104944524D02*
X10678571Y105039762D01*
X10678571Y105039762D02*
X10821428Y105087381D01*
X10821428Y105087381D02*
X10916666Y105087381D01*
X10916666Y105087381D02*
X11059523Y105039762D01*
X11059523Y105039762D02*
X11107142Y104992143D01*
X12059523Y104087381D02*
X11488095Y104087381D01*
X11773809Y104087381D02*
X11773809Y105087381D01*
X11773809Y105087381D02*
X11678571Y104944524D01*
X11678571Y104944524D02*
X11583333Y104849286D01*
X11583333Y104849286D02*
X11488095Y104801667D01*
X12440476Y104992143D02*
X12488095Y105039762D01*
X12488095Y105039762D02*
X12583333Y105087381D01*
X12583333Y105087381D02*
X12821428Y105087381D01*
X12821428Y105087381D02*
X12916666Y105039762D01*
X12916666Y105039762D02*
X12964285Y104992143D01*
X12964285Y104992143D02*
X13011904Y104896905D01*
X13011904Y104896905D02*
X13011904Y104801667D01*
X13011904Y104801667D02*
X12964285Y104658810D01*
X12964285Y104658810D02*
X12392857Y104087381D01*
X12392857Y104087381D02*
X13011904Y104087381D01*
%TO.C,D2*%
X70295593Y67548658D02*
X70295593Y68548658D01*
X70295593Y68548658D02*
X70533688Y68548658D01*
X70533688Y68548658D02*
X70676545Y68501039D01*
X70676545Y68501039D02*
X70771783Y68405801D01*
X70771783Y68405801D02*
X70819402Y68310563D01*
X70819402Y68310563D02*
X70867021Y68120087D01*
X70867021Y68120087D02*
X70867021Y67977230D01*
X70867021Y67977230D02*
X70819402Y67786754D01*
X70819402Y67786754D02*
X70771783Y67691516D01*
X70771783Y67691516D02*
X70676545Y67596277D01*
X70676545Y67596277D02*
X70533688Y67548658D01*
X70533688Y67548658D02*
X70295593Y67548658D01*
X71247974Y68453420D02*
X71295593Y68501039D01*
X71295593Y68501039D02*
X71390831Y68548658D01*
X71390831Y68548658D02*
X71628926Y68548658D01*
X71628926Y68548658D02*
X71724164Y68501039D01*
X71724164Y68501039D02*
X71771783Y68453420D01*
X71771783Y68453420D02*
X71819402Y68358182D01*
X71819402Y68358182D02*
X71819402Y68262944D01*
X71819402Y68262944D02*
X71771783Y68120087D01*
X71771783Y68120087D02*
X71200355Y67548658D01*
X71200355Y67548658D02*
X71819402Y67548658D01*
%TO.C,R18*%
X62857142Y72457381D02*
X62523809Y72933572D01*
X62285714Y72457381D02*
X62285714Y73457381D01*
X62285714Y73457381D02*
X62666666Y73457381D01*
X62666666Y73457381D02*
X62761904Y73409762D01*
X62761904Y73409762D02*
X62809523Y73362143D01*
X62809523Y73362143D02*
X62857142Y73266905D01*
X62857142Y73266905D02*
X62857142Y73124048D01*
X62857142Y73124048D02*
X62809523Y73028810D01*
X62809523Y73028810D02*
X62761904Y72981191D01*
X62761904Y72981191D02*
X62666666Y72933572D01*
X62666666Y72933572D02*
X62285714Y72933572D01*
X63809523Y72457381D02*
X63238095Y72457381D01*
X63523809Y72457381D02*
X63523809Y73457381D01*
X63523809Y73457381D02*
X63428571Y73314524D01*
X63428571Y73314524D02*
X63333333Y73219286D01*
X63333333Y73219286D02*
X63238095Y73171667D01*
X64380952Y73028810D02*
X64285714Y73076429D01*
X64285714Y73076429D02*
X64238095Y73124048D01*
X64238095Y73124048D02*
X64190476Y73219286D01*
X64190476Y73219286D02*
X64190476Y73266905D01*
X64190476Y73266905D02*
X64238095Y73362143D01*
X64238095Y73362143D02*
X64285714Y73409762D01*
X64285714Y73409762D02*
X64380952Y73457381D01*
X64380952Y73457381D02*
X64571428Y73457381D01*
X64571428Y73457381D02*
X64666666Y73409762D01*
X64666666Y73409762D02*
X64714285Y73362143D01*
X64714285Y73362143D02*
X64761904Y73266905D01*
X64761904Y73266905D02*
X64761904Y73219286D01*
X64761904Y73219286D02*
X64714285Y73124048D01*
X64714285Y73124048D02*
X64666666Y73076429D01*
X64666666Y73076429D02*
X64571428Y73028810D01*
X64571428Y73028810D02*
X64380952Y73028810D01*
X64380952Y73028810D02*
X64285714Y72981191D01*
X64285714Y72981191D02*
X64238095Y72933572D01*
X64238095Y72933572D02*
X64190476Y72838334D01*
X64190476Y72838334D02*
X64190476Y72647858D01*
X64190476Y72647858D02*
X64238095Y72552620D01*
X64238095Y72552620D02*
X64285714Y72505000D01*
X64285714Y72505000D02*
X64380952Y72457381D01*
X64380952Y72457381D02*
X64571428Y72457381D01*
X64571428Y72457381D02*
X64666666Y72505000D01*
X64666666Y72505000D02*
X64714285Y72552620D01*
X64714285Y72552620D02*
X64761904Y72647858D01*
X64761904Y72647858D02*
X64761904Y72838334D01*
X64761904Y72838334D02*
X64714285Y72933572D01*
X64714285Y72933572D02*
X64666666Y72981191D01*
X64666666Y72981191D02*
X64571428Y73028810D01*
%TO.C,D7*%
X21502619Y120031906D02*
X20502619Y120031906D01*
X20502619Y120031906D02*
X20502619Y120270001D01*
X20502619Y120270001D02*
X20550238Y120412858D01*
X20550238Y120412858D02*
X20645476Y120508096D01*
X20645476Y120508096D02*
X20740714Y120555715D01*
X20740714Y120555715D02*
X20931190Y120603334D01*
X20931190Y120603334D02*
X21074047Y120603334D01*
X21074047Y120603334D02*
X21264523Y120555715D01*
X21264523Y120555715D02*
X21359761Y120508096D01*
X21359761Y120508096D02*
X21455000Y120412858D01*
X21455000Y120412858D02*
X21502619Y120270001D01*
X21502619Y120270001D02*
X21502619Y120031906D01*
X20502619Y120936668D02*
X20502619Y121603334D01*
X20502619Y121603334D02*
X21502619Y121174763D01*
%TO.C,R19*%
X62857142Y66957381D02*
X62523809Y67433572D01*
X62285714Y66957381D02*
X62285714Y67957381D01*
X62285714Y67957381D02*
X62666666Y67957381D01*
X62666666Y67957381D02*
X62761904Y67909762D01*
X62761904Y67909762D02*
X62809523Y67862143D01*
X62809523Y67862143D02*
X62857142Y67766905D01*
X62857142Y67766905D02*
X62857142Y67624048D01*
X62857142Y67624048D02*
X62809523Y67528810D01*
X62809523Y67528810D02*
X62761904Y67481191D01*
X62761904Y67481191D02*
X62666666Y67433572D01*
X62666666Y67433572D02*
X62285714Y67433572D01*
X63809523Y66957381D02*
X63238095Y66957381D01*
X63523809Y66957381D02*
X63523809Y67957381D01*
X63523809Y67957381D02*
X63428571Y67814524D01*
X63428571Y67814524D02*
X63333333Y67719286D01*
X63333333Y67719286D02*
X63238095Y67671667D01*
X64285714Y66957381D02*
X64476190Y66957381D01*
X64476190Y66957381D02*
X64571428Y67005000D01*
X64571428Y67005000D02*
X64619047Y67052620D01*
X64619047Y67052620D02*
X64714285Y67195477D01*
X64714285Y67195477D02*
X64761904Y67385953D01*
X64761904Y67385953D02*
X64761904Y67766905D01*
X64761904Y67766905D02*
X64714285Y67862143D01*
X64714285Y67862143D02*
X64666666Y67909762D01*
X64666666Y67909762D02*
X64571428Y67957381D01*
X64571428Y67957381D02*
X64380952Y67957381D01*
X64380952Y67957381D02*
X64285714Y67909762D01*
X64285714Y67909762D02*
X64238095Y67862143D01*
X64238095Y67862143D02*
X64190476Y67766905D01*
X64190476Y67766905D02*
X64190476Y67528810D01*
X64190476Y67528810D02*
X64238095Y67433572D01*
X64238095Y67433572D02*
X64285714Y67385953D01*
X64285714Y67385953D02*
X64380952Y67338334D01*
X64380952Y67338334D02*
X64571428Y67338334D01*
X64571428Y67338334D02*
X64666666Y67385953D01*
X64666666Y67385953D02*
X64714285Y67433572D01*
X64714285Y67433572D02*
X64761904Y67528810D01*
%TO.C,R8*%
X70882619Y50643334D02*
X70406428Y50310001D01*
X70882619Y50071906D02*
X69882619Y50071906D01*
X69882619Y50071906D02*
X69882619Y50452858D01*
X69882619Y50452858D02*
X69930238Y50548096D01*
X69930238Y50548096D02*
X69977857Y50595715D01*
X69977857Y50595715D02*
X70073095Y50643334D01*
X70073095Y50643334D02*
X70215952Y50643334D01*
X70215952Y50643334D02*
X70311190Y50595715D01*
X70311190Y50595715D02*
X70358809Y50548096D01*
X70358809Y50548096D02*
X70406428Y50452858D01*
X70406428Y50452858D02*
X70406428Y50071906D01*
X70311190Y51214763D02*
X70263571Y51119525D01*
X70263571Y51119525D02*
X70215952Y51071906D01*
X70215952Y51071906D02*
X70120714Y51024287D01*
X70120714Y51024287D02*
X70073095Y51024287D01*
X70073095Y51024287D02*
X69977857Y51071906D01*
X69977857Y51071906D02*
X69930238Y51119525D01*
X69930238Y51119525D02*
X69882619Y51214763D01*
X69882619Y51214763D02*
X69882619Y51405239D01*
X69882619Y51405239D02*
X69930238Y51500477D01*
X69930238Y51500477D02*
X69977857Y51548096D01*
X69977857Y51548096D02*
X70073095Y51595715D01*
X70073095Y51595715D02*
X70120714Y51595715D01*
X70120714Y51595715D02*
X70215952Y51548096D01*
X70215952Y51548096D02*
X70263571Y51500477D01*
X70263571Y51500477D02*
X70311190Y51405239D01*
X70311190Y51405239D02*
X70311190Y51214763D01*
X70311190Y51214763D02*
X70358809Y51119525D01*
X70358809Y51119525D02*
X70406428Y51071906D01*
X70406428Y51071906D02*
X70501666Y51024287D01*
X70501666Y51024287D02*
X70692142Y51024287D01*
X70692142Y51024287D02*
X70787380Y51071906D01*
X70787380Y51071906D02*
X70835000Y51119525D01*
X70835000Y51119525D02*
X70882619Y51214763D01*
X70882619Y51214763D02*
X70882619Y51405239D01*
X70882619Y51405239D02*
X70835000Y51500477D01*
X70835000Y51500477D02*
X70787380Y51548096D01*
X70787380Y51548096D02*
X70692142Y51595715D01*
X70692142Y51595715D02*
X70501666Y51595715D01*
X70501666Y51595715D02*
X70406428Y51548096D01*
X70406428Y51548096D02*
X70358809Y51500477D01*
X70358809Y51500477D02*
X70311190Y51405239D01*
%TO.C,SW4*%
X62755000Y24746668D02*
X62802619Y24889525D01*
X62802619Y24889525D02*
X62802619Y25127620D01*
X62802619Y25127620D02*
X62755000Y25222858D01*
X62755000Y25222858D02*
X62707380Y25270477D01*
X62707380Y25270477D02*
X62612142Y25318096D01*
X62612142Y25318096D02*
X62516904Y25318096D01*
X62516904Y25318096D02*
X62421666Y25270477D01*
X62421666Y25270477D02*
X62374047Y25222858D01*
X62374047Y25222858D02*
X62326428Y25127620D01*
X62326428Y25127620D02*
X62278809Y24937144D01*
X62278809Y24937144D02*
X62231190Y24841906D01*
X62231190Y24841906D02*
X62183571Y24794287D01*
X62183571Y24794287D02*
X62088333Y24746668D01*
X62088333Y24746668D02*
X61993095Y24746668D01*
X61993095Y24746668D02*
X61897857Y24794287D01*
X61897857Y24794287D02*
X61850238Y24841906D01*
X61850238Y24841906D02*
X61802619Y24937144D01*
X61802619Y24937144D02*
X61802619Y25175239D01*
X61802619Y25175239D02*
X61850238Y25318096D01*
X61802619Y25651430D02*
X62802619Y25889525D01*
X62802619Y25889525D02*
X62088333Y26080001D01*
X62088333Y26080001D02*
X62802619Y26270477D01*
X62802619Y26270477D02*
X61802619Y26508572D01*
X62135952Y27318096D02*
X62802619Y27318096D01*
X61755000Y27080001D02*
X62469285Y26841906D01*
X62469285Y26841906D02*
X62469285Y27460953D01*
%TO.C,R14*%
X49031596Y93143079D02*
X48555405Y92809746D01*
X49031596Y92571651D02*
X48031596Y92571651D01*
X48031596Y92571651D02*
X48031596Y92952603D01*
X48031596Y92952603D02*
X48079215Y93047841D01*
X48079215Y93047841D02*
X48126834Y93095460D01*
X48126834Y93095460D02*
X48222072Y93143079D01*
X48222072Y93143079D02*
X48364929Y93143079D01*
X48364929Y93143079D02*
X48460167Y93095460D01*
X48460167Y93095460D02*
X48507786Y93047841D01*
X48507786Y93047841D02*
X48555405Y92952603D01*
X48555405Y92952603D02*
X48555405Y92571651D01*
X49031596Y94095460D02*
X49031596Y93524032D01*
X49031596Y93809746D02*
X48031596Y93809746D01*
X48031596Y93809746D02*
X48174453Y93714508D01*
X48174453Y93714508D02*
X48269691Y93619270D01*
X48269691Y93619270D02*
X48317310Y93524032D01*
X48364929Y94952603D02*
X49031596Y94952603D01*
X47983977Y94714508D02*
X48698262Y94476413D01*
X48698262Y94476413D02*
X48698262Y95095460D01*
%TO.C,R16*%
X41303596Y93063409D02*
X40827405Y92730076D01*
X41303596Y92491981D02*
X40303596Y92491981D01*
X40303596Y92491981D02*
X40303596Y92872933D01*
X40303596Y92872933D02*
X40351215Y92968171D01*
X40351215Y92968171D02*
X40398834Y93015790D01*
X40398834Y93015790D02*
X40494072Y93063409D01*
X40494072Y93063409D02*
X40636929Y93063409D01*
X40636929Y93063409D02*
X40732167Y93015790D01*
X40732167Y93015790D02*
X40779786Y92968171D01*
X40779786Y92968171D02*
X40827405Y92872933D01*
X40827405Y92872933D02*
X40827405Y92491981D01*
X41303596Y94015790D02*
X41303596Y93444362D01*
X41303596Y93730076D02*
X40303596Y93730076D01*
X40303596Y93730076D02*
X40446453Y93634838D01*
X40446453Y93634838D02*
X40541691Y93539600D01*
X40541691Y93539600D02*
X40589310Y93444362D01*
X40303596Y94872933D02*
X40303596Y94682457D01*
X40303596Y94682457D02*
X40351215Y94587219D01*
X40351215Y94587219D02*
X40398834Y94539600D01*
X40398834Y94539600D02*
X40541691Y94444362D01*
X40541691Y94444362D02*
X40732167Y94396743D01*
X40732167Y94396743D02*
X41113119Y94396743D01*
X41113119Y94396743D02*
X41208357Y94444362D01*
X41208357Y94444362D02*
X41255977Y94491981D01*
X41255977Y94491981D02*
X41303596Y94587219D01*
X41303596Y94587219D02*
X41303596Y94777695D01*
X41303596Y94777695D02*
X41255977Y94872933D01*
X41255977Y94872933D02*
X41208357Y94920552D01*
X41208357Y94920552D02*
X41113119Y94968171D01*
X41113119Y94968171D02*
X40875024Y94968171D01*
X40875024Y94968171D02*
X40779786Y94920552D01*
X40779786Y94920552D02*
X40732167Y94872933D01*
X40732167Y94872933D02*
X40684548Y94777695D01*
X40684548Y94777695D02*
X40684548Y94587219D01*
X40684548Y94587219D02*
X40732167Y94491981D01*
X40732167Y94491981D02*
X40779786Y94444362D01*
X40779786Y94444362D02*
X40875024Y94396743D01*
%TO.C,U2*%
X45265700Y72946177D02*
X46075223Y72946177D01*
X46075223Y72946177D02*
X46170461Y72993796D01*
X46170461Y72993796D02*
X46218081Y73041415D01*
X46218081Y73041415D02*
X46265700Y73136653D01*
X46265700Y73136653D02*
X46265700Y73327129D01*
X46265700Y73327129D02*
X46218081Y73422367D01*
X46218081Y73422367D02*
X46170461Y73469986D01*
X46170461Y73469986D02*
X46075223Y73517605D01*
X46075223Y73517605D02*
X45265700Y73517605D01*
X45360938Y73946177D02*
X45313319Y73993796D01*
X45313319Y73993796D02*
X45265700Y74089034D01*
X45265700Y74089034D02*
X45265700Y74327129D01*
X45265700Y74327129D02*
X45313319Y74422367D01*
X45313319Y74422367D02*
X45360938Y74469986D01*
X45360938Y74469986D02*
X45456176Y74517605D01*
X45456176Y74517605D02*
X45551414Y74517605D01*
X45551414Y74517605D02*
X45694271Y74469986D01*
X45694271Y74469986D02*
X46265700Y73898558D01*
X46265700Y73898558D02*
X46265700Y74517605D01*
%TO.C,R17*%
X63047142Y74957381D02*
X62713809Y75433572D01*
X62475714Y74957381D02*
X62475714Y75957381D01*
X62475714Y75957381D02*
X62856666Y75957381D01*
X62856666Y75957381D02*
X62951904Y75909762D01*
X62951904Y75909762D02*
X62999523Y75862143D01*
X62999523Y75862143D02*
X63047142Y75766905D01*
X63047142Y75766905D02*
X63047142Y75624048D01*
X63047142Y75624048D02*
X62999523Y75528810D01*
X62999523Y75528810D02*
X62951904Y75481191D01*
X62951904Y75481191D02*
X62856666Y75433572D01*
X62856666Y75433572D02*
X62475714Y75433572D01*
X63999523Y74957381D02*
X63428095Y74957381D01*
X63713809Y74957381D02*
X63713809Y75957381D01*
X63713809Y75957381D02*
X63618571Y75814524D01*
X63618571Y75814524D02*
X63523333Y75719286D01*
X63523333Y75719286D02*
X63428095Y75671667D01*
X64332857Y75957381D02*
X64999523Y75957381D01*
X64999523Y75957381D02*
X64570952Y74957381D01*
%TO.C,D6*%
X25002619Y6531906D02*
X24002619Y6531906D01*
X24002619Y6531906D02*
X24002619Y6770001D01*
X24002619Y6770001D02*
X24050238Y6912858D01*
X24050238Y6912858D02*
X24145476Y7008096D01*
X24145476Y7008096D02*
X24240714Y7055715D01*
X24240714Y7055715D02*
X24431190Y7103334D01*
X24431190Y7103334D02*
X24574047Y7103334D01*
X24574047Y7103334D02*
X24764523Y7055715D01*
X24764523Y7055715D02*
X24859761Y7008096D01*
X24859761Y7008096D02*
X24955000Y6912858D01*
X24955000Y6912858D02*
X25002619Y6770001D01*
X25002619Y6770001D02*
X25002619Y6531906D01*
X24002619Y7960477D02*
X24002619Y7770001D01*
X24002619Y7770001D02*
X24050238Y7674763D01*
X24050238Y7674763D02*
X24097857Y7627144D01*
X24097857Y7627144D02*
X24240714Y7531906D01*
X24240714Y7531906D02*
X24431190Y7484287D01*
X24431190Y7484287D02*
X24812142Y7484287D01*
X24812142Y7484287D02*
X24907380Y7531906D01*
X24907380Y7531906D02*
X24955000Y7579525D01*
X24955000Y7579525D02*
X25002619Y7674763D01*
X25002619Y7674763D02*
X25002619Y7865239D01*
X25002619Y7865239D02*
X24955000Y7960477D01*
X24955000Y7960477D02*
X24907380Y8008096D01*
X24907380Y8008096D02*
X24812142Y8055715D01*
X24812142Y8055715D02*
X24574047Y8055715D01*
X24574047Y8055715D02*
X24478809Y8008096D01*
X24478809Y8008096D02*
X24431190Y7960477D01*
X24431190Y7960477D02*
X24383571Y7865239D01*
X24383571Y7865239D02*
X24383571Y7674763D01*
X24383571Y7674763D02*
X24431190Y7579525D01*
X24431190Y7579525D02*
X24478809Y7531906D01*
X24478809Y7531906D02*
X24574047Y7484287D01*
%TO.C,C9*%
X28583333Y54682620D02*
X28535714Y54635000D01*
X28535714Y54635000D02*
X28392857Y54587381D01*
X28392857Y54587381D02*
X28297619Y54587381D01*
X28297619Y54587381D02*
X28154762Y54635000D01*
X28154762Y54635000D02*
X28059524Y54730239D01*
X28059524Y54730239D02*
X28011905Y54825477D01*
X28011905Y54825477D02*
X27964286Y55015953D01*
X27964286Y55015953D02*
X27964286Y55158810D01*
X27964286Y55158810D02*
X28011905Y55349286D01*
X28011905Y55349286D02*
X28059524Y55444524D01*
X28059524Y55444524D02*
X28154762Y55539762D01*
X28154762Y55539762D02*
X28297619Y55587381D01*
X28297619Y55587381D02*
X28392857Y55587381D01*
X28392857Y55587381D02*
X28535714Y55539762D01*
X28535714Y55539762D02*
X28583333Y55492143D01*
X29059524Y54587381D02*
X29250000Y54587381D01*
X29250000Y54587381D02*
X29345238Y54635000D01*
X29345238Y54635000D02*
X29392857Y54682620D01*
X29392857Y54682620D02*
X29488095Y54825477D01*
X29488095Y54825477D02*
X29535714Y55015953D01*
X29535714Y55015953D02*
X29535714Y55396905D01*
X29535714Y55396905D02*
X29488095Y55492143D01*
X29488095Y55492143D02*
X29440476Y55539762D01*
X29440476Y55539762D02*
X29345238Y55587381D01*
X29345238Y55587381D02*
X29154762Y55587381D01*
X29154762Y55587381D02*
X29059524Y55539762D01*
X29059524Y55539762D02*
X29011905Y55492143D01*
X29011905Y55492143D02*
X28964286Y55396905D01*
X28964286Y55396905D02*
X28964286Y55158810D01*
X28964286Y55158810D02*
X29011905Y55063572D01*
X29011905Y55063572D02*
X29059524Y55015953D01*
X29059524Y55015953D02*
X29154762Y54968334D01*
X29154762Y54968334D02*
X29345238Y54968334D01*
X29345238Y54968334D02*
X29440476Y55015953D01*
X29440476Y55015953D02*
X29488095Y55063572D01*
X29488095Y55063572D02*
X29535714Y55158810D01*
D12*
%TO.C,R4*%
X44500000Y49870000D02*
X44500000Y48920000D01*
X45420000Y48920000D02*
X43580000Y48920000D01*
X43580000Y48920000D02*
X43580000Y45080000D01*
X45420000Y45080000D02*
X45420000Y48920000D01*
X43580000Y45080000D02*
X45420000Y45080000D01*
X44500000Y44130000D02*
X44500000Y45080000D01*
%TO.C,U1*%
X6675000Y104380000D02*
X11316000Y104380000D01*
X6675000Y104380000D02*
X6675000Y114620000D01*
X8185000Y104380000D02*
X8185000Y114620000D01*
X11316000Y104380000D02*
X11316000Y114620000D01*
X6675000Y107650000D02*
X8185000Y107650000D01*
X6675000Y111351000D02*
X8185000Y111351000D01*
X6675000Y114620000D02*
X11316000Y114620000D01*
%TO.C,C1*%
X37420000Y43379000D02*
X37420000Y42121000D01*
X35580000Y43379000D02*
X35580000Y42121000D01*
%TO.C,C10*%
X28121000Y57920000D02*
X29379000Y57920000D01*
X28121000Y56080000D02*
X29379000Y56080000D01*
%TO.C,R12*%
X47886421Y90838081D02*
X47886421Y91788081D01*
X46966421Y91788081D02*
X48806421Y91788081D01*
X48806421Y91788081D02*
X48806421Y95628081D01*
X46966421Y95628081D02*
X46966421Y91788081D01*
X48806421Y95628081D02*
X46966421Y95628081D01*
X47886421Y96578081D02*
X47886421Y95628081D01*
%TO.C,R3*%
X47500000Y37130000D02*
X47500000Y38080000D01*
X46580000Y38080000D02*
X48420000Y38080000D01*
X48420000Y38080000D02*
X48420000Y41920000D01*
X46580000Y41920000D02*
X46580000Y38080000D01*
X48420000Y41920000D02*
X46580000Y41920000D01*
X47500000Y42870000D02*
X47500000Y41920000D01*
%TO.C,C13*%
X8121000Y99420000D02*
X9379000Y99420000D01*
X8121000Y97580000D02*
X9379000Y97580000D01*
%TO.C,R7*%
X71500000Y38130000D02*
X71500000Y39080000D01*
X70580000Y39080000D02*
X72420000Y39080000D01*
X72420000Y39080000D02*
X72420000Y42920000D01*
X70580000Y42920000D02*
X70580000Y39080000D01*
X72420000Y42920000D02*
X70580000Y42920000D01*
X71500000Y43870000D02*
X71500000Y42920000D01*
%TO.C,R22*%
X26130000Y11730000D02*
X26130000Y18270000D01*
X26460000Y11730000D02*
X26130000Y11730000D01*
X28540000Y11730000D02*
X28870000Y11730000D01*
X28870000Y11730000D02*
X28870000Y18270000D01*
X26130000Y18270000D02*
X26460000Y18270000D01*
X28870000Y18270000D02*
X28540000Y18270000D01*
%TO.C,C3*%
X53879000Y24320000D02*
X52621000Y24320000D01*
X53879000Y26160000D02*
X52621000Y26160000D01*
%TO.C,R20*%
X19130000Y12730000D02*
X19130000Y19270000D01*
X19460000Y12730000D02*
X19130000Y12730000D01*
X21540000Y12730000D02*
X21870000Y12730000D01*
X21870000Y12730000D02*
X21870000Y19270000D01*
X19130000Y19270000D02*
X19460000Y19270000D01*
X21870000Y19270000D02*
X21540000Y19270000D01*
%TO.C,R1*%
X39500000Y37130000D02*
X39500000Y38080000D01*
X38580000Y38080000D02*
X40420000Y38080000D01*
X40420000Y38080000D02*
X40420000Y41920000D01*
X38580000Y41920000D02*
X38580000Y38080000D01*
X40420000Y41920000D02*
X38580000Y41920000D01*
X39500000Y42870000D02*
X39500000Y41920000D01*
%TO.C,SW2*%
X49350000Y36100000D02*
X49350000Y48400000D01*
X52070000Y36100000D02*
X49350000Y36100000D01*
X57070000Y36100000D02*
X53930000Y36100000D01*
X61650000Y36100000D02*
X58930000Y36100000D01*
X49350000Y48400000D02*
X52070000Y48400000D01*
X53930000Y48400000D02*
X57070000Y48400000D01*
X58930000Y48400000D02*
X61650000Y48400000D01*
X61650000Y48400000D02*
X61650000Y36100000D01*
X60119050Y42350000D02*
G75*
G03*
X60119050Y42350000I-4579050J0D01*
G01*
%TO.C,C4*%
X67420000Y43379000D02*
X67420000Y42121000D01*
X65580000Y43379000D02*
X65580000Y42121000D01*
%TO.C,C11*%
X14920000Y111879000D02*
X14920000Y110621000D01*
X13080000Y111879000D02*
X13080000Y110621000D01*
%TO.C,SW7*%
X33153081Y102568081D02*
X33153081Y114868081D01*
X35873081Y102568081D02*
X33153081Y102568081D01*
X40873081Y102568081D02*
X37733081Y102568081D01*
X45453081Y102568081D02*
X42733081Y102568081D01*
X33153081Y114868081D02*
X35873081Y114868081D01*
X37733081Y114868081D02*
X40873081Y114868081D01*
X42733081Y114868081D02*
X45453081Y114868081D01*
X45453081Y114868081D02*
X45453081Y102568081D01*
X43922131Y108818081D02*
G75*
G03*
X43922131Y108818081I-4579050J0D01*
G01*
%TO.C,R21*%
X14130000Y12730000D02*
X14130000Y19270000D01*
X14460000Y12730000D02*
X14130000Y12730000D01*
X16540000Y12730000D02*
X16870000Y12730000D01*
X16870000Y12730000D02*
X16870000Y19270000D01*
X14130000Y19270000D02*
X14460000Y19270000D01*
X16870000Y19270000D02*
X16540000Y19270000D01*
%TO.C,R11*%
X72303081Y123578081D02*
X72303081Y122628081D01*
X73223081Y122628081D02*
X71383081Y122628081D01*
X71383081Y122628081D02*
X71383081Y118788081D01*
X73223081Y118788081D02*
X73223081Y122628081D01*
X71383081Y118788081D02*
X73223081Y118788081D01*
X72303081Y117838081D02*
X72303081Y118788081D01*
%TO.C,C5*%
X68383081Y103829081D02*
X68383081Y105087081D01*
X70223081Y103829081D02*
X70223081Y105087081D01*
%TO.C,R9*%
X72740623Y97094000D02*
X72740623Y98044000D01*
X71820623Y98044000D02*
X73660623Y98044000D01*
X73660623Y98044000D02*
X73660623Y101884000D01*
X71820623Y101884000D02*
X71820623Y98044000D01*
X73660623Y101884000D02*
X71820623Y101884000D01*
X72740623Y102834000D02*
X72740623Y101884000D01*
%TO.C,D9*%
X13764000Y88670000D02*
X13920000Y88670000D01*
X16080000Y88670000D02*
X16236000Y88670000D01*
X13921392Y91902334D02*
G75*
G03*
X13764485Y88670001I1078608J-1672334D01*
G01*
X13920164Y91271129D02*
G75*
G03*
X13920001Y89189040I1079836J-1041129D01*
G01*
X16079999Y89189040D02*
G75*
G03*
X16079836Y91271129I-1079999J1040960D01*
G01*
X16235515Y88670001D02*
G75*
G03*
X16078608Y91902334I-1235515J1559999D01*
G01*
%TO.C,D1*%
X72593688Y74277042D02*
X72593688Y74433042D01*
X72593688Y76593042D02*
X72593688Y76749042D01*
X69361354Y74434434D02*
G75*
G03*
X72593687Y74277527I1672334J1078608D01*
G01*
X69992559Y74433206D02*
G75*
G03*
X72074648Y74433043I1041129J1079836D01*
G01*
X72074648Y76593041D02*
G75*
G03*
X69992559Y76592878I-1040960J-1079999D01*
G01*
X72593687Y76748557D02*
G75*
G03*
X69361354Y76591650I-1559999J-1235515D01*
G01*
%TO.C,R5*%
X58650000Y21370000D02*
X58650000Y22320000D01*
X57730000Y22320000D02*
X59570000Y22320000D01*
X59570000Y22320000D02*
X59570000Y26160000D01*
X57730000Y26160000D02*
X57730000Y22320000D01*
X59570000Y26160000D02*
X57730000Y26160000D01*
X58650000Y27110000D02*
X58650000Y26160000D01*
%TO.C,R23*%
X20673081Y121978081D02*
X20673081Y115438081D01*
X20343081Y121978081D02*
X20673081Y121978081D01*
X18263081Y121978081D02*
X17933081Y121978081D01*
X17933081Y121978081D02*
X17933081Y115438081D01*
X20673081Y115438081D02*
X20343081Y115438081D01*
X17933081Y115438081D02*
X18263081Y115438081D01*
%TO.C,R6*%
X61500000Y30870000D02*
X61500000Y29920000D01*
X62420000Y29920000D02*
X60580000Y29920000D01*
X60580000Y29920000D02*
X60580000Y26080000D01*
X62420000Y26080000D02*
X62420000Y29920000D01*
X60580000Y26080000D02*
X62420000Y26080000D01*
X61500000Y25130000D02*
X61500000Y26080000D01*
%TO.C,SW8*%
X42083081Y123013081D02*
X31863081Y123013081D01*
X42083081Y123013081D02*
X42083081Y120353081D01*
X31863081Y123013081D02*
X31863081Y120353081D01*
X44683081Y121683081D02*
X44683081Y120353081D01*
X44683081Y120353081D02*
X43353081Y120353081D01*
X42083081Y120353081D02*
X31863081Y120353081D01*
%TO.C,C7*%
X54223081Y97087081D02*
X54223081Y95829081D01*
X52383081Y97087081D02*
X52383081Y95829081D01*
%TO.C,SW6*%
X54590623Y113824000D02*
X54590623Y126124000D01*
X57310623Y113824000D02*
X54590623Y113824000D01*
X62310623Y113824000D02*
X59170623Y113824000D01*
X66890623Y113824000D02*
X64170623Y113824000D01*
X54590623Y126124000D02*
X57310623Y126124000D01*
X59170623Y126124000D02*
X62310623Y126124000D01*
X64170623Y126124000D02*
X66890623Y126124000D01*
X66890623Y126124000D02*
X66890623Y113824000D01*
X65359673Y120074000D02*
G75*
G03*
X65359673Y120074000I-4579050J0D01*
G01*
%TO.C,D5*%
X14264000Y5710000D02*
X14420000Y5710000D01*
X16580000Y5710000D02*
X16736000Y5710000D01*
X14421392Y8942334D02*
G75*
G03*
X14264485Y5710001I1078608J-1672334D01*
G01*
X14420164Y8311129D02*
G75*
G03*
X14420001Y6229040I1079836J-1041129D01*
G01*
X16579999Y6229040D02*
G75*
G03*
X16579836Y8311129I-1079999J1040960D01*
G01*
X16735515Y5710001D02*
G75*
G03*
X16578608Y8942334I-1235515J1559999D01*
G01*
%TO.C,SW3*%
X49350000Y4100000D02*
X49350000Y16400000D01*
X52070000Y4100000D02*
X49350000Y4100000D01*
X57070000Y4100000D02*
X53930000Y4100000D01*
X61650000Y4100000D02*
X58930000Y4100000D01*
X49350000Y16400000D02*
X52070000Y16400000D01*
X53930000Y16400000D02*
X57070000Y16400000D01*
X58930000Y16400000D02*
X61650000Y16400000D01*
X61650000Y16400000D02*
X61650000Y4100000D01*
X60119050Y10350000D02*
G75*
G03*
X60119050Y10350000I-4579050J0D01*
G01*
%TO.C,R15*%
X29303081Y120578081D02*
X29303081Y119628081D01*
X30223081Y119628081D02*
X28383081Y119628081D01*
X28383081Y119628081D02*
X28383081Y115788081D01*
X30223081Y115788081D02*
X30223081Y119628081D01*
X28383081Y115788081D02*
X30223081Y115788081D01*
X29303081Y114838081D02*
X29303081Y115788081D01*
%TO.C,SW1*%
X35350000Y20100000D02*
X35350000Y32400000D01*
X38070000Y20100000D02*
X35350000Y20100000D01*
X43070000Y20100000D02*
X39930000Y20100000D01*
X47650000Y20100000D02*
X44930000Y20100000D01*
X35350000Y32400000D02*
X38070000Y32400000D01*
X39930000Y32400000D02*
X43070000Y32400000D01*
X44930000Y32400000D02*
X47650000Y32400000D01*
X47650000Y32400000D02*
X47650000Y20100000D01*
X46119050Y26350000D02*
G75*
G03*
X46119050Y26350000I-4579050J0D01*
G01*
%TO.C,D4*%
X19264000Y5710000D02*
X19420000Y5710000D01*
X21580000Y5710000D02*
X21736000Y5710000D01*
X19421392Y8942334D02*
G75*
G03*
X19264485Y5710001I1078608J-1672334D01*
G01*
X19420164Y8311129D02*
G75*
G03*
X19420001Y6229040I1079836J-1041129D01*
G01*
X21579999Y6229040D02*
G75*
G03*
X21579836Y8311129I-1079999J1040960D01*
G01*
X21735515Y5710001D02*
G75*
G03*
X21578608Y8942334I-1235515J1559999D01*
G01*
%TO.C,R10*%
X45303081Y90838081D02*
X45303081Y91788081D01*
X44383081Y91788081D02*
X46223081Y91788081D01*
X46223081Y91788081D02*
X46223081Y95628081D01*
X44383081Y95628081D02*
X44383081Y91788081D01*
X46223081Y95628081D02*
X44383081Y95628081D01*
X45303081Y96578081D02*
X45303081Y95628081D01*
%TO.C,R2*%
X41888701Y46870000D02*
X41888701Y45920000D01*
X42808701Y45920000D02*
X40968701Y45920000D01*
X40968701Y45920000D02*
X40968701Y42080000D01*
X42808701Y42080000D02*
X42808701Y45920000D01*
X40968701Y42080000D02*
X42808701Y42080000D01*
X41888701Y41130000D02*
X41888701Y42080000D01*
%TO.C,D3*%
X72593081Y64264000D02*
X72593081Y64420000D01*
X72593081Y66580000D02*
X72593081Y66736000D01*
X69360747Y64421392D02*
G75*
G03*
X72593080Y64264485I1672334J1078608D01*
G01*
X69991952Y64420164D02*
G75*
G03*
X72074041Y64420001I1041129J1079836D01*
G01*
X72074041Y66579999D02*
G75*
G03*
X69991952Y66579836I-1040960J-1079999D01*
G01*
X72593080Y66735515D02*
G75*
G03*
X69360747Y66578608I-1559999J-1235515D01*
G01*
%TO.C,R24*%
X14270000Y93130000D02*
X7730000Y93130000D01*
X14270000Y93460000D02*
X14270000Y93130000D01*
X14270000Y95540000D02*
X14270000Y95870000D01*
X14270000Y95870000D02*
X7730000Y95870000D01*
X7730000Y93130000D02*
X7730000Y93460000D01*
X7730000Y95870000D02*
X7730000Y95540000D01*
%TO.C,SW5*%
X54590623Y93568081D02*
X54590623Y105868081D01*
X57310623Y93568081D02*
X54590623Y93568081D01*
X62310623Y93568081D02*
X59170623Y93568081D01*
X66890623Y93568081D02*
X64170623Y93568081D01*
X54590623Y105868081D02*
X57310623Y105868081D01*
X59170623Y105868081D02*
X62310623Y105868081D01*
X64170623Y105868081D02*
X66890623Y105868081D01*
X66890623Y105868081D02*
X66890623Y93568081D01*
X65359673Y99818081D02*
G75*
G03*
X65359673Y99818081I-4579050J0D01*
G01*
%TO.C,C8*%
X37682081Y96788081D02*
X36424081Y96788081D01*
X37682081Y98628081D02*
X36424081Y98628081D01*
D11*
%TO.C,U3*%
X35500000Y11000000D02*
X5500000Y11000000D01*
X35500000Y51000000D02*
X35500000Y11000000D01*
X35500000Y51000000D02*
X5500000Y51000000D01*
X5500000Y51000000D02*
X5500000Y11000000D01*
D12*
%TO.C,R13*%
X49303081Y108578081D02*
X49303081Y107628081D01*
X50223081Y107628081D02*
X48383081Y107628081D01*
X48383081Y107628081D02*
X48383081Y103788081D01*
X50223081Y103788081D02*
X50223081Y107628081D01*
X48383081Y103788081D02*
X50223081Y103788081D01*
X49303081Y102838081D02*
X49303081Y103788081D01*
%TO.C,D8*%
X4000000Y105730000D02*
X4000000Y106380000D01*
X2880000Y106380000D02*
X5120000Y106380000D01*
X5120000Y106380000D02*
X5120000Y110620000D01*
X2880000Y106980000D02*
X5120000Y106980000D01*
X2880000Y107100000D02*
X5120000Y107100000D01*
X2880000Y107220000D02*
X5120000Y107220000D01*
X2880000Y110620000D02*
X2880000Y106380000D01*
X5120000Y110620000D02*
X2880000Y110620000D01*
X4000000Y111270000D02*
X4000000Y110620000D01*
%TO.C,C2*%
X54121000Y52920000D02*
X55379000Y52920000D01*
X54121000Y51080000D02*
X55379000Y51080000D01*
%TO.C,C6*%
X70621000Y114420000D02*
X71879000Y114420000D01*
X70621000Y112580000D02*
X71879000Y112580000D01*
%TO.C,C12*%
X11121000Y103420000D02*
X12379000Y103420000D01*
X11121000Y101580000D02*
X12379000Y101580000D01*
%TO.C,D2*%
X72593688Y69735277D02*
X72593688Y69891277D01*
X72593688Y72051277D02*
X72593688Y72207277D01*
X69361354Y69892669D02*
G75*
G03*
X72593687Y69735762I1672334J1078608D01*
G01*
X69992559Y69891441D02*
G75*
G03*
X72074648Y69891278I1041129J1079836D01*
G01*
X72074648Y72051276D02*
G75*
G03*
X69992559Y72051113I-1040960J-1079999D01*
G01*
X72593687Y72206792D02*
G75*
G03*
X69361354Y72049885I-1559999J-1235515D01*
G01*
%TO.C,R18*%
X60630000Y71000000D02*
X61580000Y71000000D01*
X61580000Y71920000D02*
X61580000Y70080000D01*
X61580000Y70080000D02*
X65420000Y70080000D01*
X65420000Y71920000D02*
X61580000Y71920000D01*
X65420000Y70080000D02*
X65420000Y71920000D01*
X66370000Y71000000D02*
X65420000Y71000000D01*
%TO.C,D7*%
X22764000Y119210000D02*
X22920000Y119210000D01*
X25080000Y119210000D02*
X25236000Y119210000D01*
X22921392Y122442334D02*
G75*
G03*
X22764485Y119210001I1078608J-1672334D01*
G01*
X22920164Y121811129D02*
G75*
G03*
X22920001Y119729040I1079836J-1041129D01*
G01*
X25079999Y119729040D02*
G75*
G03*
X25079836Y121811129I-1079999J1040960D01*
G01*
X25235515Y119210001D02*
G75*
G03*
X25078608Y122442334I-1235515J1559999D01*
G01*
%TO.C,R19*%
X60630000Y65500000D02*
X61580000Y65500000D01*
X61580000Y66420000D02*
X61580000Y64580000D01*
X61580000Y64580000D02*
X65420000Y64580000D01*
X65420000Y66420000D02*
X61580000Y66420000D01*
X65420000Y64580000D02*
X65420000Y66420000D01*
X66370000Y65500000D02*
X65420000Y65500000D01*
%TO.C,R8*%
X68500000Y53680000D02*
X68500000Y52730000D01*
X69420000Y52730000D02*
X67580000Y52730000D01*
X67580000Y52730000D02*
X67580000Y48890000D01*
X69420000Y48890000D02*
X69420000Y52730000D01*
X67580000Y48890000D02*
X69420000Y48890000D01*
X68500000Y47940000D02*
X68500000Y48890000D01*
%TO.C,SW4*%
X63350000Y20100000D02*
X63350000Y32400000D01*
X66070000Y20100000D02*
X63350000Y20100000D01*
X71070000Y20100000D02*
X67930000Y20100000D01*
X75650000Y20100000D02*
X72930000Y20100000D01*
X63350000Y32400000D02*
X66070000Y32400000D01*
X67930000Y32400000D02*
X71070000Y32400000D01*
X72930000Y32400000D02*
X75650000Y32400000D01*
X75650000Y32400000D02*
X75650000Y20100000D01*
X74119050Y26350000D02*
G75*
G03*
X74119050Y26350000I-4579050J0D01*
G01*
%TO.C,R14*%
X50488977Y90915936D02*
X50488977Y91865936D01*
X49568977Y91865936D02*
X51408977Y91865936D01*
X51408977Y91865936D02*
X51408977Y95705936D01*
X49568977Y95705936D02*
X49568977Y91865936D01*
X51408977Y95705936D02*
X49568977Y95705936D01*
X50488977Y96655936D02*
X50488977Y95705936D01*
%TO.C,R16*%
X42760977Y90836266D02*
X42760977Y91786266D01*
X41840977Y91786266D02*
X43680977Y91786266D01*
X43680977Y91786266D02*
X43680977Y95626266D01*
X41840977Y95626266D02*
X41840977Y91786266D01*
X43680977Y95626266D02*
X41840977Y95626266D01*
X42760977Y96576266D02*
X42760977Y95626266D01*
%TO.C,U2*%
X21113081Y59678081D02*
X21113081Y61008081D01*
X22443081Y59678081D02*
X21113081Y59678081D01*
X23713081Y59678081D02*
X69493081Y59678081D01*
X23713081Y59678081D02*
X23713081Y62338081D01*
X69493081Y59678081D02*
X69493081Y62338081D01*
X21203081Y59758081D02*
X21203081Y87658081D01*
X69403081Y59758081D02*
X21203081Y59758081D01*
X69403081Y59758081D02*
X69403081Y87658081D01*
X23713081Y62338081D02*
X69493081Y62338081D01*
X15303081Y64708081D02*
X15303081Y82708081D01*
X21173081Y64708081D02*
X15303081Y64708081D01*
X15303081Y82708081D02*
X21173081Y82708081D01*
X21113081Y85078081D02*
X21113081Y86408081D01*
X22443081Y85078081D02*
X21113081Y85078081D01*
X23713081Y85078081D02*
X69493081Y85078081D01*
X23713081Y85078081D02*
X23713081Y87738081D01*
X69493081Y85078081D02*
X69493081Y87738081D01*
X21203081Y87658081D02*
X69403081Y87658081D01*
X23713081Y87738081D02*
X69493081Y87738081D01*
%TO.C,R17*%
X60820000Y73500000D02*
X61770000Y73500000D01*
X61770000Y74420000D02*
X61770000Y72580000D01*
X61770000Y72580000D02*
X65610000Y72580000D01*
X65610000Y74420000D02*
X61770000Y74420000D01*
X65610000Y72580000D02*
X65610000Y74420000D01*
X66560000Y73500000D02*
X65610000Y73500000D01*
%TO.C,D6*%
X26264000Y5710000D02*
X26420000Y5710000D01*
X28580000Y5710000D02*
X28736000Y5710000D01*
X26421392Y8942334D02*
G75*
G03*
X26264485Y5710001I1078608J-1672334D01*
G01*
X26420164Y8311129D02*
G75*
G03*
X26420001Y6229040I1079836J-1041129D01*
G01*
X28579999Y6229040D02*
G75*
G03*
X28579836Y8311129I-1079999J1040960D01*
G01*
X28735515Y5710001D02*
G75*
G03*
X28578608Y8942334I-1235515J1559999D01*
G01*
%TO.C,C9*%
X28121000Y53920000D02*
X29379000Y53920000D01*
X28121000Y52080000D02*
X29379000Y52080000D01*
%TD*%
M02*
